<svg width="794" height="265" xmlns="http://www.w3.org/2000/svg" xmlns:xlink="http://www.w3.org/1999/xlink" overflow="hidden"><defs><clipPath id="clip0"><rect x="0" y="0" width="794" height="265"/></clipPath></defs><g clip-path="url(#clip0)"><rect x="0" y="0" width="794" height="265.389" fill="#FFFFFF"/><text font-family="Arial,Arial_MSFontService,sans-serif" font-weight="400" font-size="9" transform="matrix(1 0 0 1.00147 189.652 204)">neutral position (0)</text><path d="M212.482 92.6517C212.229 91.5747 212.895 90.4961 213.971 90.2425L221.759 88.4058C222.835 88.1522 223.912 88.8197 224.165 89.8967L231.457 120.91C231.71 121.987 231.044 123.066 229.968 123.319L222.18 125.156C221.104 125.41 220.027 124.742 219.774 123.665Z" stroke="#000000" stroke-width="1.334" stroke-miterlimit="8" fill="none" fill-rule="evenodd"/><path d="M0 2.00065C-2.85011e-16 0.89572 0.895722 -2.8501e-16 2.00065 -5.70021e-16L10.0029 0C11.1078 -5.70021e-16 12.0036 0.89572 12.0036 2.00065L12.0036 33.8178C12.0036 34.9227 11.1078 35.8184 10.0029 35.8184L2.00065 35.8184C0.895722 35.8184 0 34.9227 0 33.8178Z" stroke="#000000" stroke-width="1.334" stroke-miterlimit="8" fill="none" fill-rule="evenodd" transform="matrix(0.973304 0.229521 0.229184 -0.974734 211.535 154.109)"/><rect x="220" y="117.172" width="4" height="11.0162" fill="#FFFFFF"/><rect x="222.5" y="67.5993" width="18" height="113.166" stroke="#000000" stroke-width="1.33389" stroke-miterlimit="8" fill="#A6A6A6"/><text font-family="Arial,Arial_MSFontService,sans-serif" font-weight="400" font-size="9" transform="matrix(1 0 0 1.00147 303.758 203)">top side pressed (1)</text><path d="M321.5 91.6346C321.5 90.5284 322.395 89.6316 323.5 89.6316L331.5 89.6316C332.605 89.6316 333.5 90.5284 333.5 91.6346L333.5 123.682C333.5 124.788 332.605 125.684 331.5 125.684L323.5 125.684C322.395 125.684 321.5 124.788 321.5 123.682Z" stroke="#000000" stroke-width="1.33389" stroke-miterlimit="8" fill="none" fill-rule="evenodd"/><path d="M0 2.35664C-2.85072e-16 1.0551 1.0551 -5.70143e-16 2.35664 -5.70143e-16L11.7829 0C13.0844 -5.70143e-16 14.1395 1.0551 14.1395 2.35664L14.1395 33.4695C14.1395 34.771 13.0844 35.8261 11.7829 35.8261L2.35664 35.8261C1.0551 35.8261 -2.85072e-16 34.771 0 33.4695Z" stroke="#000000" stroke-width="1.33428" stroke-miterlimit="8" fill="none" fill-rule="evenodd" transform="matrix(0.894671 0.446726 0.44607 -0.895986 307.635 151.755)"/><rect x="322" y="117.172" width="5" height="11.0162" fill="#FFFFFF"/><rect x="327.5" y="67.5993" width="19" height="113.166" stroke="#000000" stroke-width="1.33389" stroke-miterlimit="8" fill="#A6A6A6"/><text font-family="Arial,Arial_MSFontService,sans-serif" font-weight="400" font-size="9" transform="matrix(1 0 0 1.00147 422.808 204)">bottom side pressed (2)</text><path d="M0 2.00004C-5.7291e-16 0.895448 0.895448 0 2.00004 0L10 0C11.1046 -5.7291e-16 12 0.895448 12 2.00004L12 34C12 35.1045 11.1046 36 10 36L2.00004 36C0.895448 36 0 35.1045 0 34Z" stroke="#000000" stroke-width="1.33389" stroke-miterlimit="8" fill="none" fill-rule="evenodd" transform="matrix(1 0 0 -1.00147 440.5 159.734)"/><path d="M427.737 98.2682C427.156 97.1021 427.629 95.6854 428.794 95.1039L437.227 90.893C438.392 90.3116 439.806 90.7856 440.387 91.9517L454.265 119.828C454.846 120.995 454.373 122.411 453.208 122.993L444.775 127.204C443.61 127.785 442.196 127.311 441.615 126.145Z" stroke="#000000" stroke-width="1.33428" stroke-miterlimit="8" fill="none" fill-rule="evenodd"/><rect x="0" y="0" width="5" height="11" fill="#FFFFFF" transform="matrix(1 0 0 -1.00147 441 131.193)"/><rect x="0" y="0" width="19" height="112" stroke="#000000" stroke-width="1.33389" stroke-miterlimit="8" fill="#A6A6A6" transform="matrix(1 0 0 -1.00147 446.5 180.765)"/></g></svg>