<svg width="794" height="378" xmlns="http://www.w3.org/2000/svg" xmlns:xlink="http://www.w3.org/1999/xlink" overflow="hidden"><defs><clipPath id="clip0"><rect x="0" y="0" width="794" height="378"/></clipPath></defs><g clip-path="url(#clip0)"><rect x="0" y="0" width="794" height="377.841" fill="#FFFFFF"/><path d="M0 0 0.000104987 37.7995" stroke="#000000" stroke-width="3" stroke-miterlimit="8" fill="none" fill-rule="evenodd" transform="matrix(1.00042 0 0 -1 150.5 173.243)"/><path d="M0 0 0.000104987 37.7995" stroke="#000000" stroke-width="3" stroke-miterlimit="8" fill="none" fill-rule="evenodd" transform="matrix(1.00042 0 0 -1 180.5 173.243)"/><path d="M0 0 113.398 0.000104987" stroke="#000000" stroke-width="3" stroke-miterlimit="8" fill="none" fill-rule="evenodd" transform="matrix(-1.00042 0 0 1 150.946 173.427)"/><path d="M0 0 370.435 0.000104987" stroke="#000000" stroke-width="3" stroke-miterlimit="8" fill="none" fill-rule="evenodd" transform="matrix(-1.00042 0 0 1 551.09 172.428)"/><path d="M0 0 30.2396 0.000104987" stroke="#000000" stroke-width="3" stroke-miterlimit="8" fill="none" fill-rule="evenodd" transform="matrix(-1.00042 0 0 1 180.752 136.443)"/><path d="M0 0 0.000104987 37.7995" stroke="#000000" stroke-width="3" stroke-miterlimit="8" fill="none" fill-rule="evenodd" transform="matrix(1.00042 0 0 -1 150.5 233.217)"/><path d="M0 0 0.000104987 37.7995" stroke="#000000" stroke-width="3" stroke-miterlimit="8" fill="none" fill-rule="evenodd" transform="matrix(1.00042 0 0 -1 226.5 233.217)"/><path d="M0 0 113.398 0.000104987" stroke="#000000" stroke-width="3" stroke-miterlimit="8" fill="none" fill-rule="evenodd" transform="matrix(-1.00042 0 0 1 150.946 233.402)"/><path d="M0 0 325.075 0.000104987" stroke="#000000" stroke-width="3" stroke-miterlimit="8" fill="none" fill-rule="evenodd" transform="matrix(-1.00042 0 0 1 551.712 232.402)"/><path d="M0 0 75.5989 0.000104987" stroke="#000000" stroke-width="3" stroke-miterlimit="8" fill="none" fill-rule="evenodd" transform="matrix(-1.00042 0 0 1 226.131 196.418)"/><path d="M0 0 0.000104987 37.7995" stroke="#000000" stroke-width="3" stroke-miterlimit="8" fill="none" fill-rule="evenodd" transform="matrix(1.00042 0 0 -1 150.5 293.192)"/><path d="M0 0 0.000104987 37.7995" stroke="#000000" stroke-width="3" stroke-miterlimit="8" fill="none" fill-rule="evenodd" transform="matrix(1.00042 0 0 -1 491.5 293.192)"/><path d="M0 0 113.398 0.000104987" stroke="#000000" stroke-width="3" stroke-miterlimit="8" fill="none" fill-rule="evenodd" transform="matrix(-1.00042 0 0 1 150.946 293.377)"/><path d="M0 0 60.4792 1.05186" stroke="#000000" stroke-width="3" stroke-miterlimit="8" fill="none" fill-rule="evenodd" transform="matrix(-1.00042 0 0 1 552.005 292.377)"/><path d="M0 0 340.195 0.000104987" stroke="#000000" stroke-width="3" stroke-miterlimit="8" fill="none" fill-rule="evenodd" transform="matrix(-1.00042 0 0 1 490.838 256.392)"/><path d="M155 256.892C155 254.684 156.567 252.894 158.5 252.894 160.433 252.894 162 254.684 162 256.892 162 259.1 160.433 260.89 158.5 260.89 156.567 260.89 155 259.1 155 256.892Z" fill="#009E73" fill-rule="evenodd"/><path d="M496 293.377C496 290.893 497.567 288.879 499.5 288.879 501.433 288.879 503 290.893 503 293.377 503 295.861 501.433 297.875 499.5 297.875 497.567 297.875 496 295.861 496 293.377Z" fill="#56B4E9" fill-rule="evenodd"/><path d="M166.084 103.807 159.918 126.969" stroke="#009E73" stroke-width="1.33389" stroke-miterlimit="8" stroke-dasharray="4.00168 1.33389" fill="none" fill-rule="evenodd"/><text font-family="Arial,Arial_MSFontService,sans-serif" font-weight="400" font-size="14" transform="matrix(1 0 0 0.99958 153.595 99)">InitialPress</text><path d="M0 0 7.75937 86.4967" stroke="#009E73" stroke-width="1.33333" stroke-miterlimit="8" stroke-dasharray="4 1.33333" fill="none" fill-rule="evenodd" transform="matrix(1.00042 0 0 -1 162.5 189.953)"/><path d="M0 0 13.2892 142.163" stroke="#009E73" stroke-width="1.33333" stroke-miterlimit="8" stroke-dasharray="4 1.33333" fill="none" fill-rule="evenodd" transform="matrix(1.00042 0 0 -1 162.5 245.62)"/><path d="M249.933 121.133 196.117 162.928" stroke="#56B4E9" stroke-width="1.33389" stroke-miterlimit="8" stroke-dasharray="4.00168 1.33389" fill="none" fill-rule="evenodd"/><text font-family="Arial,Arial_MSFontService,sans-serif" font-weight="400" font-size="14" transform="matrix(1 0 0 0.99958 238.718 117)">ShortRelease</text><path d="M0 0 33.8741 99.124" stroke="#56B4E9" stroke-width="1.33333" stroke-miterlimit="8" stroke-dasharray="4 1.33333" fill="none" fill-rule="evenodd" transform="matrix(-1.00042 0 0 1 271.388 121.449)"/><path d="M495.15 287.768 313.5 124.448" stroke="#56B4E9" stroke-width="1.33389" stroke-miterlimit="8" stroke-dasharray="4.00168 1.33389" fill="none" fill-rule="evenodd"/><path d="M155 135.443C155 132.959 156.567 130.945 158.5 130.945 160.433 130.945 162 132.959 162 135.443 162 137.927 160.433 139.941 158.5 139.941 156.567 139.941 155 137.927 155 135.443Z" fill="#009E73" fill-rule="evenodd"/><path d="M155 195.918C155 193.709 156.567 191.919 158.5 191.919 160.433 191.919 162 193.709 162 195.918 162 198.126 160.433 199.916 158.5 199.916 156.567 199.916 155 198.126 155 195.918Z" fill="#009E73" fill-rule="evenodd"/><path d="M231 231.403C231 228.919 232.343 226.905 234 226.905 235.657 226.905 237 228.919 237 231.403 237 233.887 235.657 235.901 234 235.901 232.343 235.901 231 233.887 231 231.403Z" fill="#56B4E9" fill-rule="evenodd"/><path d="M186 171.428C186 168.944 187.567 166.93 189.5 166.93 191.433 166.93 193 168.944 193 171.428 193 173.912 191.433 175.926 189.5 175.926 187.567 175.926 186 173.912 186 171.428Z" fill="#56B4E9" fill-rule="evenodd"/><text font-family="Arial,Arial_MSFontService,sans-serif" font-weight="400" font-size="16" transform="matrix(1 0 0 0.99958 175.851 325)">threshold1 (minimum to be detected)</text><path d="M142.5 320.032 149.649 320.032 149.649 320.699 142.5 320.699ZM144.49 316.749 150.278 320.366 144.49 323.981C144.334 324.079 144.128 324.032 144.03 323.875 143.933 323.719 143.98 323.514 144.136 323.416L149.472 320.083 149.472 320.648 144.136 317.315C143.98 317.217 143.933 317.012 144.03 316.855 144.128 316.699 144.334 316.652 144.49 316.749Z"/><path d="M4.25338e-06-0.333333 7.60105-0.333236 7.60104 0.33343-4.25338e-06 0.333333ZM2.44443-3.61597 8.22998 0.000105014 2.44434 3.61603C2.28822 3.7136 2.08257 3.66614 1.98501 3.51003 1.88744 3.35391 1.9349 3.14826 2.09101 3.05069L7.42439-0.282571 7.42438 0.282761 2.09109-3.05064C1.93498-3.14821 1.88752-3.35386 1.9851-3.50997 2.08267-3.66609 2.28832-3.71354 2.44443-3.61597Z" transform="matrix(-1.00042 0 0 1 166.731 320.365)"/><path d="M146.5 320.365 161.782 320.366" stroke="#000000" stroke-width="0.666947" stroke-miterlimit="8" fill="none" fill-rule="evenodd"/><path d="M150.5 112.453 150.5 354.369" stroke="#4472C4" stroke-width="0.666947" stroke-miterlimit="8" stroke-dasharray="0.666947 0.666947" fill="none" fill-rule="evenodd"/><path d="M157.5 111.453 157.5 353.37" stroke="#4472C4" stroke-width="0.666947" stroke-miterlimit="8" stroke-dasharray="0.666947 0.666947" fill="none" fill-rule="evenodd"/><text font-family="Arial,Arial_MSFontService,sans-serif" font-weight="400" font-size="15" transform="matrix(1 0 0 0.99958 583.376 162)">short press<tspan font-size="15" x="0" y="60.0252">long</tspan><tspan font-size="15" x="30.8463" y="60.0252">press</tspan><tspan font-size="15" x="-0.500183" y="121.051">even longer</tspan><tspan font-size="15" x="79.2" y="121.051">press</tspan><tspan font-size="20" x="-497.913" y="-113.047">feature flags: MS &amp; MSR &amp; !MSL</tspan></text></g></svg>