<svg width="794" height="265" xmlns="http://www.w3.org/2000/svg" xmlns:xlink="http://www.w3.org/1999/xlink" overflow="hidden"><defs><clipPath id="clip0"><rect x="0" y="0" width="794" height="265"/></clipPath></defs><g clip-path="url(#clip0)"><rect x="0" y="0" width="794" height="265.389" fill="#FFFFFF"/><path d="M217.5 132.695C217.5 89.0002 253.317 53.5787 297.5 53.5787 341.683 53.5787 377.5 89.0002 377.5 132.695 377.5 176.389 341.683 211.811 297.5 211.811 253.317 211.811 217.5 176.389 217.5 132.695Z" stroke="#2F528F" stroke-width="1.33389" stroke-miterlimit="8" fill="#D9D9D9" fill-rule="evenodd"/><path d="M306.504 107.63 347.68 86.5868 325.216 127.048Z" fill-rule="evenodd"/><path d="M306.504 107.63 325.216 127.049 287.43 163.567 268.718 144.148Z" fill-rule="evenodd"/><path d="M295 52.5772C295 51.1944 296.343 50.0735 298 50.0735 299.657 50.0735 301 51.1944 301 52.5772 301 53.9599 299.657 55.0808 298 55.0808 296.343 55.0808 295 53.9599 295 52.5772Z" fill-rule="evenodd"/><path d="M375 129.69C375 128.308 376.119 127.187 377.5 127.187 378.881 127.187 380 128.308 380 129.69 380 131.073 378.881 132.194 377.5 132.194 376.119 132.194 375 131.073 375 129.69Z" fill-rule="evenodd"/><text font-family="Arial,Arial_MSFontService,sans-serif" font-weight="400" font-size="9" transform="matrix(1 0 0 1.00147 295.724 45)">0<tspan font-size="9" x="66.3821" y="29.956">1</tspan></text><path d="M233 79.6168C233 78.2341 234.119 77.1132 235.5 77.1132 236.881 77.1132 238 78.2341 238 79.6168 238 80.9996 236.881 82.1205 235.5 82.1205 234.119 82.1205 233 80.9996 233 79.6168Z" fill-rule="evenodd"/><path d="M356 183.77C356 182.387 357.343 181.266 359 181.266 360.657 181.266 362 182.387 362 183.77 362 185.152 360.657 186.273 359 186.273 357.343 186.273 356 185.152 356 183.77Z" fill-rule="evenodd"/><path d="M214 131.693C214 130.311 215.119 129.19 216.5 129.19 217.881 129.19 219 130.311 219 131.693 219 133.076 217.881 134.197 216.5 134.197 215.119 134.197 214 133.076 214 131.693Z" fill-rule="evenodd"/><path d="M234 184.27C234 183.164 235.343 182.267 237 182.267 238.657 182.267 240 183.164 240 184.27 240 185.377 238.657 186.273 237 186.273 235.343 186.273 234 185.377 234 184.27Z" fill-rule="evenodd"/><path d="M353 77.6139C353 76.2312 354.343 75.1102 356 75.1102 357.657 75.1102 359 76.2312 359 77.6139 359 78.9966 357.657 80.1176 356 80.1176 354.343 80.1176 353 78.9966 353 77.6139Z" fill-rule="evenodd"/><path d="M296 210.809C296 209.427 297.343 208.306 299 208.306 300.657 208.306 302 209.427 302 210.809 302 212.192 300.657 213.313 299 213.313 297.343 213.313 296 212.192 296 210.809Z" fill-rule="evenodd"/><text font-family="Arial,Arial_MSFontService,sans-serif" font-weight="400" font-size="9" transform="matrix(1 0 0 1.00147 385.472 133)">2<tspan font-size="9" x="-21.7021" y="59.9119">3</tspan><tspan font-size="9" x="-89.7473" y="93.862">4</tspan><tspan font-size="9" x="-156.938" y="62.9075">5</tspan><tspan font-size="9" x="-179.579" y="1.99706">6</tspan><tspan font-size="9" x="-160.024" y="-54.9193">7</tspan></text><path d="M290.5 132.695C290.5 127.717 294.306 123.682 299 123.682 303.694 123.682 307.5 127.717 307.5 132.695 307.5 137.673 303.694 141.708 299 141.708 294.306 141.708 290.5 137.673 290.5 132.695Z" stroke="#000000" stroke-width="1.33389" stroke-miterlimit="8" fill="#A6A6A6" fill-rule="evenodd"/></g></svg>