<svg width="794" height="378" xmlns="http://www.w3.org/2000/svg" xmlns:xlink="http://www.w3.org/1999/xlink" overflow="hidden"><defs><clipPath id="clip0"><rect x="0" y="0" width="794" height="378"/></clipPath></defs><g clip-path="url(#clip0)"><rect x="0" y="0" width="794" height="377.841" fill="#FFFFFF"/><path d="M213.5 176.426 213.5 345.253" stroke="#4472C4" stroke-width="0.666947" stroke-miterlimit="8" stroke-dasharray="0.666947 0.666947" fill="none" fill-rule="evenodd"/><path d="M0 0 0.000104987 37.7995" stroke="#000000" stroke-width="3" stroke-miterlimit="8" fill="none" fill-rule="evenodd" transform="matrix(1.00042 0 0 -1 150.5 167.245)"/><path d="M0 0 0.000104987 37.7995" stroke="#000000" stroke-width="3" stroke-miterlimit="8" fill="none" fill-rule="evenodd" transform="matrix(1.00042 0 0 -1 180.5 167.245)"/><path d="M0 0 113.398 0.000104987" stroke="#000000" stroke-width="3" stroke-miterlimit="8" fill="none" fill-rule="evenodd" transform="matrix(-1.00042 0 0 1 150.946 167.43)"/><path d="M0 0 370.435 0.000104987" stroke="#000000" stroke-width="3" stroke-miterlimit="8" fill="none" fill-rule="evenodd" transform="matrix(-1.00042 0 0 1 551.09 166.43)"/><path d="M0 0 30.2396 0.000104987" stroke="#000000" stroke-width="3" stroke-miterlimit="8" fill="none" fill-rule="evenodd" transform="matrix(-1.00042 0 0 1 180.752 130.445)"/><path d="M0 0 0.000104987 37.7995" stroke="#000000" stroke-width="3" stroke-miterlimit="8" fill="none" fill-rule="evenodd" transform="matrix(1.00042 0 0 -1 150.5 227.22)"/><path d="M0 0 0.000104987 37.7995" stroke="#000000" stroke-width="3" stroke-miterlimit="8" fill="none" fill-rule="evenodd" transform="matrix(1.00042 0 0 -1 226.5 226.22)"/><path d="M0 0 113.398 0.000104987" stroke="#000000" stroke-width="3" stroke-miterlimit="8" fill="none" fill-rule="evenodd" transform="matrix(-1.00042 0 0 1 150.946 226.405)"/><path d="M0 0 325.075 0.000104987" stroke="#000000" stroke-width="3" stroke-miterlimit="8" fill="none" fill-rule="evenodd" transform="matrix(-1.00042 0 0 1 551.712 225.405)"/><path d="M0 0 75.5989 0.000104987" stroke="#000000" stroke-width="3" stroke-miterlimit="8" fill="none" fill-rule="evenodd" transform="matrix(-1.00042 0 0 1 226.131 189.42)"/><path d="M0 0 0.000104987 37.7995" stroke="#000000" stroke-width="3" stroke-miterlimit="8" fill="none" fill-rule="evenodd" transform="matrix(1.00042 0 0 -1 150.5 287.195)"/><path d="M0 0 0.000104987 37.7995" stroke="#000000" stroke-width="3" stroke-miterlimit="8" fill="none" fill-rule="evenodd" transform="matrix(1.00042 0 0 -1 491.5 287.195)"/><path d="M0 0 113.398 0.000104987" stroke="#000000" stroke-width="3" stroke-miterlimit="8" fill="none" fill-rule="evenodd" transform="matrix(-1.00042 0 0 1 150.946 287.379)"/><path d="M0 0 60.4792 1.05186" stroke="#000000" stroke-width="3" stroke-miterlimit="8" fill="none" fill-rule="evenodd" transform="matrix(-1.00042 0 0 1 552.005 286.38)"/><path d="M0 0 340.195 0.000104987" stroke="#000000" stroke-width="3" stroke-miterlimit="8" fill="none" fill-rule="evenodd" transform="matrix(-1.00042 0 0 1 490.838 250.395)"/><path d="M150.5 106.455 150.5 348.372" stroke="#4472C4" stroke-width="0.666947" stroke-miterlimit="8" stroke-dasharray="0.666947 0.666947" fill="none" fill-rule="evenodd"/><path d="M0 0 0.000209974 241.917" stroke="#4472C4" stroke-width="0.666667" stroke-miterlimit="8" stroke-dasharray="0.666667 0.666667" fill="none" fill-rule="evenodd" transform="matrix(-1.00042 0 0 1 158.5 106.455)"/><path d="M152.127 328.029 211.08 328.029 211.08 328.696 152.127 328.695ZM157.286 331.978 151.498 328.362 157.286 324.746C157.442 324.649 157.648 324.696 157.745 324.852 157.843 325.008 157.795 325.214 157.639 325.311L152.304 328.645 152.304 328.079 157.639 331.413C157.795 331.51 157.843 331.716 157.745 331.872 157.648 332.028 157.442 332.076 157.286 331.978ZM205.921 324.746 211.71 328.362 205.921 331.978C205.765 332.076 205.56 332.028 205.462 331.872 205.364 331.716 205.412 331.51 205.568 331.413L210.904 328.08 210.904 328.645 205.568 325.312C205.412 325.214 205.364 325.008 205.462 324.852 205.56 324.696 205.765 324.649 205.921 324.746Z"/><text font-family="Arial,Arial_MSFontService,sans-serif" font-weight="400" font-size="16" transform="matrix(1 0 0 0.99958 222.409 320)">threshold1 (minimum to be detected)<tspan font-size="16" x="-0.500046" y="16.0067">threshold2 (before considered long press)</tspan></text><path d="M155 129.446C155 126.961 156.567 124.948 158.5 124.948 160.433 124.948 162 126.961 162 129.446 162 131.93 160.433 133.944 158.5 133.944 156.567 133.944 155 131.93 155 129.446Z" fill="#009E73" fill-rule="evenodd"/><path d="M155 189.42C155 186.936 156.567 184.922 158.5 184.922 160.433 184.922 162 186.936 162 189.42 162 191.905 160.433 193.919 158.5 193.919 156.567 193.919 155 191.905 155 189.42Z" fill="#009E73" fill-rule="evenodd"/><path d="M155 250.395C155 247.911 156.567 245.897 158.5 245.897 160.433 245.897 162 247.911 162 250.395 162 252.879 160.433 254.893 158.5 254.893 156.567 254.893 155 252.879 155 250.395Z" fill="#009E73" fill-rule="evenodd"/><path d="M210 250.395C210 247.911 211.567 245.897 213.5 245.897 215.433 245.897 217 247.911 217 250.395 217 252.879 215.433 254.893 213.5 254.893 211.567 254.893 210 252.879 210 250.395Z" fill="#F0E442" fill-rule="evenodd"/><path d="M496 287.379C496 284.895 497.567 282.881 499.5 282.881 501.433 282.881 503 284.895 503 287.379 503 289.864 501.433 291.877 499.5 291.877 497.567 291.877 496 289.864 496 287.379Z" fill="#E69F00" fill-rule="evenodd"/><path d="M209 189.92C209 187.712 210.567 185.922 212.5 185.922 214.433 185.922 216 187.712 216 189.92 216 192.128 214.433 193.919 212.5 193.919 210.567 193.919 209 192.128 209 189.92Z" fill="#F0E442" fill-rule="evenodd"/><path d="M231 224.906C231 222.697 232.343 220.907 234 220.907 235.657 220.907 237 222.697 237 224.906 237 227.114 235.657 228.904 234 228.904 232.343 228.904 231 227.114 231 224.906Z" fill="#E69F00" fill-rule="evenodd"/><path d="M186 165.43C186 162.946 187.567 160.932 189.5 160.932 191.433 160.932 193 162.946 193 165.43 193 167.915 191.433 169.929 189.5 169.929 187.567 169.929 186 167.915 186 165.43Z" fill="#56B4E9" fill-rule="evenodd"/><text font-family="Arial,Arial_MSFontService,sans-serif" font-weight="400" font-size="15" transform="matrix(1 0 0 0.99958 583.376 155)">short press<tspan font-size="15" x="0" y="61.0256">long</tspan><tspan font-size="15" x="30.8463" y="61.0256">press</tspan><tspan font-size="15" x="-0.500183" y="122.051">even longer</tspan><tspan font-size="15" x="79.2" y="122.051">press</tspan><tspan font-size="20" x="-497.913" y="-113.047">feature flags: MS &amp; MSR &amp; MSL</tspan></text><path d="M142.5 314.035 149.649 314.035 149.649 314.701 142.5 314.701ZM144.49 310.752 150.278 314.368 144.49 317.984C144.334 318.082 144.128 318.034 144.03 317.878 143.933 317.722 143.98 317.516 144.136 317.419L149.472 314.085 149.472 314.651 144.136 311.317C143.98 311.22 143.933 311.014 144.03 310.858 144.128 310.702 144.334 310.654 144.49 310.752Z"/><path d="M4.25338e-06-0.333333 7.60105-0.333236 7.60104 0.33343-4.25338e-06 0.333333ZM2.44443-3.61597 8.22998 0.000105014 2.44434 3.61603C2.28822 3.7136 2.08257 3.66614 1.98501 3.51003 1.88744 3.35391 1.9349 3.14826 2.09101 3.05069L7.42439-0.282571 7.42438 0.282761 2.09109-3.05064C1.93498-3.14821 1.88752-3.35386 1.9851-3.50997 2.08267-3.66609 2.28832-3.71354 2.44443-3.61597Z" transform="matrix(-1.00042 0 0 1 166.731 314.368)"/><path d="M146.5 314.368 161.782 314.368" stroke="#000000" stroke-width="0.666947" stroke-miterlimit="8" fill="none" fill-rule="evenodd"/><path d="M162.119 95.2927 160.295 121.343" stroke="#009E73" stroke-width="1.33389" stroke-miterlimit="8" stroke-dasharray="4.00168 1.33389" fill="none" fill-rule="evenodd"/><text font-family="Arial,Arial_MSFontService,sans-serif" font-weight="400" font-size="14" transform="matrix(1 0 0 0.99958 149.886 90)">InitialPress</text><path d="M0 0 5.63192 92.0153" stroke="#009E73" stroke-width="1.33333" stroke-miterlimit="8" stroke-dasharray="4 1.33333" fill="none" fill-rule="evenodd" transform="matrix(1.00042 0 0 -1 161.5 185.476)"/><path d="M0 0 11.1619 148.74" stroke="#009E73" stroke-width="1.33333" stroke-miterlimit="8" stroke-dasharray="4 1.33333" fill="none" fill-rule="evenodd" transform="matrix(1.00042 0 0 -1 161.5 242.201)"/><path d="M209.933 118.061 193.796 155.041" stroke="#56B4E9" stroke-width="1.33389" stroke-miterlimit="8" stroke-dasharray="4.00168 1.33389" fill="none" fill-rule="evenodd"/><text font-family="Arial,Arial_MSFontService,sans-serif" font-weight="400" font-size="14" transform="matrix(1 0 0 0.99958 199.09 113)">ShortRelease</text><path d="M233.933 154.046 217.796 181.397" stroke="#F0E442" stroke-width="1.33389" stroke-miterlimit="8" stroke-dasharray="4.00168 1.33389" fill="none" fill-rule="evenodd"/><text font-family="Arial,Arial_MSFontService,sans-serif" font-weight="400" font-size="14" transform="matrix(1 0 0 0.99958 231.771 148)">LongPress</text><path d="M0 0 29.4152 88.7371" stroke="#F0E442" stroke-width="1.33333" stroke-miterlimit="8" stroke-dasharray="4 1.33333" fill="none" fill-rule="evenodd" transform="matrix(1.00042 0 0 -1 216.5 241.173)"/><path d="M262.069 205.579 239.652 218.969" stroke="#E69F00" stroke-width="1.33389" stroke-miterlimit="8" stroke-dasharray="4.00168 1.33389" fill="none" fill-rule="evenodd"/><text font-family="Arial,Arial_MSFontService,sans-serif" font-weight="400" font-size="14" transform="matrix(1 0 0 0.99958 255.623 201)">LongRelease</text><path d="M494.3 278.86 320.5 206.413" stroke="#E69F00" stroke-width="1.33389" stroke-miterlimit="8" stroke-dasharray="4.00168 1.33389" fill="none" fill-rule="evenodd"/></g></svg>