<svg width="794" height="529" xmlns="http://www.w3.org/2000/svg" xmlns:xlink="http://www.w3.org/1999/xlink" overflow="hidden"><defs><clipPath id="clip0"><rect x="0" y="0" width="794" height="529"/></clipPath></defs><g clip-path="url(#clip0)"><rect x="0" y="0" width="794" height="528.611" fill="#FFFFFF"/><path d="M226.5 211.345 226.5 275.62" stroke="#4472C4" stroke-width="0.666947" stroke-miterlimit="8" stroke-dasharray="0.666947 0.666947" fill="none" fill-rule="evenodd"/><path d="M189.5 211.345 189.5 275.62" stroke="#4472C4" stroke-width="0.666947" stroke-miterlimit="8" stroke-dasharray="0.666947 0.666947" fill="none" fill-rule="evenodd"/><path d="M219.5 211.345 219.5 275.62" stroke="#4472C4" stroke-width="0.666947" stroke-miterlimit="8" stroke-dasharray="0.666947 0.666947" fill="none" fill-rule="evenodd"/><path d="M152.5 211.345 152.5 275.62" stroke="#4472C4" stroke-width="0.666947" stroke-miterlimit="8" stroke-dasharray="0.666947 0.666947" fill="none" fill-rule="evenodd"/><path d="M159.5 211.345 159.5 275.62" stroke="#4472C4" stroke-width="0.666947" stroke-miterlimit="8" stroke-dasharray="0.666947 0.666947" fill="none" fill-rule="evenodd"/><path d="M254.5 211.345 254.5 275.62" stroke="#4472C4" stroke-width="0.666947" stroke-miterlimit="8" stroke-dasharray="0.666947 0.666947" fill="none" fill-rule="evenodd"/><path d="M288.5 211.345 288.5 275.62" stroke="#4472C4" stroke-width="0.666947" stroke-miterlimit="8" stroke-dasharray="0.666947 0.666947" fill="none" fill-rule="evenodd"/><path d="M189.5 64.4527 189.5 131.415" stroke="#4472C4" stroke-width="0.666947" stroke-miterlimit="8" stroke-dasharray="0.666947 0.666947" fill="none" fill-rule="evenodd"/><path d="M152.5 64.4527 152.5 131.415" stroke="#4472C4" stroke-width="0.666947" stroke-miterlimit="8" stroke-dasharray="0.666947 0.666947" fill="none" fill-rule="evenodd"/><path d="M159.5 64.4527 159.5 131.415" stroke="#4472C4" stroke-width="0.666947" stroke-miterlimit="8" stroke-dasharray="0.666947 0.666947" fill="none" fill-rule="evenodd"/><path d="M226.5 64.4527 226.5 131.415" stroke="#4472C4" stroke-width="0.666947" stroke-miterlimit="8" stroke-dasharray="0.666947 0.666947" fill="none" fill-rule="evenodd"/><text font-family="Arial,Arial_MSFontService,sans-serif" font-weight="400" font-size="14" transform="matrix(1 0 0 0.999265 13.6639 96)">single press<tspan font-size="14" x="-2.81357" y="150.11">double press</tspan></text><path d="M316.5 359.236 316.5 432.982" stroke="#4472C4" stroke-width="0.666947" stroke-miterlimit="8" stroke-dasharray="0.666947 0.666947" fill="none" fill-rule="evenodd"/><path d="M189.5 358.237 189.5 432.981" stroke="#4472C4" stroke-width="0.666947" stroke-miterlimit="8" stroke-dasharray="0.666947 0.666947" fill="none" fill-rule="evenodd"/><path d="M219.5 358.237 219.5 432.981" stroke="#4472C4" stroke-width="0.666947" stroke-miterlimit="8" stroke-dasharray="0.666947 0.666947" fill="none" fill-rule="evenodd"/><path d="M152.5 358.237 152.5 432.981" stroke="#4472C4" stroke-width="0.666947" stroke-miterlimit="8" stroke-dasharray="0.666947 0.666947" fill="none" fill-rule="evenodd"/><path d="M159.5 358.237 159.5 432.981" stroke="#4472C4" stroke-width="0.666947" stroke-miterlimit="8" stroke-dasharray="0.666947 0.666947" fill="none" fill-rule="evenodd"/><path d="M226.5 358.237 226.5 432.981" stroke="#4472C4" stroke-width="0.666947" stroke-miterlimit="8" stroke-dasharray="0.666947 0.666947" fill="none" fill-rule="evenodd"/><path d="M254.5 358.237 254.5 432.981" stroke="#4472C4" stroke-width="0.666947" stroke-miterlimit="8" stroke-dasharray="0.666947 0.666947" fill="none" fill-rule="evenodd"/><path d="M282.5 358.237 282.5 432.981" stroke="#4472C4" stroke-width="0.666947" stroke-miterlimit="8" stroke-dasharray="0.666947 0.666947" fill="none" fill-rule="evenodd"/><path d="M288.5 358.237 288.5 432.981" stroke="#4472C4" stroke-width="0.666947" stroke-miterlimit="8" stroke-dasharray="0.666947 0.666947" fill="none" fill-rule="evenodd"/><path d="M352.5 358.237 352.5 432.981" stroke="#4472C4" stroke-width="0.666947" stroke-miterlimit="8" stroke-dasharray="0.666947 0.666947" fill="none" fill-rule="evenodd"/><path d="M146.5 484.81 153.649 484.81 153.649 485.477 146.5 485.477ZM148.49 481.528 154.278 485.143 148.49 488.758C148.334 488.856 148.128 488.808 148.03 488.652 147.933 488.496 147.98 488.291 148.136 488.193L153.472 484.861 153.472 485.426 148.136 482.094C147.98 481.996 147.933 481.79 148.03 481.634 148.128 481.478 148.334 481.431 148.49 481.528Z"/><path d="M4.25204e-06-0.333228 7.59866-0.333131 7.59865 0.333325-4.25204e-06 0.333228ZM2.44366-3.61483 8.22739 0.000104981 2.44357 3.61489C2.2875 3.71243 2.08192 3.66498 1.98438 3.50892 1.88684 3.35286 1.93429 3.14727 2.09035 3.04973L7.42205-0.282482 7.42204 0.282672 2.09043-3.04968C1.93437-3.14722 1.88693-3.35281 1.98447-3.50887 2.08201-3.66493 2.2876-3.71237 2.44366-3.61483Z" transform="matrix(-1.00074 0 0 1 167.731 485.143)"/><path d="M150.5 485.143 165.782 485.143" stroke="#000000" stroke-width="0.666947" stroke-miterlimit="8" fill="none" fill-rule="evenodd"/><path d="M0 0 33.6501 0.0547859" stroke="#000000" stroke-width="2.99906" stroke-miterlimit="8" fill="none" fill-rule="evenodd" transform="matrix(-1.00074 0 0 1 281.175 418.193)"/><text font-family="Arial,Arial_MSFontService,sans-serif" font-weight="400" font-size="12" transform="matrix(1 0 0 0.999265 318.143 488)">threshold1 (minimum to be detected)</text><path d="M0 0 36.2643 0.0547859" stroke="#000000" stroke-width="2.99906" stroke-miterlimit="8" fill="none" fill-rule="evenodd" transform="matrix(-1.00074 0 0 1 217.791 418.193)"/><path d="M0 0 0.000104954 37.7876" stroke="#000000" stroke-width="2.99906" stroke-miterlimit="8" fill="none" fill-rule="evenodd" transform="matrix(1.00074 0 0 -1 152.5 419.007)"/><path d="M0 0 0.000104954 37.7876" stroke="#000000" stroke-width="2.99906" stroke-miterlimit="8" fill="none" fill-rule="evenodd" transform="matrix(1.00074 0 0 -1 183.5 419.007)"/><path d="M153.005 419.343 92.5 418.193" stroke="#000000" stroke-width="3.00126" stroke-miterlimit="8" fill="none" fill-rule="evenodd"/><path d="M0 0 105.094 0.0986566" stroke="#000000" stroke-width="2.99906" stroke-miterlimit="8" fill="none" fill-rule="evenodd" transform="matrix(-1.00074 0 0 1 417.671 418.193)"/><path d="M0 0 30.2301 0.000104954" stroke="#000000" stroke-width="2.99906" stroke-miterlimit="8" fill="none" fill-rule="evenodd" transform="matrix(-1.00074 0 0 1 182.752 382.219)"/><path d="M156 382.219C156 379.736 157.567 377.722 159.5 377.722 161.433 377.722 163 379.736 163 382.219 163 384.702 161.433 386.716 159.5 386.716 157.567 386.716 156 384.702 156 382.219Z" fill="#009E73" fill-rule="evenodd"/><path d="M187 417.693C187 415.485 188.343 413.696 190 413.696 191.657 413.696 193 415.485 193 417.693 193 419.901 191.657 421.69 190 421.69 188.343 421.69 187 419.901 187 417.693Z" fill="#56B4E9" fill-rule="evenodd"/><text font-family="Arial,Arial_MSFontService,sans-serif" font-weight="400" font-size="14" transform="matrix(1 0 0 0.999265 20.005 369)">triple press</text><path d="M0 0 0.000104954 37.7876" stroke="#000000" stroke-width="2.99906" stroke-miterlimit="8" fill="none" fill-rule="evenodd" transform="matrix(1.00074 0 0 -1 218.5 419.007)"/><path d="M0 0 0.000104954 37.7876" stroke="#000000" stroke-width="2.99906" stroke-miterlimit="8" fill="none" fill-rule="evenodd" transform="matrix(1.00074 0 0 -1 249.5 419.007)"/><path d="M0 0 30.2301 0.000104954" stroke="#000000" stroke-width="2.99906" stroke-miterlimit="8" fill="none" fill-rule="evenodd" transform="matrix(-1.00074 0 0 1 248.752 382.219)"/><path d="M252 417.693C252 415.485 253.567 413.696 255.5 413.696 257.433 413.696 259 415.485 259 417.693 259 419.901 257.433 421.69 255.5 421.69 253.567 421.69 252 419.901 252 417.693Z" fill="#56B4E9" fill-rule="evenodd"/><path d="M222 382.219C222 379.736 223.567 377.722 225.5 377.722 227.433 377.722 229 379.736 229 382.219 229 384.702 227.433 386.716 225.5 386.716 223.567 386.716 222 384.702 222 382.219Z" fill="#009E73" fill-rule="evenodd"/><path d="M222.5 393.211C222.5 391.003 224.067 389.214 226 389.214 227.933 389.214 229.5 391.003 229.5 393.211 229.5 395.418 227.933 397.208 226 397.208 224.067 397.208 222.5 395.418 222.5 393.211Z" stroke="#404040" stroke-width="1.33389" stroke-miterlimit="8" fill="#404040" fill-rule="evenodd"/><path d="M0 0 0.000104954 37.7876" stroke="#000000" stroke-width="2.99906" stroke-miterlimit="8" fill="none" fill-rule="evenodd" transform="matrix(1.00074 0 0 -1 281.5 419.007)"/><path d="M0 0 0.000104954 37.7876" stroke="#000000" stroke-width="2.99906" stroke-miterlimit="8" fill="none" fill-rule="evenodd" transform="matrix(1.00074 0 0 -1 310.5 419.007)"/><path d="M0 0 30.2301 0.000104954" stroke="#000000" stroke-width="2.99906" stroke-miterlimit="8" fill="none" fill-rule="evenodd" transform="matrix(-1.00074 0 0 1 311.752 382.219)"/><path d="M314 417.693C314 415.485 315.567 413.696 317.5 413.696 319.433 413.696 321 415.485 321 417.693 321 419.901 319.433 421.69 317.5 421.69 315.567 421.69 314 419.901 314 417.693Z" fill="#56B4E9" fill-rule="evenodd"/><path d="M286 382.219C286 379.736 287.343 377.722 289 377.722 290.657 377.722 292 379.736 292 382.219 292 384.702 290.657 386.716 289 386.716 287.343 386.716 286 384.702 286 382.219Z" fill="#009E73" fill-rule="evenodd"/><path d="M286.5 393.211C286.5 391.003 287.843 389.214 289.5 389.214 291.157 389.214 292.5 391.003 292.5 393.211 292.5 395.418 291.157 397.208 289.5 397.208 287.843 397.208 286.5 395.418 286.5 393.211Z" stroke="#404040" stroke-width="1.33389" stroke-miterlimit="8" fill="#404040" fill-rule="evenodd"/><path d="M349 416.694C349 414.486 350.567 412.697 352.5 412.697 354.433 412.697 356 414.486 356 416.694 356 418.901 354.433 420.691 352.5 420.691 350.567 420.691 349 418.901 349 416.694Z" fill="#E69F00" fill-rule="evenodd"/><path d="M275.5 483.811 282.649 483.811 282.649 484.477 275.5 484.477ZM277.49 480.529 283.278 484.144 277.49 487.759C277.334 487.856 277.128 487.809 277.03 487.653 276.933 487.497 276.98 487.291 277.136 487.194L282.472 483.862 282.472 484.427 277.136 481.094C276.98 480.997 276.933 480.791 277.03 480.635 277.128 480.479 277.334 480.432 277.49 480.529Z"/><path d="M4.25204e-06-0.333228 7.59866-0.333131 7.59865 0.333325-4.25204e-06 0.333228ZM2.44366-3.61483 8.22739 0.000104981 2.44357 3.61489C2.2875 3.71243 2.08192 3.66498 1.98438 3.50892 1.88684 3.35286 1.93429 3.14727 2.09035 3.04973L7.42205-0.282482 7.42204 0.282672 2.09043-3.04968C1.93437-3.14722 1.88693-3.35281 1.98447-3.50887 2.08201-3.66493 2.2876-3.71237 2.44366-3.61483Z" transform="matrix(-1.00074 0 0 1 296.731 484.144)"/><path d="M279.5 484.144 294.782 484.144" stroke="#000000" stroke-width="0.666947" stroke-miterlimit="8" fill="none" fill-rule="evenodd"/><path d="M213.5 483.811 220.649 483.811 220.649 484.477 213.5 484.477ZM215.49 480.529 221.278 484.144 215.49 487.759C215.334 487.856 215.128 487.809 215.03 487.653 214.933 487.497 214.98 487.291 215.136 487.194L220.472 483.862 220.472 484.427 215.136 481.094C214.98 480.997 214.933 480.791 215.03 480.635 215.128 480.479 215.334 480.432 215.49 480.529Z"/><path d="M4.25204e-06-0.333228 7.59866-0.333131 7.59865 0.333325-4.25204e-06 0.333228ZM2.44366-3.61483 8.22739 0.000104981 2.44357 3.61489C2.2875 3.71243 2.08192 3.66498 1.98438 3.50892 1.88684 3.35286 1.93429 3.14727 2.09035 3.04973L7.42205-0.282482 7.42204 0.282672 2.09043-3.04968C1.93437-3.14722 1.88693-3.35281 1.98447-3.50887 2.08201-3.66493 2.2876-3.71237 2.44366-3.61483Z" transform="matrix(-1.00074 0 0 1 234.731 484.144)"/><path d="M217.5 484.144 232.782 484.144" stroke="#000000" stroke-width="0.666947" stroke-miterlimit="8" fill="none" fill-rule="evenodd"/><path d="M0 0 36.2643 0.0547859" stroke="#000000" stroke-width="2.99906" stroke-miterlimit="8" fill="none" fill-rule="evenodd" transform="matrix(-1.00074 0 0 1 217.791 259.309)"/><path d="M0 0 0.000104954 37.7876" stroke="#000000" stroke-width="2.99906" stroke-miterlimit="8" fill="none" fill-rule="evenodd" transform="matrix(1.00074 0 0 -1 152.5 261.123)"/><path d="M0 0 0.000104954 37.7876" stroke="#000000" stroke-width="2.99906" stroke-miterlimit="8" fill="none" fill-rule="evenodd" transform="matrix(1.00074 0 0 -1 183.5 261.123)"/><path d="M0 0 60.4601 0.000104954" stroke="#000000" stroke-width="2.99906" stroke-miterlimit="8" fill="none" fill-rule="evenodd" transform="matrix(-1.00074 0 0 1 153.005 260.309)"/><path d="M0 0 168.976 0.000104954" stroke="#000000" stroke-width="2.99906" stroke-miterlimit="8" fill="none" fill-rule="evenodd" transform="matrix(-1.00074 0 0 1 417.6 260.309)"/><path d="M0 0 30.2301 0.000104954" stroke="#000000" stroke-width="2.99906" stroke-miterlimit="8" fill="none" fill-rule="evenodd" transform="matrix(-1.00074 0 0 1 182.752 224.335)"/><path d="M156 223.336C156 220.852 157.567 218.839 159.5 218.839 161.433 218.839 163 220.852 163 223.336 163 225.819 161.433 227.832 159.5 227.832 157.567 227.832 156 225.819 156 223.336Z" fill="#009E73" fill-rule="evenodd"/><path d="M187 259.309C187 256.826 188.343 254.813 190 254.813 191.657 254.813 193 256.826 193 259.309 193 261.793 191.657 263.806 190 263.806 188.343 263.806 187 261.793 187 259.309Z" fill="#56B4E9" fill-rule="evenodd"/><path d="M0 0 0.000104954 37.7876" stroke="#000000" stroke-width="2.99906" stroke-miterlimit="8" fill="none" fill-rule="evenodd" transform="matrix(1.00074 0 0 -1 218.5 261.123)"/><path d="M0 0 0.000104954 37.7876" stroke="#000000" stroke-width="2.99906" stroke-miterlimit="8" fill="none" fill-rule="evenodd" transform="matrix(1.00074 0 0 -1 249.5 261.123)"/><path d="M0 0 30.2301 0.000104954" stroke="#000000" stroke-width="2.99906" stroke-miterlimit="8" fill="none" fill-rule="evenodd" transform="matrix(-1.00074 0 0 1 248.752 224.335)"/><path d="M251 259.309C251 256.826 252.567 254.813 254.5 254.813 256.433 254.813 258 256.826 258 259.309 258 261.793 256.433 263.806 254.5 263.806 252.567 263.806 251 261.793 251 259.309Z" fill="#56B4E9" fill-rule="evenodd"/><path d="M222 223.336C222 220.852 223.567 218.839 225.5 218.839 227.433 218.839 229 220.852 229 223.336 229 225.819 227.433 227.832 225.5 227.832 223.567 227.832 222 225.819 222 223.336Z" fill="#009E73" fill-rule="evenodd"/><path d="M222.5 234.827C222.5 232.344 224.067 230.331 226 230.331 227.933 230.331 229.5 232.344 229.5 234.827 229.5 237.311 227.933 239.324 226 239.324 224.067 239.324 222.5 237.311 222.5 234.827Z" stroke="#404040" stroke-width="1.33389" stroke-miterlimit="8" fill="#404040" fill-rule="evenodd"/><path d="M286 258.31C286 255.827 287.343 253.813 289 253.813 290.657 253.813 292 255.827 292 258.31 292 260.794 290.657 262.807 289 262.807 287.343 262.807 286 260.794 286 258.31Z" fill="#E69F00" fill-rule="evenodd"/><path d="M0 0 81.2182 0.000104954" stroke="#000000" stroke-width="2.99906" stroke-miterlimit="8" fill="none" fill-rule="evenodd" transform="matrix(-1.00074 0 0 1 262.778 112.417)"/><path d="M0 0 0.000104954 37.7876" stroke="#000000" stroke-width="2.99906" stroke-miterlimit="8" fill="none" fill-rule="evenodd" transform="matrix(1.00074 0 0 -1 152.5 113.232)"/><path d="M0 0 0.000104954 37.7876" stroke="#000000" stroke-width="2.99906" stroke-miterlimit="8" fill="none" fill-rule="evenodd" transform="matrix(1.00074 0 0 -1 183.5 113.232)"/><path d="M0 0 60.4601 0.000104954" stroke="#000000" stroke-width="2.99906" stroke-miterlimit="8" fill="none" fill-rule="evenodd" transform="matrix(-1.00074 0 0 1 153.005 113.417)"/><path d="M0 0 168.976 0.000104954" stroke="#000000" stroke-width="2.99906" stroke-miterlimit="8" fill="none" fill-rule="evenodd" transform="matrix(-1.00074 0 0 1 417.6 112.417)"/><path d="M0 0 30.2301 0.000104954" stroke="#000000" stroke-width="2.99906" stroke-miterlimit="8" fill="none" fill-rule="evenodd" transform="matrix(-1.00074 0 0 1 182.752 76.4438)"/><path d="M156 76.4438C156 73.9603 157.567 71.9471 159.5 71.9471 161.433 71.9471 163 73.9603 163 76.4438 163 78.9272 161.433 80.9405 159.5 80.9405 157.567 80.9405 156 78.9272 156 76.4438Z" fill="#009E73" fill-rule="evenodd"/><path d="M187 111.918C187 109.71 188.343 107.921 190 107.921 191.657 107.921 193 109.71 193 111.918 193 114.125 191.657 115.915 190 115.915 188.343 115.915 187 114.125 187 111.918Z" fill="#56B4E9" fill-rule="evenodd"/><path d="M223 111.418C223 108.935 224.567 106.921 226.5 106.921 228.433 106.921 230 108.935 230 111.418 230 113.902 228.433 115.915 226.5 115.915 224.567 115.915 223 113.902 223 111.418Z" fill="#E69F00" fill-rule="evenodd"/><path d="M167.084 49.8144 161.883 67.6747" stroke="#009E73" stroke-width="1.33389" stroke-miterlimit="8" stroke-dasharray="4.00168 1.33389" fill="none" fill-rule="evenodd"/><text font-family="Arial,Arial_MSFontService,sans-serif" font-weight="400" font-size="14" transform="matrix(1 0 0 0.999265 153.883 46)">InitialPress</text><path d="M180.73 137.28 187.376 119.723" stroke="#56B4E9" stroke-width="1.33389" stroke-miterlimit="8" stroke-dasharray="4.00168 1.33389" fill="none" fill-rule="evenodd"/><text font-family="Arial,Arial_MSFontService,sans-serif" font-weight="400" font-size="14" transform="matrix(1 0 0 0.999265 101.428 152)">ShortRelease</text><path d="M234.826 134.783 229.776 119.388" stroke="#E69F00" stroke-width="1.33389" stroke-miterlimit="8" stroke-dasharray="4.00168 1.33389" fill="none" fill-rule="evenodd"/><text font-family="Arial,Arial_MSFontService,sans-serif" font-weight="400" font-size="14" transform="matrix(1 0 0 0.999265 226.084 149)">MultiPressComplete<tspan font-size="14" x="125.719" y="0">(1)</tspan></text><path d="M169.083 202.701 166.383 216.57" stroke="#009E73" stroke-width="1.33389" stroke-miterlimit="8" stroke-dasharray="4.00168 1.33389" fill="none" fill-rule="evenodd"/><text font-family="Arial,Arial_MSFontService,sans-serif" font-weight="400" font-size="14" transform="matrix(1 0 0 0.999265 154.734 197)">InitialPress</text><path d="M184.502 281.675 187.204 268.109" stroke="#56B4E9" stroke-width="1.33389" stroke-miterlimit="8" stroke-dasharray="4.00168 1.33389" fill="none" fill-rule="evenodd"/><text font-family="Arial,Arial_MSFontService,sans-serif" font-weight="400" font-size="14" transform="matrix(1 0 0 0.999265 147.228 296)">ShortRelease</text><path d="M265.826 212.207 233.114 232.063" stroke="#000000" stroke-width="1.33389" stroke-miterlimit="8" stroke-dasharray="4.00168 1.33389" fill="none" fill-rule="evenodd"/><text font-family="Arial,Arial_MSFontService,sans-serif" font-weight="400" font-size="14" transform="matrix(1 0 0 0.999265 267.229 215)">MultiPressOngoing<tspan font-size="14" x="118.716" y="0">(2)</tspan></text><path d="M314.826 238.18 296.113 253.047" stroke="#E69F00" stroke-width="1.33389" stroke-miterlimit="8" stroke-dasharray="4.00168 1.33389" fill="none" fill-rule="evenodd"/><text font-family="Arial,Arial_MSFontService,sans-serif" font-weight="400" font-size="14" transform="matrix(1 0 0 0.999265 316.392 236)">MultiPressComplete<tspan font-size="14" x="125.719" y="0">(2)</tspan></text><path d="M222.555 215.243 212.5 202.351" stroke="#009E73" stroke-width="1.33389" stroke-miterlimit="8" stroke-dasharray="4.00168 1.33389" fill="none" fill-rule="evenodd"/><path d="M0 0 26.945 19.0585" stroke="#56B4E9" stroke-width="1.33291" stroke-miterlimit="8" stroke-dasharray="3.99874 1.33291" fill="none" fill-rule="evenodd" transform="matrix(-1.00074 0 0 1 249.465 265.305)"/><path d="M166.083 359.585 163.383 373.455" stroke="#009E73" stroke-width="1.33389" stroke-miterlimit="8" stroke-dasharray="4.00168 1.33389" fill="none" fill-rule="evenodd"/><text font-family="Arial,Arial_MSFontService,sans-serif" font-weight="400" font-size="14" transform="matrix(1 0 0 0.999265 152.175 354)">InitialPress</text><path d="M222.598 374.488 210.5 357.237" stroke="#009E73" stroke-width="1.33389" stroke-miterlimit="8" stroke-dasharray="4.00168 1.33389" fill="none" fill-rule="evenodd"/><path d="M282.069 377.548 225.5 355.239" stroke="#009E73" stroke-width="1.33389" stroke-miterlimit="8" stroke-dasharray="4.00168 1.33389" fill="none" fill-rule="evenodd"/><path d="M184.502 442.556 187.204 428.99" stroke="#56B4E9" stroke-width="1.33389" stroke-miterlimit="8" stroke-dasharray="4.00168 1.33389" fill="none" fill-rule="evenodd"/><text font-family="Arial,Arial_MSFontService,sans-serif" font-weight="400" font-size="14" transform="matrix(1 0 0 0.999265 147.309 457)">ShortRelease</text><path d="M0 0 26.945 19.0585" stroke="#56B4E9" stroke-width="1.33291" stroke-miterlimit="8" stroke-dasharray="3.99874 1.33291" fill="none" fill-rule="evenodd" transform="matrix(-1.00074 0 0 1 249.465 425.187)"/><path d="M0 0 76.5691 22.6905" stroke="#56B4E9" stroke-width="1.33291" stroke-miterlimit="8" stroke-dasharray="3.99874 1.33291" fill="none" fill-rule="evenodd" transform="matrix(-1.00074 0 0 1 309.125 424.188)"/><path d="M326.826 370.091 294.114 389.947" stroke="#000000" stroke-width="1.33389" stroke-miterlimit="8" stroke-dasharray="4.00168 1.33389" fill="none" fill-rule="evenodd"/><text font-family="Arial,Arial_MSFontService,sans-serif" font-weight="400" font-size="14" transform="matrix(1 0 0 0.999265 328.602 373)">MultiPressOngoing<tspan font-size="14" x="118.716" y="0">(3)</tspan></text><path d="M376.826 396.064 358.113 410.931" stroke="#E69F00" stroke-width="1.33389" stroke-miterlimit="8" stroke-dasharray="4.00168 1.33389" fill="none" fill-rule="evenodd"/><text font-family="Arial,Arial_MSFontService,sans-serif" font-weight="400" font-size="14" transform="matrix(1 0 0 0.999265 377.765 394)">MultiPressComplete<tspan font-size="14" x="125.719" y="0">(3)</tspan></text><path d="M265.911 343.111 231.55 389.437" stroke="#000000" stroke-width="1.33389" stroke-miterlimit="8" stroke-dasharray="4.00168 1.33389" fill="none" fill-rule="evenodd"/><text font-family="Arial,Arial_MSFontService,sans-serif" font-weight="400" font-size="14" transform="matrix(1 0 0 0.999265 268.051 347)">MultiPressOngoing<tspan font-size="14" x="118.716" y="0">(2)</tspan></text></g></svg>