<svg width="794" height="265" xmlns="http://www.w3.org/2000/svg" xmlns:xlink="http://www.w3.org/1999/xlink" overflow="hidden"><defs><clipPath id="clip0"><rect x="0" y="0" width="794" height="265"/></clipPath></defs><g clip-path="url(#clip0)"><rect x="0" y="0" width="794" height="265.389" fill="#FFFFFF"/><text font-family="Arial,Arial_MSFontService,sans-serif" font-weight="400" font-size="9" transform="matrix(1 0 0 1.00147 201.292 199)">pos A =&gt; report 0</text><path d="M338 123.181 351.5 79.1161 365 123.181Z" fill-rule="evenodd"/><rect x="338" y="123.181" width="27" height="52.0764"/><path d="M208.051 132.66 204.079 86.5361 233.058 122.605Z" fill-rule="evenodd"/><path d="M208.052 132.66 233.058 122.606 252.623 171.407 227.617 181.462Z" fill-rule="evenodd"/><path d="M0 44.2291 13.476 0 26.952 44.2291Z" fill-rule="evenodd" transform="matrix(-0.927806 -0.373062 -0.372514 0.92917 514.607 90.3334)"/><rect x="0" y="0" width="26.952" height="52.522" transform="matrix(-0.927806 -0.373062 -0.372514 0.92917 498.131 131.43)"/><text font-family="Arial,Arial_MSFontService,sans-serif" font-weight="400" font-size="9" transform="matrix(1 0 0 1.00147 195.47 76)">A</text><path d="M200 81.6198C200 80.237 201.119 79.1161 202.5 79.1161 203.881 79.1161 205 80.237 205 81.6198 205 83.0025 203.881 84.1234 202.5 84.1234 201.119 84.1234 200 83.0025 200 81.6198Z" fill-rule="evenodd"/><path d="M222 73.608C222 72.2253 223.343 71.1043 225 71.1043 226.657 71.1043 228 72.2253 228 73.608 228 74.9908 226.657 76.1117 225 76.1117 223.343 76.1117 222 74.9908 222 73.608Z" fill-rule="evenodd"/><path d="M244 80.6183C244 79.2356 245.119 78.1146 246.5 78.1146 247.881 78.1146 249 79.2356 249 80.6183 249 82.001 247.881 83.122 246.5 83.122 245.119 83.122 244 82.001 244 80.6183Z" fill-rule="evenodd"/><text font-family="Arial,Arial_MSFontService,sans-serif" font-weight="400" font-size="9" transform="matrix(1 0 0 1.00147 222.693 66)">B<tspan font-size="9" x="23.7361" y="7.98826">C</tspan><tspan font-size="9" x="98.6635" y="9.98532">A</tspan></text><path d="M325 81.6198C325 80.237 326.343 79.1161 328 79.1161 329.657 79.1161 331 80.237 331 81.6198 331 83.0025 329.657 84.1234 328 84.1234 326.343 84.1234 325 83.0025 325 81.6198Z" fill-rule="evenodd"/><path d="M348 73.608C348 72.2253 349.343 71.1043 351 71.1043 352.657 71.1043 354 72.2253 354 73.608 354 74.9908 352.657 76.1117 351 76.1117 349.343 76.1117 348 74.9908 348 73.608Z" fill-rule="evenodd"/><path d="M370 80.6183C370 79.2356 371.119 78.1146 372.5 78.1146 373.881 78.1146 375 79.2356 375 80.6183 375 82.001 373.881 83.122 372.5 83.122 371.119 83.122 370 82.001 370 80.6183Z" fill-rule="evenodd"/><text font-family="Arial,Arial_MSFontService,sans-serif" font-weight="400" font-size="9" transform="matrix(1 0 0 1.00147 348.579 66)">B<tspan font-size="9" x="23.7361" y="7.98826">C</tspan><tspan font-size="9" x="103.332" y="9.98532">A</tspan></text><path d="M456 81.6198C456 80.237 457.343 79.1161 459 79.1161 460.657 79.1161 462 80.237 462 81.6198 462 83.0025 460.657 84.1234 459 84.1234 457.343 84.1234 456 83.0025 456 81.6198Z" fill-rule="evenodd"/><path d="M478 73.608C478 72.2253 479.343 71.1043 481 71.1043 482.657 71.1043 484 72.2253 484 73.608 484 74.9908 482.657 76.1117 481 76.1117 479.343 76.1117 478 74.9908 478 73.608Z" fill-rule="evenodd"/><path d="M500 80.6183C500 79.2356 501.343 78.1146 503 78.1146 504.657 78.1146 506 79.2356 506 80.6183 506 82.001 504.657 83.122 503 83.122 501.343 83.122 500 82.001 500 80.6183Z" fill-rule="evenodd"/><text font-family="Arial,Arial_MSFontService,sans-serif" font-weight="400" font-size="9" transform="matrix(1 0 0 1.00147 479.134 66)">B<tspan font-size="9" x="23.7361" y="7.98826">C</tspan><tspan font-size="9" x="-40.1874" y="131.806">pos C =&gt; report 2</tspan><tspan font-size="9" x="-162.98" y="132.805">pos B =&gt; report 1</tspan></text><path d="M221.5 147.717C221.5 142.739 225.082 138.704 229.5 138.704 233.918 138.704 237.5 142.739 237.5 147.717 237.5 152.695 233.918 156.73 229.5 156.73 225.082 156.73 221.5 152.695 221.5 147.717Z" stroke="#000000" stroke-width="1.33389" stroke-miterlimit="8" fill="#A6A6A6" fill-rule="evenodd"/><path d="M470.5 144.712C470.5 139.735 474.082 135.699 478.5 135.699 482.918 135.699 486.5 139.735 486.5 144.712 486.5 149.69 482.918 153.726 478.5 153.726 474.082 153.726 470.5 149.69 470.5 144.712Z" stroke="#000000" stroke-width="1.33389" stroke-miterlimit="8" fill="#A6A6A6" fill-rule="evenodd"/><path d="M343.5 144.712C343.5 139.735 347.082 135.699 351.5 135.699 355.918 135.699 359.5 139.735 359.5 144.712 359.5 149.69 355.918 153.726 351.5 153.726 347.082 153.726 343.5 149.69 343.5 144.712Z" stroke="#000000" stroke-width="1.33389" stroke-miterlimit="8" fill="#A6A6A6" fill-rule="evenodd"/></g></svg>