<svg width="794" height="265" xmlns="http://www.w3.org/2000/svg" xmlns:xlink="http://www.w3.org/1999/xlink" overflow="hidden"><defs><clipPath id="clip0"><rect x="0" y="0" width="794" height="265"/></clipPath></defs><g clip-path="url(#clip0)"><rect x="0" y="0" width="794" height="265.389" fill="#FFFFFF"/><path d="M0 0 98.2173 91.282" stroke="#2F528F" stroke-width="1.33389" stroke-miterlimit="8" stroke-dasharray="5.33557 4.00168" fill="none" fill-rule="evenodd" transform="matrix(1 0 0 -1.00147 101.5 164.023)"/><path d="M200.639 164.543 102.5 73.6081" stroke="#2F528F" stroke-width="1.33389" stroke-miterlimit="8" stroke-dasharray="5.33557 4.00168" fill="none" fill-rule="evenodd"/><rect x="98.5" y="70.6037" width="105" height="96.1411" stroke="#2F528F" stroke-width="1.33389" stroke-miterlimit="8" stroke-dasharray="5.33557 4.00168" fill="none"/><path d="M98.5 118.674 203.014 118.674" stroke="#2F528F" stroke-width="1.33389" stroke-miterlimit="8" stroke-dasharray="5.33557 4.00168" fill="none" fill-rule="evenodd"/><path d="M0 0 0.000105031 96.0402" stroke="#2F528F" stroke-width="1.33389" stroke-miterlimit="8" stroke-dasharray="5.33557 4.00168" fill="none" fill-rule="evenodd" transform="matrix(1 0 0 -1.00147 150.5 166.785)"/><path d="M95.5 71.1044C95.5 69.1686 97.2909 67.5993 99.5 67.5993 101.709 67.5993 103.5 69.1686 103.5 71.1044 103.5 73.0402 101.709 74.6095 99.5 74.6095 97.2909 74.6095 95.5 73.0402 95.5 71.1044Z" stroke="#000000" stroke-width="1.33389" stroke-miterlimit="8" fill-rule="evenodd"/><path d="M94.5 118.173C94.5 116.238 96.2909 114.668 98.5 114.668 100.709 114.668 102.5 116.238 102.5 118.173 102.5 120.109 100.709 121.679 98.5 121.679 96.2909 121.679 94.5 120.109 94.5 118.173Z" stroke="#000000" stroke-width="1.33389" stroke-miterlimit="8" fill-rule="evenodd"/><path d="M94.5 166.244C94.5 164.308 96.2909 162.739 98.5 162.739 100.709 162.739 102.5 164.308 102.5 166.244 102.5 168.18 100.709 169.749 98.5 169.749 96.2909 169.749 94.5 168.18 94.5 166.244Z" stroke="#000000" stroke-width="1.33389" stroke-miterlimit="8" fill-rule="evenodd"/><path d="M147.5 167.245C147.5 165.31 149.067 163.74 151 163.74 152.933 163.74 154.5 165.31 154.5 167.245 154.5 169.181 152.933 170.751 151 170.751 149.067 170.751 147.5 169.181 147.5 167.245Z" stroke="#000000" stroke-width="1.33389" stroke-miterlimit="8" fill-rule="evenodd"/><path d="M147.5 70.1029C147.5 68.1671 149.067 66.5978 151 66.5978 152.933 66.5978 154.5 68.1671 154.5 70.1029 154.5 72.0388 152.933 73.6081 151 73.6081 149.067 73.6081 147.5 72.0388 147.5 70.1029Z" stroke="#000000" stroke-width="1.33389" stroke-miterlimit="8" fill-rule="evenodd"/><path d="M147.5 118.173C147.5 116.238 149.067 114.668 151 114.668 152.933 114.668 154.5 116.238 154.5 118.173 154.5 120.109 152.933 121.679 151 121.679 149.067 121.679 147.5 120.109 147.5 118.173Z" stroke="#000000" stroke-width="1.33389" stroke-miterlimit="8" fill-rule="evenodd"/><path d="M199.5 166.244C199.5 164.308 201.291 162.739 203.5 162.739 205.709 162.739 207.5 164.308 207.5 166.244 207.5 168.18 205.709 169.749 203.5 169.749 201.291 169.749 199.5 168.18 199.5 166.244Z" stroke="#000000" stroke-width="1.33389" stroke-miterlimit="8" fill-rule="evenodd"/><path d="M199.5 118.173C199.5 116.238 201.291 114.668 203.5 114.668 205.709 114.668 207.5 116.238 207.5 118.173 207.5 120.109 205.709 121.679 203.5 121.679 201.291 121.679 199.5 120.109 199.5 118.173Z" stroke="#000000" stroke-width="1.33389" stroke-miterlimit="8" fill-rule="evenodd"/><path d="M198.5 70.1029C198.5 68.1671 200.291 66.5978 202.5 66.5978 204.709 66.5978 206.5 68.1671 206.5 70.1029 206.5 72.0388 204.709 73.6081 202.5 73.6081 200.291 73.6081 198.5 72.0388 198.5 70.1029Z" stroke="#000000" stroke-width="1.33389" stroke-miterlimit="8" fill-rule="evenodd"/><text font-family="Arial,Arial_MSFontService,sans-serif" font-weight="400" font-size="9" transform="matrix(1 0 0 1.00147 154.376 63)">1<tspan font-size="9" x="52.1786" y="0">2</tspan><tspan font-size="9" x="54.2581" y="48.9281">3</tspan><tspan font-size="9" x="54.0618" y="97.8562">4</tspan><tspan font-size="9" x="1.80475" y="97.8562">5</tspan><tspan font-size="9" x="-52.2572" y="96.8576">6</tspan><tspan font-size="9" x="-52.2572" y="48.9281">7</tspan><tspan font-size="9" x="-51.4528" y="0.998532">8</tspan><tspan font-size="9" x="-0.86293" y="37.9442">0</tspan></text><path d="M0 0 98.2173 91.282" stroke="#2F528F" stroke-width="1.33389" stroke-miterlimit="8" stroke-dasharray="5.33557 4.00168" fill="none" fill-rule="evenodd" transform="matrix(1 0 0 -1.00147 343.5 166.026)"/><path d="M441.639 166.546 343.5 75.611" stroke="#2F528F" stroke-width="1.33389" stroke-miterlimit="8" stroke-dasharray="5.33557 4.00168" fill="none" fill-rule="evenodd"/><rect x="340.5" y="72.6066" width="104" height="96.1411" stroke="#2F528F" stroke-width="1.33389" stroke-miterlimit="8" stroke-dasharray="5.33557 4.00168" fill="none"/><path d="M340.5 120.677 445.014 120.677" stroke="#2F528F" stroke-width="1.33389" stroke-miterlimit="8" stroke-dasharray="5.33557 4.00168" fill="none" fill-rule="evenodd"/><path d="M0 0 0.000105031 96.0402" stroke="#2F528F" stroke-width="1.33389" stroke-miterlimit="8" stroke-dasharray="5.33557 4.00168" fill="none" fill-rule="evenodd" transform="matrix(1 0 0 -1.00147 392.5 168.788)"/><path d="M337.5 73.1073C337.5 71.1715 339.291 69.6022 341.5 69.6022 343.709 69.6022 345.5 71.1715 345.5 73.1073 345.5 75.0432 343.709 76.6125 341.5 76.6125 339.291 76.6125 337.5 75.0432 337.5 73.1073Z" stroke="#000000" stroke-width="1.33389" stroke-miterlimit="8" fill-rule="evenodd"/><path d="M336.5 120.176C336.5 118.241 338.291 116.671 340.5 116.671 342.709 116.671 344.5 118.241 344.5 120.176 344.5 122.112 342.709 123.682 340.5 123.682 338.291 123.682 336.5 122.112 336.5 120.176Z" stroke="#000000" stroke-width="1.33389" stroke-miterlimit="8" fill-rule="evenodd"/><path d="M336.5 169.248C336.5 167.313 338.291 165.743 340.5 165.743 342.709 165.743 344.5 167.313 344.5 169.248 344.5 171.184 342.709 172.754 340.5 172.754 338.291 172.754 336.5 171.184 336.5 169.248Z" stroke="#000000" stroke-width="1.33389" stroke-miterlimit="8" fill-rule="evenodd"/><path d="M388.5 169.248C388.5 167.313 390.291 165.743 392.5 165.743 394.709 165.743 396.5 167.313 396.5 169.248 396.5 171.184 394.709 172.754 392.5 172.754 390.291 172.754 388.5 171.184 388.5 169.248Z" stroke="#000000" stroke-width="1.33389" stroke-miterlimit="8" fill-rule="evenodd"/><path d="M388.5 73.1073C388.5 71.1715 390.291 69.6022 392.5 69.6022 394.709 69.6022 396.5 71.1715 396.5 73.1073 396.5 75.0432 394.709 76.6125 392.5 76.6125 390.291 76.6125 388.5 75.0432 388.5 73.1073Z" stroke="#000000" stroke-width="1.33389" stroke-miterlimit="8" fill-rule="evenodd"/><path d="M388.5 120.176C388.5 118.241 390.291 116.671 392.5 116.671 394.709 116.671 396.5 118.241 396.5 120.176 396.5 122.112 394.709 123.682 392.5 123.682 390.291 123.682 388.5 122.112 388.5 120.176Z" stroke="#000000" stroke-width="1.33389" stroke-miterlimit="8" fill-rule="evenodd"/><path d="M440.5 169.248C440.5 167.313 442.291 165.743 444.5 165.743 446.709 165.743 448.5 167.313 448.5 169.248 448.5 171.184 446.709 172.754 444.5 172.754 442.291 172.754 440.5 171.184 440.5 169.248Z" stroke="#000000" stroke-width="1.33389" stroke-miterlimit="8" fill-rule="evenodd"/><path d="M440.5 121.178C440.5 119.242 442.291 117.673 444.5 117.673 446.709 117.673 448.5 119.242 448.5 121.178 448.5 123.114 446.709 124.683 444.5 124.683 442.291 124.683 440.5 123.114 440.5 121.178Z" stroke="#000000" stroke-width="1.33389" stroke-miterlimit="8" fill-rule="evenodd"/><path d="M440.5 72.1059C440.5 70.17 442.067 68.6007 444 68.6007 445.933 68.6007 447.5 70.17 447.5 72.1059 447.5 74.0417 445.933 75.611 444 75.611 442.067 75.611 440.5 74.0417 440.5 72.1059Z" stroke="#000000" stroke-width="1.33389" stroke-miterlimit="8" fill-rule="evenodd"/><text font-family="Arial,Arial_MSFontService,sans-serif" font-weight="400" font-size="9" transform="matrix(1 0 0 1.00147 396 65)">1<tspan font-size="9" x="52.1786" y="0">2</tspan><tspan font-size="9" x="54.2581" y="49.9266">3</tspan><tspan font-size="9" x="54.0618" y="98.8547">4</tspan><tspan font-size="9" x="1.80475" y="98.8547">5</tspan><tspan font-size="9" x="-52.2572" y="96.8576">6</tspan><tspan font-size="9" x="-52.2572" y="49.9266">7</tspan><tspan font-size="9" x="-51.4528" y="0.998532">8</tspan><tspan font-size="9" x="-0.862946" y="44.934">0</tspan></text><path d="M0 0 98.2173 91.282" stroke="#2F528F" stroke-width="1.33389" stroke-miterlimit="8" stroke-dasharray="5.33557 4.00168" fill="none" fill-rule="evenodd" transform="matrix(1 0 0 -1.00147 566.5 166.026)"/><path d="M664.639 165.544 566.5 74.6096" stroke="#2F528F" stroke-width="1.33389" stroke-miterlimit="8" stroke-dasharray="5.33557 4.00168" fill="none" fill-rule="evenodd"/><rect x="563.5" y="72.6066" width="104" height="96.1411" stroke="#2F528F" stroke-width="1.33389" stroke-miterlimit="8" stroke-dasharray="5.33557 4.00168" fill="none"/><path d="M563.5 120.677 668.014 120.677" stroke="#2F528F" stroke-width="1.33389" stroke-miterlimit="8" stroke-dasharray="5.33557 4.00168" fill="none" fill-rule="evenodd"/><path d="M0 0 0.000105031 96.0402" stroke="#2F528F" stroke-width="1.33389" stroke-miterlimit="8" stroke-dasharray="5.33557 4.00168" fill="none" fill-rule="evenodd" transform="matrix(1 0 0 -1.00147 615.5 168.788)"/><path d="M560.5 72.1059C560.5 70.17 562.291 68.6007 564.5 68.6007 566.709 68.6007 568.5 70.17 568.5 72.1059 568.5 74.0417 566.709 75.611 564.5 75.611 562.291 75.611 560.5 74.0417 560.5 72.1059Z" stroke="#000000" stroke-width="1.33389" stroke-miterlimit="8" fill-rule="evenodd"/><path d="M559.5 120.176C559.5 118.241 561.291 116.671 563.5 116.671 565.709 116.671 567.5 118.241 567.5 120.176 567.5 122.112 565.709 123.682 563.5 123.682 561.291 123.682 559.5 122.112 559.5 120.176Z" stroke="#000000" stroke-width="1.33389" stroke-miterlimit="8" fill-rule="evenodd"/><path d="M559.5 168.247C559.5 166.311 561.291 164.742 563.5 164.742 565.709 164.742 567.5 166.311 567.5 168.247 567.5 170.183 565.709 171.752 563.5 171.752 561.291 171.752 559.5 170.183 559.5 168.247Z" stroke="#000000" stroke-width="1.33389" stroke-miterlimit="8" fill-rule="evenodd"/><path d="M611.5 169.248C611.5 167.313 613.291 165.743 615.5 165.743 617.709 165.743 619.5 167.313 619.5 169.248 619.5 171.184 617.709 172.754 615.5 172.754 613.291 172.754 611.5 171.184 611.5 169.248Z" stroke="#000000" stroke-width="1.33389" stroke-miterlimit="8" fill-rule="evenodd"/><path d="M611.5 72.1059C611.5 70.17 613.291 68.6007 615.5 68.6007 617.709 68.6007 619.5 70.17 619.5 72.1059 619.5 74.0417 617.709 75.611 615.5 75.611 613.291 75.611 611.5 74.0417 611.5 72.1059Z" stroke="#000000" stroke-width="1.33389" stroke-miterlimit="8" fill-rule="evenodd"/><path d="M611.5 120.176C611.5 118.241 613.291 116.671 615.5 116.671 617.709 116.671 619.5 118.241 619.5 120.176 619.5 122.112 617.709 123.682 615.5 123.682 613.291 123.682 611.5 122.112 611.5 120.176Z" stroke="#000000" stroke-width="1.33389" stroke-miterlimit="8" fill-rule="evenodd"/><path d="M663.5 168.247C663.5 166.311 665.291 164.742 667.5 164.742 669.709 164.742 671.5 166.311 671.5 168.247 671.5 170.183 669.709 171.752 667.5 171.752 665.291 171.752 663.5 170.183 663.5 168.247Z" stroke="#000000" stroke-width="1.33389" stroke-miterlimit="8" fill-rule="evenodd"/><path d="M663.5 120.176C663.5 118.241 665.291 116.671 667.5 116.671 669.709 116.671 671.5 118.241 671.5 120.176 671.5 122.112 669.709 123.682 667.5 123.682 665.291 123.682 663.5 122.112 663.5 120.176Z" stroke="#000000" stroke-width="1.33389" stroke-miterlimit="8" fill-rule="evenodd"/><path d="M663.5 72.1059C663.5 70.17 665.291 68.6007 667.5 68.6007 669.709 68.6007 671.5 70.17 671.5 72.1059 671.5 74.0417 669.709 75.611 667.5 75.611 665.291 75.611 663.5 74.0417 663.5 72.1059Z" stroke="#000000" stroke-width="1.33389" stroke-miterlimit="8" fill-rule="evenodd"/><text font-family="Arial,Arial_MSFontService,sans-serif" font-weight="400" font-size="9" transform="matrix(1 0 0 1.00147 619.083 65)">1<tspan font-size="9" x="52.1785" y="0">2</tspan><tspan font-size="9" x="54.2581" y="48.9281">3</tspan><tspan font-size="9" x="54.0617" y="97.8562">4</tspan><tspan font-size="9" x="1.80475" y="97.8562">5</tspan><tspan font-size="9" x="-52.2572" y="96.8576">6</tspan><tspan font-size="9" x="-52.2572" y="48.9281">7</tspan><tspan font-size="9" x="-51.4528" y="0">8</tspan><tspan font-size="9" x="-0.862976" y="44.934">0</tspan></text><path d="M140.5 117.673C140.5 111.589 145.425 106.657 151.5 106.657 157.575 106.657 162.5 111.589 162.5 117.673 162.5 123.757 157.575 128.689 151.5 128.689 145.425 128.689 140.5 123.757 140.5 117.673Z" stroke="#FF0000" stroke-width="3.00126" stroke-miterlimit="8" fill="none" fill-rule="evenodd"/><path d="M403.505 124.182 429.5 124.273 429.49 127.279 403.495 127.187ZM428.01 121.262 436.998 125.802 427.978 130.279Z" fill="#FF0000"/><path d="M4.3645e-06-1.50063 28.6092-1.50055 28.6092 1.50071-4.3645e-06 1.50063ZM27.1086-4.50181 36.1124 0.000105031 27.1086 4.50197Z" fill="#FF0000" transform="matrix(-1 0 0 1.00147 437.612 113.667)"/><text fill="#FF0000" font-family="Arial,Arial_MSFontService,sans-serif" font-weight="400" font-size="9" transform="matrix(1 0 0 1.00147 418.911 135)">a<tspan font-size="9" x="1.74948" y="-24.9633">b</tspan></text><path d="M1.00402-1.11527 28.4869 23.6263 26.4789 25.8568-1.00402 1.11527ZM29.3797 20.3917 33.0592 29.7617 23.3555 27.0833Z" fill="#FF0000" transform="matrix(-1 0 0 1.00147 603.559 123.682)"/><path d="M580.5 174.255 601.431 174.255 601.431 177.261 580.5 177.261ZM599.93 171.25 608.934 175.758 599.93 180.267Z" fill="#FF0000"/><text fill="#FF0000" font-family="Arial,Arial_MSFontService,sans-serif" font-weight="400" font-size="9" transform="matrix(1 0 0 1.00147 579.194 134)">c<tspan font-size="9" x="7.76801" y="53.9207">d</tspan></text><path d="M1.50063-6.38289e-06 1.5007 17.1898-1.50056 17.1898-1.50063 6.38289e-06ZM4.50196 15.6892 0.000105031 24.693-4.50182 15.6892Z" fill="#FF0000" transform="matrix(1 0 0 -1.00147 619.5 153.418)"/><text fill="#FF0000" font-family="Arial,Arial_MSFontService,sans-serif" font-weight="400" font-size="9" transform="matrix(1 0 0 1.00147 622.104 147)">e<tspan fill="#000000" font-size="9" x="-555.78" y="57.9149">(</tspan><tspan fill="#000000" font-size="9" x="-552.612" y="57.9149">i</tspan><tspan fill="#000000" font-size="9" x="-550.611" y="57.9149">) no interaction, stick in middle position</tspan><tspan fill="#000000" font-size="9" x="-314.156" y="59.9119">(ii) move to East and release (to middle)</tspan><tspan fill="#000000" font-size="9" x="-94.9567" y="58.9134">(iii) move to </tspan><tspan fill="#000000" font-size="9" x="-43.9353" y="58.9134">SouthWest</tspan><tspan fill="#000000" font-size="9" x="1.75055" y="58.9134">, then to South,</tspan><tspan fill="#000000" font-size="9" x="-94.9567" y="69.8973">then release (to middle position)</tspan></text></g></svg>