<svg width="794" height="378" xmlns="http://www.w3.org/2000/svg" xmlns:xlink="http://www.w3.org/1999/xlink" overflow="hidden"><defs><clipPath id="clip0"><rect x="0" y="0" width="794" height="378"/></clipPath></defs><g clip-path="url(#clip0)"><rect x="0" y="0" width="794" height="377.841" fill="#FFFFFF"/><path d="M0 0 0.000209974 241.945" stroke="#4472C4" stroke-width="0.666667" stroke-miterlimit="8" stroke-dasharray="0.666667 0.666667" fill="none" fill-rule="evenodd" transform="matrix(-1.00042 0 0 1 158.5 119.45)"/><path d="M0 0 0.000104987 37.7995" stroke="#000000" stroke-width="3" stroke-miterlimit="8" fill="none" fill-rule="evenodd" transform="matrix(1.00042 0 0 -1 150.5 181.239)"/><path d="M0 0 0.000104987 37.7995" stroke="#000000" stroke-width="3" stroke-miterlimit="8" fill="none" fill-rule="evenodd" transform="matrix(1.00042 0 0 -1 180.5 181.239)"/><path d="M0 0 113.398 0.000104987" stroke="#000000" stroke-width="3" stroke-miterlimit="8" fill="none" fill-rule="evenodd" transform="matrix(-1.00042 0 0 1 150.946 181.424)"/><path d="M0 0 370.435 0.000104987" stroke="#000000" stroke-width="3" stroke-miterlimit="8" fill="none" fill-rule="evenodd" transform="matrix(-1.00042 0 0 1 551.09 180.424)"/><path d="M0 0 30.2396 0.000104987" stroke="#000000" stroke-width="3" stroke-miterlimit="8" fill="none" fill-rule="evenodd" transform="matrix(-1.00042 0 0 1 180.752 144.439)"/><path d="M0 0 0.000104987 37.7995" stroke="#000000" stroke-width="3" stroke-miterlimit="8" fill="none" fill-rule="evenodd" transform="matrix(1.00042 0 0 -1 150.5 240.214)"/><path d="M0 0 0.000104987 37.7995" stroke="#000000" stroke-width="3" stroke-miterlimit="8" fill="none" fill-rule="evenodd" transform="matrix(1.00042 0 0 -1 226.5 241.214)"/><path d="M0 0 113.398 0.000104987" stroke="#000000" stroke-width="3" stroke-miterlimit="8" fill="none" fill-rule="evenodd" transform="matrix(-1.00042 0 0 1 150.946 240.399)"/><path d="M0 0 325.075 0.000104987" stroke="#000000" stroke-width="3" stroke-miterlimit="8" fill="none" fill-rule="evenodd" transform="matrix(-1.00042 0 0 1 551.712 239.399)"/><path d="M0 0 75.5989 0.000104987" stroke="#000000" stroke-width="3" stroke-miterlimit="8" fill="none" fill-rule="evenodd" transform="matrix(-1.00042 0 0 1 226.131 203.415)"/><path d="M0 0 0.000104987 37.7995" stroke="#000000" stroke-width="3" stroke-miterlimit="8" fill="none" fill-rule="evenodd" transform="matrix(1.00042 0 0 -1 150.5 301.189)"/><path d="M0 0 0.000104987 37.7995" stroke="#000000" stroke-width="3" stroke-miterlimit="8" fill="none" fill-rule="evenodd" transform="matrix(1.00042 0 0 -1 491.5 301.189)"/><path d="M0 0 113.398 0.000104987" stroke="#000000" stroke-width="3" stroke-miterlimit="8" fill="none" fill-rule="evenodd" transform="matrix(-1.00042 0 0 1 150.946 301.373)"/><path d="M0 0 60.4792 1.05186" stroke="#000000" stroke-width="3" stroke-miterlimit="8" fill="none" fill-rule="evenodd" transform="matrix(-1.00042 0 0 1 552.005 300.374)"/><path d="M0 0 340.195 0.000104987" stroke="#000000" stroke-width="3" stroke-miterlimit="8" fill="none" fill-rule="evenodd" transform="matrix(-1.00042 0 0 1 490.838 264.389)"/><path d="M150.5 119.45 150.5 361.367" stroke="#4472C4" stroke-width="0.666947" stroke-miterlimit="8" stroke-dasharray="0.666947 0.666947" fill="none" fill-rule="evenodd"/><text font-family="Arial,Arial_MSFontService,sans-serif" font-weight="400" font-size="16" transform="matrix(1 0 0 0.99958 175.851 333)">threshold1 (minimum to be detected)</text><path d="M155 142.94C155 140.732 156.567 138.942 158.5 138.942 160.433 138.942 162 140.732 162 142.94 162 145.148 160.433 146.938 158.5 146.938 156.567 146.938 155 145.148 155 142.94Z" fill="#009E73" fill-rule="evenodd"/><path d="M155 203.415C155 200.93 156.567 198.916 158.5 198.916 160.433 198.916 162 200.93 162 203.415 162 205.899 160.433 207.913 158.5 207.913 156.567 207.913 155 205.899 155 203.415Z" fill="#009E73" fill-rule="evenodd"/><path d="M155 264.389C155 261.905 156.567 259.891 158.5 259.891 160.433 259.891 162 261.905 162 264.389 162 266.873 160.433 268.887 158.5 268.887 156.567 268.887 155 266.873 155 264.389Z" fill="#009E73" fill-rule="evenodd"/><text font-family="Arial,Arial_MSFontService,sans-serif" font-weight="400" font-size="15" transform="matrix(1 0 0 0.99958 583.376 169)">short press<tspan font-size="15" x="0" y="60.0252">long</tspan><tspan font-size="15" x="30.8463" y="60.0252">press</tspan><tspan font-size="15" x="-0.500183" y="121.051">even longer</tspan><tspan font-size="15" x="79.2" y="121.051">press</tspan><tspan font-size="20" x="-497.913" y="-129.054">feature flags: MS &amp; !MSR &amp; !MSL</tspan></text><path d="M142.5 328.029 149.649 328.029 149.649 328.696 142.5 328.695ZM144.49 324.746 150.278 328.362 144.49 331.978C144.334 332.076 144.128 332.028 144.03 331.872 143.933 331.716 143.98 331.51 144.136 331.413L149.472 328.08 149.472 328.645 144.136 325.311C143.98 325.214 143.933 325.008 144.03 324.852 144.128 324.696 144.334 324.649 144.49 324.746Z"/><path d="M4.25338e-06-0.333333 7.60105-0.333236 7.60104 0.33343-4.25338e-06 0.333333ZM2.44443-3.61597 8.22998 0.000105014 2.44434 3.61603C2.28822 3.7136 2.08257 3.66614 1.98501 3.51003 1.88744 3.35391 1.9349 3.14826 2.09101 3.05069L7.42439-0.282571 7.42438 0.282761 2.09109-3.05064C1.93498-3.14821 1.88752-3.35386 1.9851-3.50997 2.08267-3.66609 2.28832-3.71354 2.44443-3.61597Z" transform="matrix(-1.00042 0 0 1 166.731 328.362)"/><path d="M146.5 328.362 161.782 328.362" stroke="#000000" stroke-width="0.666947" stroke-miterlimit="8" fill="none" fill-rule="evenodd"/><path d="M162.084 107.806 160.259 136.745" stroke="#009E73" stroke-width="1.33389" stroke-miterlimit="8" stroke-dasharray="4.00168 1.33389" fill="none" fill-rule="evenodd"/><text font-family="Arial,Arial_MSFontService,sans-serif" font-weight="400" font-size="14" transform="matrix(1 0 0 0.99958 149.422 104)">InitialPress</text><path d="M0 0 5.7389 87.0752" stroke="#009E73" stroke-width="1.33333" stroke-miterlimit="8" stroke-dasharray="4 1.33333" fill="none" fill-rule="evenodd" transform="matrix(1.00042 0 0 -1 161.5 194.53)"/><path d="M0 0 10.6914 147.554" stroke="#009E73" stroke-width="1.33333" stroke-miterlimit="8" stroke-dasharray="4 1.33333" fill="none" fill-rule="evenodd" transform="matrix(1.00042 0 0 -1 162.5 255.009)"/></g></svg>