<svg width="794" height="265" xmlns="http://www.w3.org/2000/svg" xmlns:xlink="http://www.w3.org/1999/xlink" overflow="hidden"><defs><clipPath id="clip0"><rect x="0" y="0" width="794" height="265"/></clipPath></defs><g clip-path="url(#clip0)"><rect x="0" y="0" width="794" height="265.389" fill="#FFFFFF"/><path d="M108.5 115.002C108.5 113.712 109.545 112.665 110.833 112.665L120.167 112.665C121.455 112.665 122.5 113.712 122.5 115.002L122.5 144.379C122.5 145.669 121.455 146.715 120.167 146.715L110.833 146.715C109.545 146.715 108.5 145.669 108.5 144.379Z" stroke="#000000" stroke-width="1.33389" stroke-miterlimit="8" fill="#FFFFFF" fill-rule="evenodd"/><path d="M132.5 103.986C132.5 102.695 133.545 101.649 134.833 101.649L144.167 101.649C145.455 101.649 146.5 102.695 146.5 103.986L146.5 133.362C146.5 134.653 145.455 135.699 144.167 135.699L134.833 135.699C133.545 135.699 132.5 134.653 132.5 133.362Z" stroke="#000000" stroke-width="1.33389" stroke-miterlimit="8" fill="#FFFFFF" fill-rule="evenodd"/><path d="M155.5 104.153C155.5 102.77 156.619 101.649 158 101.649L168 101.649C169.381 101.649 170.5 102.77 170.5 104.153L170.5 133.195C170.5 134.578 169.381 135.699 168 135.699L158 135.699C156.619 135.699 155.5 134.578 155.5 133.195Z" stroke="#000000" stroke-width="1.33389" stroke-miterlimit="8" fill="#FFFFFF" fill-rule="evenodd"/><path d="M179.5 103.986C179.5 102.695 180.545 101.649 181.833 101.649L191.167 101.649C192.455 101.649 193.5 102.695 193.5 103.986L193.5 133.362C193.5 134.653 192.455 135.699 191.167 135.699L181.833 135.699C180.545 135.699 179.5 134.653 179.5 133.362Z" stroke="#000000" stroke-width="1.33389" stroke-miterlimit="8" fill="#FFFFFF" fill-rule="evenodd"/><path d="M203.5 103.986C203.5 102.695 204.545 101.649 205.833 101.649L215.167 101.649C216.455 101.649 217.5 102.695 217.5 103.986L217.5 133.362C217.5 134.653 216.455 135.699 215.167 135.699L205.833 135.699C204.545 135.699 203.5 134.653 203.5 133.362Z" stroke="#000000" stroke-width="1.33389" stroke-miterlimit="8" fill="#FFFFFF" fill-rule="evenodd"/><path d="M372.5 103.986C372.5 102.695 373.545 101.649 374.833 101.649L384.167 101.649C385.455 101.649 386.5 102.695 386.5 103.986L386.5 133.362C386.5 134.653 385.455 135.699 384.167 135.699L374.833 135.699C373.545 135.699 372.5 134.653 372.5 133.362Z" stroke="#000000" stroke-width="1.33389" stroke-miterlimit="8" fill="#FFFFFF" fill-rule="evenodd"/><path d="M396.5 103.986C396.5 102.695 397.545 101.649 398.833 101.649L408.167 101.649C409.455 101.649 410.5 102.695 410.5 103.986L410.5 133.362C410.5 134.653 409.455 135.699 408.167 135.699L398.833 135.699C397.545 135.699 396.5 134.653 396.5 133.362Z" stroke="#000000" stroke-width="1.33389" stroke-miterlimit="8" fill="#FFFFFF" fill-rule="evenodd"/><path d="M419.5 104.153C419.5 102.77 420.619 101.649 422 101.649L432 101.649C433.381 101.649 434.5 102.77 434.5 104.153L434.5 133.195C434.5 134.578 433.381 135.699 432 135.699L422 135.699C420.619 135.699 419.5 134.578 419.5 133.195Z" stroke="#000000" stroke-width="1.33389" stroke-miterlimit="8" fill="#FFFFFF" fill-rule="evenodd"/><path d="M443.5 115.002C443.5 113.712 444.545 112.665 445.833 112.665L455.167 112.665C456.455 112.665 457.5 113.712 457.5 115.002L457.5 144.379C457.5 145.669 456.455 146.715 455.167 146.715L445.833 146.715C444.545 146.715 443.5 145.669 443.5 144.379Z" stroke="#000000" stroke-width="1.33389" stroke-miterlimit="8" fill="#FFFFFF" fill-rule="evenodd"/><path d="M467.5 103.986C467.5 102.695 468.545 101.649 469.833 101.649L479.167 101.649C480.455 101.649 481.5 102.695 481.5 103.986L481.5 133.362C481.5 134.653 480.455 135.699 479.167 135.699L469.833 135.699C468.545 135.699 467.5 134.653 467.5 133.362Z" stroke="#000000" stroke-width="1.33389" stroke-miterlimit="8" fill="#FFFFFF" fill-rule="evenodd"/><text font-family="Arial,Arial_MSFontService,sans-serif" font-weight="400" font-size="9" transform="matrix(1 0 0 1.00147 120.127 221)">button A pressed =&gt; report 0</text><rect x="90.5" y="120.677" width="150" height="72.1058" stroke="#2F528F" stroke-width="1.33389" stroke-miterlimit="8" fill="#A6A6A6"/><text font-family="Arial,Arial_MSFontService,sans-serif" font-weight="400" font-size="9" transform="matrix(1 0 0 1.00147 111.97 138)">A<tspan font-size="9" x="23.4465" y="0">B</tspan><tspan font-size="9" x="46.893" y="0">C</tspan><tspan font-size="9" x="70.3394" y="0">D</tspan><tspan font-size="9" x="93.7858" y="0">E</tspan><tspan font-size="9" x="272.126" y="82.8782">button D pressed =&gt; report 4</tspan></text><rect x="354.5" y="120.677" width="150" height="72.1058" stroke="#2F528F" stroke-width="1.33389" stroke-miterlimit="8" fill="#A6A6A6"/><text font-family="Arial,Arial_MSFontService,sans-serif" font-weight="400" font-size="9" transform="matrix(1 0 0 1.00147 375.939 138)">A<tspan font-size="9" x="23.4465" y="0">B</tspan><tspan font-size="9" x="46.893" y="0">C</tspan><tspan font-size="9" x="70.3394" y="0">D</tspan><tspan font-size="9" x="93.7858" y="0">E</tspan></text></g></svg>