<?xml version="1.0" encoding="UTF-8" standalone="no"?>
<!DOCTYPE svg PUBLIC "-//W3C//DTD SVG 1.1//EN" "http://www.w3.org/Graphics/SVG/1.1/DTD/svg11.dtd">
<!-- Generated by Microsoft Visio, SVG Export OnOff_GlobalSceneControl.svg Global Scene Control -->
<svg xmlns="http://www.w3.org/2000/svg" xmlns:xlink="http://www.w3.org/1999/xlink" xmlns:ev="http://www.w3.org/2001/xml-events"
		xmlns:v="http://schemas.microsoft.com/visio/2003/SVGExtensions/" width="6.52756in" height="3.80675in"
		viewBox="0 0 469.984 274.086" xml:space="preserve" color-interpolation-filters="sRGB" class="st12">
	<v:documentProperties v:langID="1033" v:metric="true" v:viewMarkup="false">
		<v:userDefs>
			<v:ud v:nameU="msvConvertTheme"/>
			<v:ud v:nameU="msvNoAutoConnect" v:val="VT0(1):26"/>
		</v:userDefs>
	</v:documentProperties>

	<style type="text/css">
	<![CDATA[
		.st1 {fill:#ffffff;stroke:#000000;stroke-linecap:round;stroke-linejoin:round;stroke-width:0.24}
		.st2 {fill:#000000;font-family:Arial;font-size:0.499992em}
		.st3 {font-size:1em}
		.st4 {marker-end:url(#mrkr13-10);stroke:#000000;stroke-linecap:round;stroke-linejoin:round;stroke-width:0.239976}
		.st5 {fill:#000000;fill-opacity:1;stroke:#000000;stroke-opacity:1;stroke-width:0.086948582161584}
		.st6 {marker-end:url(#mrkr4-36);stroke:#000000;stroke-linecap:round;stroke-linejoin:round;stroke-width:0.24}
		.st7 {fill:#000000;fill-opacity:1;stroke:#000000;stroke-opacity:1;stroke-width:0.11764705882353}
		.st8 {fill:none;stroke:none;stroke-linecap:round;stroke-linejoin:round;stroke-width:0.72}
		.st9 {fill:#000000;font-family:Arial;font-size:0.666664em}
		.st10 {fill:#000000;stroke:#000000;stroke-linecap:round;stroke-linejoin:round;stroke-width:0.24}
		.st11 {baseline-shift:32.4939%;font-size:0.649878em}
		.st12 {fill:none;fill-rule:evenodd;font-size:12px;overflow:visible;stroke-linecap:square;stroke-miterlimit:3}
	]]>
	</style>

	<defs id="Markers">
		<g id="lend13">
			<path d="M 3 1 L 0 0 L 3 -1 L 3 1 " style="stroke:none"/>
		</g>
		<marker id="mrkr13-10" class="st5" v:arrowType="13" v:arrowSize="2" v:setback="33.003" refX="-33.00300030003" orient="auto"
				markerUnits="strokeWidth" overflow="visible">
			<use xlink:href="#lend13" transform="scale(-11.501050105011,-11.501050105011) "/>
		</marker>
		<g id="lend4">
			<path d="M 2 1 L 0 0 L 2 -1 L 2 1 " style="stroke:none"/>
		</g>
		<marker id="mrkr4-36" class="st7" v:arrowType="4" v:arrowSize="1" v:setback="15.5" refX="-15.5" orient="auto"
				markerUnits="strokeWidth" overflow="visible">
			<use xlink:href="#lend4" transform="scale(-8.5000000000001,-8.5000000000001) "/>
		</marker>
	</defs>
	<g v:mID="7" v:index="1" v:groupContext="foregroundPage">
		<title>Global Scene Control</title>
		<v:pageProperties v:drawingScale="0.0393701" v:pageScale="0.0393701" v:drawingUnits="24" v:shadowOffsetX="8.50394"
				v:shadowOffsetY="-8.50394"/>
		<v:layer v:name="Connector" v:index="0"/>
		<g id="shape2-1" v:mID="2" v:groupContext="shape" transform="translate(192.472,-46.2025)">
			<title>Ellipse.4</title>
			<desc>recall global scene</desc>
			<v:userDefs>
				<v:ud v:nameU="visVersion" v:val="VT0(12):26"/>
			</v:userDefs>
			<v:textBlock v:margins="rect(4,4,4,4)" v:tabSpace="42.5197"/>
			<v:textRect cx="42.5197" cy="254.244" width="74.41" height="34.7244"/>
			<path d="M0 254.24 A42.5197 19.8425 0 1 1 85.04 254.24 A42.5197 19.8425 0 0 1 0 254.24 Z" class="st1"/>
			<text x="17.67" y="256.04" class="st2" v:langID="1033"><v:paragraph v:horizAlign="1"/><v:tabList/>r<tspan class="st3"
						v:langID="2057">ecall global scene</tspan></text>		</g>
		<g id="shape3-5" v:mID="3" v:groupContext="shape" v:layerMember="0" transform="translate(463.084,-163.746) rotate(42.6141)">
			<title>Line-curve connector</title>
			<v:userDefs>
				<v:ud v:nameU="AntiScale" v:val="VT0(1):26"/>
				<v:ud v:nameU="Scale" v:val="VT0(1):26"/>
				<v:ud v:nameU="visVersion" v:val="VT0(12):26"/>
			</v:userDefs>
			<path d="M0 274.09 L15.46 265.35 L30.7 259.79 L45.71 257.43 L60.51 258.25 L75.08 262.26 L89.43 269.46 L89.73 269.66"
					class="st4"/>
		</g>
		<g id="shape5-11" v:mID="5" v:groupContext="shape" v:layerMember="0"
				transform="translate(307.178,304.868) rotate(-42.6141) scale(1,-1)">
			<title>Line-curve connector.5</title>
			<v:userDefs>
				<v:ud v:nameU="AntiScale" v:val="VT0(1):26"/>
				<v:ud v:nameU="Scale" v:val="VT0(1):26"/>
				<v:ud v:nameU="visVersion" v:val="VT0(12):26"/>
			</v:userDefs>
			<path d="M0 274.09 L15.19 282.51 L30.25 287.87 L45.2 290.15 L60.02 289.35 L74.73 285.48 L89.31 278.53 L89.61 278.34"
					class="st4"/>
		</g>
		<g id="shape6-16" v:mID="6" v:groupContext="shape" v:layerMember="0"
				transform="translate(162.806,-58.8642) rotate(-42.6141) scale(-1,1)">
			<title>Line-curve connector.6</title>
			<v:userDefs>
				<v:ud v:nameU="AntiScale" v:val="VT0(1):26"/>
				<v:ud v:nameU="Scale" v:val="VT0(1):26"/>
				<v:ud v:nameU="visVersion" v:val="VT0(12):26"/>
			</v:userDefs>
			<path d="M0 274.09 L12.54 283.5 L26 289.43 L40.4 291.87 L55.72 290.83 L71.97 286.3 L89.15 278.28 L89.46 278.09"
					class="st4"/>
		</g>
		<g id="shape7-21" v:mID="7" v:groupContext="shape" v:layerMember="0" transform="translate(326.41,414.467) rotate(-179.694)">
			<title>Line-curve connector.7</title>
			<v:userDefs>
				<v:ud v:nameU="AntiScale" v:val="VT0(1):26"/>
				<v:ud v:nameU="Scale" v:val="VT0(1):26"/>
				<v:ud v:nameU="visVersion" v:val="VT0(12):26"/>
			</v:userDefs>
			<path d="M0 274.09 L22.58 259.64 L44.98 249.14 L67.21 242.59 L89.27 240 L111.14 241.36 L132.84 246.67 L154.37 255.93
						 L175.72 269.14 L176.01 269.36" class="st4"/>
		</g>
		<g id="shape8-26" v:mID="8" v:groupContext="shape" v:layerMember="0" transform="translate(246.51,-153.864) rotate(45.5829)">
			<title>Line-curve connector.10</title>
			<v:userDefs>
				<v:ud v:nameU="AntiScale" v:val="VT0(1):26"/>
				<v:ud v:nameU="Scale" v:val="VT0(1):26"/>
				<v:ud v:nameU="visVersion" v:val="VT0(12):26"/>
			</v:userDefs>
			<path d="M0 274.09 L11.17 265.43 L22.66 259.44 L34.46 256.11 L46.58 255.43 L59.02 257.41 L71.77 262.05 L84.84 269.34
						 L85.14 269.55" class="st4"/>
		</g>
		<g id="shape12-31" v:mID="12" v:groupContext="shape" v:layerMember="0" transform="translate(90.4252,394.254) rotate(180)">
			<title>Loop on center.12</title>
			<v:userDefs>
				<v:ud v:nameU="ScaleFactor" v:val="VT0(1):26"/>
				<v:ud v:nameU="visVersion" v:val="VT0(11):26"/>
			</v:userDefs>
			<path d="M0 262.76 A20.1653 20.1653 0 1 1 2.62 288.54 L2.39 288.26" class="st6"/>
		</g>
		<g id="shape15-37" v:mID="15" v:groupContext="shape" transform="translate(192.472,-216.281)">
			<title>Ellipse</title>
			<desc>store global scene</desc>
			<v:userDefs>
				<v:ud v:nameU="visVersion" v:val="VT0(12):26"/>
			</v:userDefs>
			<v:textBlock v:margins="rect(4,4,4,4)" v:tabSpace="42.5197"/>
			<v:textRect cx="42.5197" cy="254.244" width="74.41" height="34.7244"/>
			<path d="M0 254.24 A42.5197 19.8425 0 1 1 85.04 254.24 A42.5197 19.8425 0 0 1 0 254.24 Z" class="st1"/>
			<text x="18.17" y="256.04" class="st2" v:langID="1033"><v:paragraph v:horizAlign="1"/><v:tabList/>s<tspan class="st3"
						v:langID="2057">tore global scene</tspan></text>		</g>
		<g id="shape17-41" v:mID="17" v:groupContext="shape" v:layerMember="0" transform="translate(379.559,395.671) scale(1,-1)">
			<title>Loop on center.17</title>
			<v:userDefs>
				<v:ud v:nameU="ScaleFactor" v:val="VT0(1):26"/>
				<v:ud v:nameU="visVersion" v:val="VT0(11):26"/>
			</v:userDefs>
			<path d="M0 262.06 A20.3876 20.3876 0 1 1 2.72 289.15 L2.48 288.88" class="st6"/>
		</g>
		<g id="shape18-46" v:mID="18" v:groupContext="shape" v:layerMember="0"
				transform="translate(6.90052,409.75) rotate(-137.386)">
			<title>Line-curve connector.18</title>
			<v:userDefs>
				<v:ud v:nameU="AntiScale" v:val="VT0(1):26"/>
				<v:ud v:nameU="Scale" v:val="VT0(1):26"/>
				<v:ud v:nameU="visVersion" v:val="VT0(12):26"/>
			</v:userDefs>
			<path d="M0 274.09 L15.12 266.79 L30.12 262.14 L45.02 260.15 L59.8 260.81 L74.48 264.13 L89.04 270.1 L89.35 270.27"
					class="st4"/>
		</g>
		<g id="shape21-51" v:mID="21" v:groupContext="shape" transform="translate(49.3228,-171.179)">
			<title>Sheet.21</title>
			<desc>other commands</desc>
			<v:textBlock v:margins="rect(4,4,4,4)" v:tabSpace="42.5197"/>
			<v:textRect cx="24.0945" cy="261.582" width="48.19" height="25.0079"/>
			<rect x="0" y="249.078" width="48.189" height="25.0079" class="st8"/>
			<text x="14.98" y="259.18" class="st9" v:langID="1033"><v:paragraph v:horizAlign="1"/><v:tabList/>o<tspan class="st3"
						v:langID="2057">ther </tspan><tspan x="4.53" dy="1.2em" class="st3" v:langID="2057">commands</tspan></text>		</g>
		<g id="shape22-56" v:mID="22" v:groupContext="shape" transform="translate(371.528,-171.651)">
			<title>Sheet.22</title>
			<desc>other commands</desc>
			<v:textBlock v:margins="rect(4,4,4,4)" v:tabSpace="42.5197"/>
			<v:textRect cx="23.8583" cy="262.055" width="47.72" height="24.063"/>
			<rect x="0" y="250.023" width="47.7165" height="24.063" class="st8"/>
			<text x="14.74" y="259.65" class="st9" v:langID="1033"><v:paragraph v:horizAlign="1"/><v:tabList/>o<tspan class="st3"
						v:langID="2057">ther </tspan><tspan x="4.3" dy="1.2em" class="st3" v:langID="2057">commands</tspan></text>		</g>
		<g id="shape26-61" v:mID="26" v:groupContext="shape" transform="translate(271.843,-43.3679)">
			<title>Sheet.26</title>
			<desc>OnWithRecallGlobalScene</desc>
			<v:textBlock v:margins="rect(4,4,4,4)" v:tabSpace="42.5197"/>
			<v:textRect cx="65.1968" cy="262.748" width="130.4" height="22.6772"/>
			<rect x="0" y="251.409" width="130.394" height="22.6772" class="st8"/>
			<text x="17.84" y="265.15" class="st9" v:langID="2057"><v:paragraph v:horizAlign="1"/><v:tabList/>On<tspan class="st3"
						v:langID="1033">W</tspan>ith<tspan class="st3" v:langID="1033">R</tspan>ecall<tspan class="st3"
						v:langID="1033">G</tspan>lobal<tspan class="st3" v:langID="1033">S</tspan>cene</text>		</g>
		<g id="shape31-68" v:mID="31" v:groupContext="shape" transform="translate(121.606,-230.454)">
			<title>Sheet.31</title>
			<desc>OffWithEffect</desc>
			<v:textBlock v:margins="rect(4,4,4,4)" v:tabSpace="42.5197"/>
			<v:textRect cx="32.5984" cy="265.582" width="65.2" height="17.0079"/>
			<rect x="0" y="257.078" width="65.1969" height="17.0079" class="st8"/>
			<text x="9.04" y="267.98" class="st9" v:langID="2057"><v:paragraph v:horizAlign="1"/><v:tabList/>Off<tspan class="st3"
						v:langID="1033">W</tspan>ith<tspan class="st3" v:langID="1033">E</tspan>ffect</text>		</g>
		<g id="shape11-73" v:mID="11" v:groupContext="shape" transform="translate(79.0866,-131.242)">
			<title>Ellipse.3</title>
			<desc>GlobalSceneControl := TRUE</desc>
			<v:userDefs>
				<v:ud v:nameU="visVersion" v:val="VT0(12):26"/>
			</v:userDefs>
			<v:textBlock v:margins="rect(4,4,4,4)" v:tabSpace="42.5197"/>
			<v:textRect cx="42.5197" cy="254.244" width="74.41" height="34.7244"/>
			<path d="M0 254.24 A42.5197 19.8425 0 1 1 85.04 254.24 A42.5197 19.8425 0 0 1 0 254.24 Z" class="st1"/>
			<text x="15.67" y="252.44" class="st2" v:langID="2057"><v:paragraph v:horizAlign="1"/><v:tabList/>GlobalSceneControl<v:newlineChar/><tspan
						x="30.93" dy="1.2em" class="st3" v:langID="1033">:</tspan>= T<tspan class="st3" v:langID="1033">RUE</tspan></text>		</g>
		<g id="shape1-78" v:mID="1" v:groupContext="shape" transform="translate(305.858,-131.242)">
			<title>Ellipse.1</title>
			<desc>GlobalSceneControl := FALSE</desc>
			<v:userDefs>
				<v:ud v:nameU="visVersion" v:val="VT0(12):26"/>
			</v:userDefs>
			<v:textBlock v:margins="rect(4,4,4,4)" v:tabSpace="42.5197"/>
			<v:textRect cx="42.5197" cy="254.244" width="74.41" height="34.7244"/>
			<path d="M0 254.24 A42.5197 19.8425 0 1 1 85.04 254.24 A42.5197 19.8425 0 0 1 0 254.24 Z" class="st1"/>
			<text x="15.67" y="252.44" class="st2" v:langID="2057"><v:paragraph v:horizAlign="1"/><v:tabList/>GlobalSceneControl<v:newlineChar/><tspan
						x="29.6" dy="1.2em" class="st3" v:langID="1033">:</tspan>= F<tspan class="st3" v:langID="1033">ALSE</tspan></text>		</g>
		<g id="shape32-83" v:mID="32" v:groupContext="shape" transform="translate(45.0709,-230.454)">
			<title>Sheet.32</title>
			<ellipse cx="5.66929" cy="268.417" rx="5.66929" ry="5.66929" class="st10"/>
		</g>
		<g id="shape33-85" v:mID="33" v:groupContext="shape" transform="translate(50.7402,-18.36)">
			<title>Sheet.33</title>
			<desc>Note 1: Any command which causes the OnOff attribute to be se...</desc>
			<v:textBlock v:margins="rect(4,4,4,4)" v:tabSpace="42.5197"/>
			<v:textRect cx="178.583" cy="266.086" width="357.17" height="16"/>
			<rect x="0" y="258.086" width="357.165" height="16" class="st8"/>
			<text x="4" y="267.89" class="st2" v:langID="2057"><v:paragraph/><v:tabList/>Note <tspan class="st3" v:langID="1033">1</tspan>: Any command which causes the OnOff attribute to be set to <tspan
						class="st3" v:langID="1033">TRUE except OnWithRecallGlobalScene</tspan>, e.g. On<tspan class="st3"
						v:langID="1033"> </tspan><tspan class="st3" v:langID="1033">or Toggle.</tspan></text>		</g>
		<g id="shape34-92" v:mID="34" v:groupContext="shape" transform="translate(161.291,-122.738)">
			<title>Sheet.34</title>
			<desc>On1</desc>
			<v:textBlock v:margins="rect(4,4,4,4)" v:tabSpace="42.5197"/>
			<v:textRect cx="14.1732" cy="266.086" width="28.35" height="16"/>
			<rect x="0" y="258.086" width="28.3465" height="16" class="st8"/>
			<text x="7.39" y="268.49" class="st9" v:langID="2057"><v:paragraph v:horizAlign="1"/><v:tabList/>O<tspan class="st3"
						v:langID="1033">n</tspan><tspan dy="-0.235em" class="st11" v:baseFontSize="8">1</tspan></text>		</g>
	</g>
</svg>
