<svg width="1280" height="720" xmlns="http://www.w3.org/2000/svg" xmlns:xlink="http://www.w3.org/1999/xlink" overflow="hidden"><defs><clipPath id="clip0"><rect x="0" y="0" width="1280" height="720"/></clipPath></defs><g clip-path="url(#clip0)"><rect x="0" y="0" width="1280" height="720" fill="#FFFFFF"/><rect x="1064" y="250" width="103" height="46" stroke="#FF0000" stroke-width="2" stroke-miterlimit="8" fill="none"/><text fill="#FF0000" font-family="Arial,Arial_MSFontService,sans-serif" font-weight="400" font-size="21" transform="translate(1079.17 269)">Bridged <tspan font-size="21" x="-4.75342" y="25">Device 1</tspan></text><path d="M0 0 39.0285 0.000104987" stroke="#FF0000" stroke-width="1.66667" stroke-miterlimit="8" fill="none" fill-rule="evenodd" transform="matrix(-1 0 0 1 1063.03 272)"/><rect x="1064" y="322" width="103" height="45" stroke="#FF0000" stroke-width="2" stroke-miterlimit="8" fill="none"/><text fill="#FF0000" font-family="Arial,Arial_MSFontService,sans-serif" font-weight="400" font-size="21" transform="translate(1079.17 340)">Bridged <tspan font-size="21" x="-4.7533" y="25">Device 2</tspan></text><path d="M1064.49 344.49 1023 344" stroke="#FF0000" stroke-width="1.66667" stroke-miterlimit="8" fill="none" fill-rule="evenodd"/><rect x="1064" y="393" width="103" height="46" stroke="#FF0000" stroke-width="2" stroke-miterlimit="8" fill="none"/><text fill="#FF0000" font-family="Arial,Arial_MSFontService,sans-serif" font-weight="400" font-size="21" transform="translate(1079.17 411)">Bridged <tspan font-size="21" x="-4.7533" y="25">Device 3</tspan></text><path d="M0 0 41.4864 0.000104987" stroke="#FF0000" stroke-width="1.66667" stroke-miterlimit="8" fill="none" fill-rule="evenodd" transform="matrix(-1 0 0 1 1064.49 416)"/><path d="M0 0 120.717 0.000104987" stroke="#FF0000" stroke-width="1.66667" stroke-miterlimit="8" fill="none" fill-rule="evenodd" transform="matrix(-1 0 0 1 1023.72 330)"/><path d="M1024 271 1024 415.697" stroke="#FF0000" stroke-width="1.66667" stroke-miterlimit="8" fill="none" fill-rule="evenodd"/><rect x="573" y="199" width="330" height="308" stroke="#7030A0" stroke-width="2" stroke-miterlimit="8" fill="none"/><text fill="#7030A0" font-family="Arial,Arial_MSFontService,sans-serif" font-weight="400" font-size="21" transform="translate(707.096 224)">Bridge</text><rect x="776.5" y="252.5" width="120" height="165" stroke="#000000" stroke-linejoin="round" stroke-miterlimit="10" stroke-dasharray="4 3" fill="none"/><text fill="#7030A0" font-family="Arial,Arial_MSFontService,sans-serif" font-weight="400" font-size="16" transform="translate(785.955 273)">Assumes <tspan font-size="16" x="0" y="19">responsibility </tspan><tspan font-size="16" x="0" y="38">for securing </tspan><tspan font-size="16" x="0" y="57">and certifying </tspan><tspan font-size="16" x="0" y="76">the </tspan><tspan font-size="16" x="26.6667" y="76">communi</tspan><tspan font-size="16" x="91.3334" y="76">-</tspan><tspan font-size="16" x="0" y="96">cation link to </tspan><tspan font-size="16" x="0" y="115">each Bridged </tspan><tspan font-size="16" x="0" y="134">Device</tspan></text><rect x="668.5" y="232.5" width="103" height="223" stroke="#000000" stroke-linejoin="round" stroke-miterlimit="10" stroke-dasharray="4 3" fill="none"/><text fill="#7030A0" font-family="Arial,Arial_MSFontService,sans-serif" font-weight="400" font-size="16" transform="translate(677.421 253)">Acts as an <tspan font-size="16" x="0" y="19">interpreter </tspan><tspan font-size="16" x="0" y="38">for Bridged </tspan><tspan font-size="16" x="0" y="57">Devices </tspan><tspan font-size="16" x="0" y="76">and </tspan><tspan font-size="16" x="0" y="96">presents </tspan><tspan font-size="16" x="0" y="115">them as </tspan><tspan font-size="16" x="0" y="134">Matter </tspan><tspan font-size="16" x="0" y="153">Devices to </tspan><tspan font-size="16" x="0" y="172">the various </tspan><tspan font-size="16" x="0" y="192">Matter </tspan><tspan font-size="16" x="49.8333" y="192">apps</tspan></text><rect x="580.5" y="269.5" width="83" height="126" stroke="#000000" stroke-linejoin="round" stroke-miterlimit="10" stroke-dasharray="4 3" fill="none"/><text fill="#7030A0" font-family="Arial,Arial_MSFontService,sans-serif" font-weight="400" font-size="16" transform="translate(589.649 290)">Presents <tspan font-size="16" x="0" y="19">a </tspan><tspan font-size="16" x="13.3333" y="19">Matter </tspan><tspan font-size="16" x="0" y="38">interface </tspan><tspan font-size="16" x="0" y="57">to the </tspan><tspan font-size="16" x="0" y="76">Matter </tspan><tspan font-size="16" x="0" y="96">apps</tspan></text><rect x="142" y="376" width="141" height="45" stroke="#00B050" stroke-width="2" stroke-miterlimit="8" fill="none"/><text fill="#00B050" font-family="Arial,Arial_MSFontService,sans-serif" font-weight="400" font-size="21" transform="translate(151.52 407)">Matter <tspan font-size="21" x="65.4867" y="0">App 3</tspan></text><path d="M0 0 39.0282 0.000104987" stroke="#00B050" stroke-width="1.66667" stroke-miterlimit="8" fill="none" fill-rule="evenodd" transform="matrix(-1 0 0 1 322.028 399)"/><rect x="142" y="304" width="141" height="46" stroke="#00B050" stroke-width="2" stroke-miterlimit="8" fill="none"/><text fill="#00B050" font-family="Arial,Arial_MSFontService,sans-serif" font-weight="400" font-size="21" transform="translate(151.521 335)">Matter <tspan font-size="21" x="65.4867" y="0">App 2</tspan></text><path d="M0 0 39.0282 0.000104987" stroke="#00B050" stroke-width="1.66667" stroke-miterlimit="8" fill="none" fill-rule="evenodd" transform="matrix(-1 0 0 1 322.028 327)"/><rect x="142" y="232" width="141" height="46" stroke="#00B050" stroke-width="2" stroke-miterlimit="8" fill="none"/><text fill="#00B050" font-family="Arial,Arial_MSFontService,sans-serif" font-weight="400" font-size="21" transform="translate(151.522 263)">Matter <tspan font-size="21" x="65.4867" y="0">App 1</tspan></text><path d="M0 0 39.0282 0.000104987" stroke="#00B050" stroke-width="1.66667" stroke-miterlimit="8" fill="none" fill-rule="evenodd" transform="matrix(-1 0 0 1 322.028 256)"/><rect x="165.5" y="430.5" width="175" height="115" stroke="#00B050" stroke-linejoin="round" stroke-miterlimit="10" stroke-dasharray="4 3" fill="none"/><text fill="#00B050" font-family="Arial,Arial_MSFontService,sans-serif" font-weight="400" font-size="17" transform="translate(174.85 452)">See and control <tspan font-size="17" x="126.5" y="0">all </tspan><tspan font-size="17" x="0" y="21">of</tspan><tspan font-size="17" x="19.3333" y="21">the Bridged </tspan><tspan font-size="17" x="0" y="41">Devices and </tspan><tspan font-size="17" x="100.333" y="41">Matter </tspan><tspan font-size="17" x="0" y="62">Devices using </tspan><tspan font-size="17" x="0" y="83">Matter </tspan><tspan font-size="17" x="54.1667" y="83">protocol</tspan></text><rect x="0" y="0" width="182" height="94" stroke="#FF0000" stroke-linejoin="round" stroke-miterlimit="10" stroke-dasharray="4 3" fill="none" transform="matrix(-1 0 0 1 1109.5 447.5)"/><text fill="#FF0000" font-family="Arial,Arial_MSFontService,sans-serif" font-weight="400" font-size="17" transform="translate(936.578 469)">Non<tspan font-size="17" x="31.8334" y="0">-</tspan><tspan font-size="17" x="37.6667" y="0">Matter </tspan><tspan font-size="17" x="0" y="21">Transport Layer (</tspan><tspan font-size="17" x="132.86" y="21">e.g.</tspan><tspan font-size="17" x="0" y="41">Zigbee</tspan><tspan font-size="17" x="53.1667" y="41">; Z</tspan><tspan font-size="17" x="73.5" y="41">-</tspan><tspan font-size="17" x="79.3334" y="41">Wave</tspan><tspan font-size="17" x="123.027" y="41">; </tspan><tspan font-size="17" x="0" y="62">proprietary</tspan><tspan font-size="17" x="83.1667" y="62">; etc.)</tspan></text><rect x="712" y="36" width="155" height="55" stroke="#0070C0" stroke-width="2" stroke-miterlimit="8" fill="none"/><text fill="#0070C0" font-family="Arial,Arial_MSFontService,sans-serif" font-weight="400" font-size="21" transform="translate(726.748 59)">Manufacturer <tspan font-size="21" x="44.0001" y="25">App</tspan></text><path d="M703 199.172 703 64 712.688 64" stroke="#0070C0" stroke-width="1.66667" stroke-miterlimit="8" fill="none" fill-rule="evenodd"/><rect x="549.5" y="92.5001" width="144" height="73" stroke="#0070C0" stroke-linejoin="round" stroke-miterlimit="10" stroke-dasharray="4 3" fill="none"/><text fill="#0070C0" font-family="Arial,Arial_MSFontService,sans-serif" font-weight="400" font-size="17" transform="translate(575.216 114)">Manufacturer<tspan font-size="17" x="102.5" y="0">-</tspan><tspan font-size="17" x="51.3333" y="21">defined </tspan><tspan font-size="17" x="41.6666" y="41">interface</tspan></text><rect x="487" y="541" width="173" height="26" stroke="#00B050" stroke-width="2" stroke-miterlimit="8" fill="none"/><text fill="#00B050" font-family="Arial,Arial_MSFontService,sans-serif" font-weight="400" font-size="21" transform="translate(498.717 562)">Matter <tspan font-size="21" x="66.6667" y="0">Device 1</tspan></text><path d="M437 549 485.858 549" stroke="#00B050" stroke-width="1.66667" stroke-miterlimit="8" fill="none" fill-rule="evenodd"/><path d="M438 585 486 585" stroke="#00B050" stroke-width="1.66667" stroke-miterlimit="8" fill="none" fill-rule="evenodd"/><path d="M0 0 48.5299 0.000104987" stroke="#00B050" stroke-width="1.66667" stroke-miterlimit="8" fill="none" fill-rule="evenodd" transform="matrix(1 0 0 -1 438 621)"/><path d="M437 657 485.858 657" stroke="#00B050" stroke-width="1.66667" stroke-miterlimit="8" fill="none" fill-rule="evenodd"/><path d="M438 420 438 656.346" stroke="#00B050" stroke-width="1.66667" stroke-miterlimit="8" fill="none" fill-rule="evenodd"/><path d="M367.528 360.938C365.526 350.46 375.832 340.811 390.545 339.386 396.508 338.808 402.57 339.672 407.761 341.838 413.262 334.453 426.117 331.647 436.474 335.569 438.285 336.255 439.947 337.125 441.408 338.15 445.693 332.029 456.129 329.542 464.717 332.596 467.095 333.441 469.168 334.663 470.779 336.168 477.685 330.38 489.888 329.665 498.035 334.571 501.459 336.634 503.767 339.478 504.563 342.617 515.878 344.815 522.552 353.143 519.472 361.217 519.213 361.896 518.888 362.561 518.499 363.208 527.574 371.621 525.352 383.68 513.537 390.142 509.859 392.153 505.515 393.456 500.925 393.923 500.823 402.974 490.428 410.253 477.708 410.181 473.458 410.156 469.3 409.296 465.695 407.694 461.393 417.842 446.385 423.578 432.175 420.505 426.22 419.218 421.075 416.495 417.617 412.8 403.067 419.05 384.183 415.688 375.437 405.291 375.327 405.16 375.219 405.029 375.112 404.896 365.59 405.69 356.965 400.851 355.848 394.088 355.252 390.483 356.923 386.875 360.415 384.225 352.17 380.769 349.401 373.182 354.229 367.279 357.015 363.874 361.9 361.623 367.383 361.218Z" stroke="#00B050" stroke-width="2" stroke-miterlimit="8" fill="none" fill-rule="evenodd"/><path d="M370.685 385.535C367.165 385.732 363.646 385.152 360.6 383.875M379.584 403.706C378.168 404.108 376.685 404.375 375.171 404.501M417.607 412.438C416.542 411.3 415.651 410.085 414.948 408.812M466.774 403.398C466.618 404.747 466.262 406.08 465.712 407.376M487.884 378.821C495.864 381.587 500.901 387.37 500.829 393.687M518.418 362.987C517.126 365.138 515.153 367.046 512.654 368.562M504.586 342.304C504.807 343.173 504.908 344.054 504.891 344.937M467.773 339.233C468.525 338.019 469.519 336.888 470.727 335.876M440.154 340.833C440.46 339.83 440.941 338.857 441.584 337.938M407.741 341.817C409.619 342.6 411.357 343.544 412.916 344.626M368.432 363.894C368.022 362.927 367.72 361.939 367.528 360.938" stroke="#00B050" stroke-width="2" stroke-miterlimit="8" fill="none" fill-rule="evenodd"/><text fill="#00B050" font-family="Arial,Arial_MSFontService,sans-serif" font-weight="400" font-size="24" transform="translate(398.064 368)">Matter<tspan font-size="24" x="0.666687" y="29">Fabric</tspan></text><path d="M0 0 50.9921 0.000104987" stroke="#00B050" stroke-width="1.66667" stroke-miterlimit="8" fill="none" fill-rule="evenodd" transform="matrix(-1 0 0 1 572.992 367)"/><rect x="486" y="577" width="173" height="26" stroke="#00B050" stroke-width="2" stroke-miterlimit="8" fill="none"/><text fill="#00B050" font-family="Arial,Arial_MSFontService,sans-serif" font-weight="400" font-size="21" transform="translate(497.711 598)">Matter <tspan font-size="21" x="66.6667" y="0">Device 2</tspan></text><rect x="488" y="613" width="171" height="26" stroke="#00B050" stroke-width="2" stroke-miterlimit="8" fill="none"/><text fill="#00B050" font-family="Arial,Arial_MSFontService,sans-serif" font-weight="400" font-size="21" transform="translate(498.378 634)">Matter <tspan font-size="21" x="66.6667" y="0">Device 3</tspan></text><rect x="487" y="649" width="171" height="26" stroke="#00B050" stroke-width="2" stroke-miterlimit="8" fill="none"/><text fill="#00B050" font-family="Arial,Arial_MSFontService,sans-serif" font-weight="400" font-size="21" transform="translate(498.049 670)">Matter <tspan font-size="21" x="66.6667" y="0">Device 4</tspan></text><path d="M0 0 30.998 0.000104987" stroke="#00B050" stroke-width="1.66667" stroke-miterlimit="8" fill="none" fill-rule="evenodd" transform="matrix(-1 0 0 1 351.998 376)"/><path d="M0 0 0.000104987 143.928" stroke="#00B050" stroke-width="1.66667" stroke-miterlimit="8" fill="none" fill-rule="evenodd" transform="matrix(1 0 0 -1 322 398.928)"/></g></svg>