<svg width="1890" height="794" xmlns="http://www.w3.org/2000/svg" xmlns:xlink="http://www.w3.org/1999/xlink" overflow="hidden"><defs><clipPath id="clip0"><rect x="0" y="0" width="1890" height="794"/></clipPath></defs><g clip-path="url(#clip0)"><rect x="0" y="0" width="1890" height="794.263" fill="#FFFFFF"/><path d="M269 365.454C269 354.221 278.103 345.114 289.333 345.114L876.667 345.114C887.897 345.114 897 354.221 897 365.454L897 446.815C897 458.048 887.897 467.155 876.667 467.155L289.333 467.155C278.103 467.155 269 458.048 269 446.815Z" fill="#D9D9D9" fill-rule="evenodd"/><text font-family="Arial,Arial_MSFontService,sans-serif" font-style="italic" font-weight="700" font-size="21" transform="matrix(1 0 0 1.00033 284.466 376)">Descriptor cluster:<tspan font-style="normal" font-size="21" x="12.0011" y="24.9917">DeviceTypes: </tspan><tspan font-style="normal" font-size="21" x="153.76" y="24.9917">Extended Color Light, </tspan><tspan fill="#00B050" font-style="normal" font-size="21" x="381.447" y="24.9917">Bridged Node</tspan><tspan font-size="21" x="0" y="50.9831">Bridged Device Basic Information cluster:</tspan><tspan font-style="normal" font-size="21" x="12.0011" y="76.9745">NodeLabel</tspan><tspan font-style="normal" font-size="21" x="120.844" y="76.9745">: "kitchen"</tspan></text><path d="M907 365.621C907 354.296 916.178 345.114 927.5 345.114L1583.5 345.114C1594.82 345.114 1604 354.296 1604 365.621L1604 447.648C1604 458.974 1594.82 468.155 1583.5 468.155L927.5 468.155C916.178 468.155 907 458.974 907 447.648Z" fill="#D9D9D9" fill-rule="evenodd"/><text font-family="Arial,Arial_MSFontService,sans-serif" font-style="italic" font-weight="700" font-size="21" transform="matrix(1 0 0 1.00033 922.352 376)">Descriptor cluster:<tspan font-style="normal" font-size="21" x="12.001" y="24.9917">DeviceTypes: </tspan><tspan font-style="normal" font-size="21" x="153.76" y="24.9917">Color Temperature Light, </tspan><tspan fill="#00B050" font-style="normal" font-size="21" x="413.196" y="24.9917">Bridged Node</tspan><tspan font-size="21" x="0" y="50.9831">Bridged Device Basic Information cluster:</tspan><tspan font-style="normal" font-size="21" x="12.001" y="76.9745">NodeLabel</tspan><tspan font-style="normal" font-size="21" x="120.844" y="76.9745">: "reading light"</tspan></text><path d="M269 237.579C269 227.358 277.283 219.073 287.5 219.073L878.5 219.073C888.717 219.073 897 227.358 897 237.579L897 311.603C897 321.824 888.717 330.109 878.5 330.109L287.5 330.109C277.283 330.109 269 321.824 269 311.603Z" fill="#D9D9D9" fill-rule="evenodd"/><text font-family="Arial,Arial_MSFontService,sans-serif" font-style="italic" font-weight="700" font-size="21" transform="matrix(1 0 0 1.00033 283.918 244)">Descriptor cluster:<tspan font-style="normal" font-size="21" x="12.0011" y="24.9917">DeviceTypes: </tspan><tspan font-style="normal" font-size="21" x="153.76" y="24.9917">Extended Color Light, </tspan><tspan fill="#00B050" font-style="normal" font-size="21" x="381.447" y="24.9917">Bridged Node</tspan><tspan font-size="21" x="0" y="50.9831">Bridged Device Basic Information cluster:</tspan><tspan font-style="normal" font-size="21" x="12.0011" y="76.9745">NodeLabel</tspan><tspan font-style="normal" font-size="21" x="120.844" y="76.9745">: "dining table"</tspan></text><path d="M269 506.501C269 495.268 278.103 486.161 289.333 486.161L876.667 486.161C887.897 486.161 897 495.268 897 506.501L897 587.862C897 599.095 887.897 608.202 876.667 608.202L289.333 608.202C278.103 608.202 269 599.095 269 587.862Z" fill="#D9D9D9" fill-rule="evenodd"/><text font-family="Arial,Arial_MSFontService,sans-serif" font-style="italic" font-weight="700" font-size="21" transform="matrix(1 0 0 1.00033 284.451 517)">Descriptor cluster:<tspan font-style="normal" font-size="21" x="12.0011" y="24.9917">DeviceTypes: Dimmable Light, </tspan><tspan fill="#00B050" font-style="normal" font-size="21" x="325.942" y="24.9917">Bridged Node</tspan><tspan font-size="21" x="0" y="50.9831">Bridged Device Basic Information cluster:</tspan><tspan font-style="normal" font-size="21" x="12.0011" y="76.9745">NodeLabel</tspan><tspan font-style="normal" font-size="21" x="120.844" y="76.9745">: "hallway" </tspan></text><path d="M907 507.335C907 495.641 916.477 486.161 928.167 486.161L1582.83 486.161C1594.52 486.161 1604 495.641 1604 507.335L1604 592.029C1604 603.723 1594.52 613.203 1582.83 613.203L928.167 613.203C916.477 613.203 907 603.723 907 592.029Z" fill="#D9D9D9" fill-rule="evenodd"/><text font-family="Arial,Arial_MSFontService,sans-serif" font-style="italic" font-weight="700" font-size="21" transform="matrix(1 0 0 1.00033 922.559 520)">Descriptor cluster:<tspan font-style="normal" font-size="21" x="12.001" y="24.9917">DeviceTypes: Temperature Sensor, </tspan><tspan fill="#00B050" font-style="normal" font-size="21" x="370.346" y="24.9917">Bridged Node</tspan><tspan font-size="21" x="0" y="50.9831">Bridged Device Basic Information cluster:</tspan><tspan font-style="normal" font-size="21" x="12.001" y="76.9745">NodeLabel</tspan><tspan font-style="normal" font-size="21" x="120.844" y="76.9745">: "outdoor temperature" </tspan></text><path d="M269 650.716C269 637.733 279.521 627.208 292.5 627.208L873.5 627.208C886.479 627.208 897 637.733 897 650.716L897 744.747C897 757.73 886.479 768.255 873.5 768.255L292.5 768.255C279.521 768.255 269 757.73 269 744.747Z" fill="#D9D9D9" fill-rule="evenodd"/><text font-family="Arial,Arial_MSFontService,sans-serif" font-style="italic" font-weight="700" font-size="21" transform="matrix(1 0 0 1.00033 285.388 668)">Descriptor cluster:<tspan font-style="normal" font-size="21" x="12.0011" y="24.9917">DeviceTypes: Generic Switch, </tspan><tspan fill="#00B050" font-style="normal" font-size="21" x="320.108" y="24.9917">Bridged Node</tspan><tspan font-size="21" x="0" y="50.9831">Bridged Device Basic Information cluster:</tspan><tspan font-style="normal" font-size="21" x="12.0011" y="76.9745">NodeLabel</tspan><tspan font-style="normal" font-size="21" x="120.844" y="76.9745">: "living room entrance"</tspan></text><path d="M907 650.716C907 637.733 917.521 627.208 930.5 627.208L1580.5 627.208C1593.48 627.208 1604 637.733 1604 650.716L1604 744.747C1604 757.73 1593.48 768.255 1580.5 768.255L930.5 768.255C917.521 768.255 907 757.73 907 744.747Z" fill="#D9D9D9" fill-rule="evenodd"/><text font-family="Arial,Arial_MSFontService,sans-serif" font-style="italic" font-weight="700" font-size="21" transform="matrix(1 0 0 1.00033 923.252 668)">Descriptor cluster:<tspan font-style="normal" font-size="21" x="12.001" y="24.9917">DeviceTypes: Generic Switch, </tspan><tspan fill="#00B050" font-style="normal" font-size="21" x="320.108" y="24.9917">Bridged Node</tspan><tspan font-size="21" x="0" y="50.9831">Bridged Device Basic Information cluster:</tspan><tspan font-style="normal" font-size="21" x="12.001" y="76.9745">NodeLabel</tspan><tspan font-style="normal" font-size="21" x="120.844" y="76.9745">: "kitchen entrance"</tspan><tspan font-style="normal" font-weight="400" font-size="27" x="10.3947" y="-570.811">The </tspan><tspan font-style="normal" font-weight="400" font-size="27" x="63.7328" y="-570.811">PartsList</tspan><tspan font-style="normal" font-weight="400" font-size="27" x="174.743" y="-570.811">on endpoint 0 lists all endpoints for bridged </tspan><tspan font-style="normal" font-weight="400" font-size="27" x="10.3947" y="-538.821">devices; each endpoint 11..17 represents one device at </tspan><tspan font-style="normal" font-weight="400" font-size="27" x="10.3947" y="-506.832">the non</tspan><tspan font-style="normal" font-weight="400" font-size="27" x="99.2359" y="-506.832">-</tspan><tspan font-style="normal" font-weight="400" font-size="27" x="108.07" y="-506.832">Matter side of the bridge.</tspan></text><path d="M269 87.5292C269 74.5461 279.521 64.0212 292.5 64.0212L806.5 64.0212C819.479 64.0212 830 74.5461 830 87.5292L830 181.56C830 194.543 819.479 205.068 806.5 205.068L292.5 205.068C279.521 205.068 269 194.543 269 181.56Z" fill="#A9D18E" fill-rule="evenodd"/><text font-family="Arial,Arial_MSFontService,sans-serif" font-style="italic" font-weight="700" font-size="21" transform="matrix(1 0 0 1.00033 285.388 91)">Descriptor cluster:<tspan font-style="normal" font-size="21" x="12.0011" y="25.9914">DeviceTypes</tspan><tspan font-style="normal" font-size="21" x="140.592" y="25.9914">: Root Node, Bridge</tspan><tspan font-style="normal" font-size="21" x="12.0011" y="51.9828">PartsList</tspan><tspan font-style="normal" font-size="21" x="103.342" y="51.9828">: EP 11,12,13,14,15,16,17</tspan><tspan font-size="21" x="0" y="77.9741">Basic Information cluster:</tspan><tspan font-style="normal" font-size="21" x="12.0011" y="102.966">..</tspan><tspan font-style="normal" font-size="21" x="476.279" y="8.99701">EP 0</tspan><tspan font-style="normal" font-size="21" x="528.73" y="166.945">EP 11</tspan><tspan font-style="normal" font-size="21" x="528.73" y="297.901">EP 12</tspan><tspan font-style="normal" font-size="21" x="528.73" y="428.858">EP 13</tspan><tspan font-style="normal" font-size="21" x="528.73" y="566.812">EP 14</tspan><tspan font-style="normal" font-size="21" x="1218.48" y="296.901">EP 15</tspan><tspan font-style="normal" font-size="21" x="1218.48" y="429.857">EP 16</tspan><tspan font-style="normal" font-size="21" x="1218.48" y="566.812">EP 17</tspan></text></g></svg>