<svg width="1890" height="794" xmlns="http://www.w3.org/2000/svg" xmlns:xlink="http://www.w3.org/1999/xlink" overflow="hidden"><defs><clipPath id="clip0"><rect x="0" y="0" width="1890" height="794"/></clipPath></defs><g clip-path="url(#clip0)"><rect x="0" y="0" width="1890" height="794.263" fill="#FFFFFF"/><path d="M36 66.8554C36 38.2192 59.2065 15.0049 87.8332 15.0049L541.167 15.0049C569.793 15.0049 593 38.2192 593 66.8554L593 274.258C593 302.894 569.793 326.108 541.167 326.108L87.8332 326.108C59.2065 326.108 36 302.894 36 274.258Z" fill="#A9D18E" fill-rule="evenodd"/><text font-family="Arial,Arial_MSFontService,sans-serif" font-style="italic" font-weight="700" font-size="21" transform="matrix(1 0 0 1.00033 60.5862 51)">Descriptor cluster:<tspan font-style="normal" font-size="21" x="12.0011" y="24.9917">DeviceTypes: Root Node, Bridge</tspan><tspan font-style="normal" font-size="21" x="12.0011" y="50.9831">PartsList: EP 12,13,14,22,23,24,25,26</tspan><tspan font-size="21" x="0" y="76.9745">Basic Information cluster:</tspan><tspan font-style="normal" font-size="21" x="12.0011" y="101.966">..</tspan><tspan font-size="21" x="0" y="127.958">Bridged Actions cluster:</tspan><tspan font-style="normal" font-size="21" x="11.2077" y="152.949">ActionList</tspan><tspan font-style="normal" font-size="21" x="115.55" y="152.949">: [ ]</tspan><tspan font-style="normal" font-size="21" x="12.0011" y="178.941">EndpointLists</tspan><tspan font-style="normal" font-size="21" x="154.18" y="178.941">: [</tspan><tspan font-style="normal" font-size="21" x="24.0021" y="204.932">[0xE001, "living room", room, [12,13,14] ],</tspan><tspan font-style="normal" font-size="21" x="24.0021" y="229.924">[0xE002, "bedroom", room, [22,23,24,25,26] ]</tspan><tspan font-style="normal" font-size="21" x="0" y="255.915">]</tspan></text><path d="M1310 650.716C1310 638.838 1319.63 629.209 1331.5 629.209L1815.5 629.209C1827.37 629.209 1837 638.838 1837 650.716L1837 736.744C1837 748.622 1827.37 758.251 1815.5 758.251L1331.5 758.251C1319.63 758.251 1310 748.622 1310 736.744Z" fill="#D9D9D9" fill-rule="evenodd"/><text font-family="Arial,Arial_MSFontService,sans-serif" font-style="italic" font-weight="700" font-size="21" transform="matrix(1 0 0 1.00033 1325.97 664)">Descriptor cluster:<tspan font-style="normal" font-size="21" x="12.0011" y="24.9917">DeviceTypes: </tspan><tspan font-style="normal" font-size="21" x="153.76" y="24.9917">Extended Color Light</tspan><tspan font-size="21" x="0" y="50.9831">Fixed Label cluster:</tspan><tspan font-style="normal" font-size="21" x="12.0011" y="76.9745">LabelList</tspan><tspan font-style="normal" font-size="21" x="105.676" y="76.9745">: [["</tspan><tspan font-style="normal" font-size="21" x="143.346" y="76.9745">orientation","down</tspan><tspan font-style="normal" font-size="21" x="335.696" y="76.9745">"]]</tspan></text><path d="M42 363.287C42 351.593 51.4766 342.113 63.1665 342.113L629.833 342.113C641.523 342.113 651 351.593 651 363.287L651 447.982C651 459.676 641.523 469.156 629.833 469.156L63.1665 469.156C51.4766 469.156 42 459.676 42 447.982Z" fill="#D9D9D9" fill-rule="evenodd"/><text font-family="Arial,Arial_MSFontService,sans-serif" font-style="italic" font-weight="700" font-size="21" transform="matrix(1 0 0 1.00033 58.2463 376)">Descriptor cluster:<tspan font-style="normal" font-size="21" x="12.0011" y="24.9917">DeviceTypes: </tspan><tspan font-style="normal" font-size="21" x="153.76" y="24.9917">Extended Color Light, </tspan><tspan fill="#00B050" font-style="normal" font-size="21" x="381.447" y="24.9917">Bridged Node</tspan><tspan font-size="21" x="0" y="50.9831">Bridged Device Basic Information cluster:</tspan><tspan font-style="normal" font-size="21" x="12.0011" y="76.9745">NodeLabel</tspan><tspan font-style="normal" font-size="21" x="120.844" y="76.9745">: "dining table"</tspan></text><path d="M687 303.601C687 291.17 697.074 281.093 709.5 281.093L1279.5 281.093C1291.93 281.093 1302 291.17 1302 303.601L1302 393.63C1302 406.061 1291.93 416.138 1279.5 416.138L709.5 416.138C697.074 416.138 687 406.061 687 393.63Z" fill="#D9D9D9" fill-rule="evenodd"/><text font-family="Arial,Arial_MSFontService,sans-serif" font-style="italic" font-weight="700" font-size="21" transform="matrix(1 0 0 1.00033 703.062 319)">Descriptor cluster:<tspan font-style="normal" font-size="21" x="12.0011" y="24.9917">DeviceTypes</tspan><tspan font-style="normal" font-size="21" x="140.592" y="24.9917">: </tspan><tspan font-style="normal" font-size="21" x="153.76" y="24.9917">Color Temperature Light, </tspan><tspan fill="#00B050" font-style="normal" font-size="21" x="413.197" y="24.9917">Bridged Node</tspan><tspan font-size="21" x="0" y="50.9831">Bridged Device Basic Information cluster:</tspan><tspan font-style="normal" font-size="21" x="12.0011" y="76.9745">NodeLabel</tspan><tspan font-style="normal" font-size="21" x="120.844" y="76.9745">: "ceiling light"</tspan></text><path d="M42 499.666C42 488.34 51.1782 479.159 62.5 479.159L622.5 479.159C633.822 479.159 643 488.34 643 499.666L643 581.693C643 593.018 633.822 602.2 622.5 602.2L62.5 602.2C51.1782 602.2 42 593.018 42 581.693Z" fill="#D9D9D9" fill-rule="evenodd"/><text font-family="Arial,Arial_MSFontService,sans-serif" font-style="italic" font-weight="700" font-size="21" transform="matrix(1 0 0 1.00033 57.2013 511)">Descriptor cluster:<tspan font-style="normal" font-size="21" x="12.0011" y="24.9917">DeviceTypes: </tspan><tspan font-style="normal" font-size="21" x="153.76" y="24.9917">Color Temperature Light, </tspan><tspan fill="#00B050" font-style="normal" font-size="21" x="413.196" y="24.9917">Bridged Node</tspan><tspan font-size="21" x="0" y="50.9831">Bridged Device Basic Information cluster:</tspan><tspan font-style="normal" font-size="21" x="12.0011" y="76.9745">NodeLabel</tspan><tspan font-style="normal" font-size="21" x="120.844" y="76.9745">: "kitchen light" </tspan></text><path d="M674 483.16C674 452.775 698.624 428.142 729 428.142L1241 428.142C1271.38 428.142 1296 452.775 1296 483.16L1296 703.233C1296 733.619 1271.38 758.251 1241 758.251L729 758.251C698.624 758.251 674 733.619 674 703.233Z" fill="#D9D9D9" fill-rule="evenodd"/><text font-family="Arial,Arial_MSFontService,sans-serif" font-style="italic" font-weight="700" font-size="21" transform="matrix(1 0 0 1.00033 700.075 473)">Descriptor cluster:<tspan font-style="normal" font-size="21" x="12.0011" y="24.9917">DeviceTypes: Temperature Sensor, </tspan><tspan fill="#00B050" font-style="normal" font-size="21" x="370.346" y="24.9917">Bridged Node</tspan><tspan font-style="normal" font-size="21" x="510.025" y="24.9917">,</tspan><tspan font-style="normal" font-size="21" x="156.014" y="50.9831">Power Source</tspan><tspan font-size="21" x="0" y="76.9745">Bridged Device Basic Information cluster:</tspan><tspan font-style="normal" font-size="21" x="12.0011" y="101.966">NodeLabel</tspan><tspan font-style="normal" font-size="21" x="120.844" y="101.966">: "bedroom temperature"</tspan><tspan font-size="21" x="0" y="127.958">Power Source Configuration cluster:</tspan><tspan font-style="normal" font-size="21" x="12.0011" y="152.949">Sources: EP 23</tspan><tspan font-size="21" x="0" y="178.941">Power Source cluster: (features=BAT,REPLC)</tspan><tspan font-style="normal" font-size="21" x="12.0011" y="204.932">BatChargeLevel</tspan><tspan font-style="normal" font-size="21" x="174.182" y="204.932">: Warning</tspan><tspan font-style="normal" font-size="21" x="12.0011" y="229.924">BatReplacementDescription</tspan><tspan font-style="normal" font-size="21" x="296.359" y="229.924">: "AAA batteries"</tspan><tspan font-style="normal" font-size="21" x="12.0011" y="255.915">BatQuantity</tspan><tspan font-style="normal" font-size="21" x="133.012" y="255.915">: 2</tspan></text><path d="M45 633.71C45 622.385 54.1781 613.203 65.5 613.203L625.5 613.203C636.822 613.203 646 622.385 646 633.71L646 715.737C646 727.063 636.822 736.244 625.5 736.244L65.5 736.244C54.1781 736.244 45 727.063 45 715.737Z" fill="#D9D9D9" fill-rule="evenodd"/><text font-family="Arial,Arial_MSFontService,sans-serif" font-style="italic" font-weight="700" font-size="21" transform="matrix(1 0 0 1.00033 60.9481 645)">Descriptor cluster:<tspan font-style="normal" font-size="21" x="12.0011" y="24.9917">DeviceTypes: Generic Switch, </tspan><tspan fill="#00B050" font-style="normal" font-size="21" x="320.108" y="24.9917">Bridged Node</tspan><tspan font-size="21" x="0" y="50.9831">Bridged Device Basic Information cluster:</tspan><tspan font-style="normal" font-size="21" x="12.0011" y="76.9745">NodeLabel</tspan><tspan font-style="normal" font-size="21" x="120.844" y="76.9745">: "living room entrance"</tspan><tspan font-style="normal" font-weight="400" font-size="27" x="629.189" y="-567.812">In this example, the Bridged Actions cluster is used to indicate grouping, </tspan><tspan font-style="normal" font-weight="400" font-size="27" x="1485.12" y="-567.812">i.e.</tspan><tspan font-style="normal" font-weight="400" font-size="27" x="1527.96" y="-567.812">which devices </tspan><tspan font-style="normal" font-weight="400" font-size="27" x="629.189" y="-535.822">are in which room. The bedroom has 3 bridged devices, and one of them (endpoint </tspan><tspan font-style="normal" font-weight="400" font-size="27" x="629.189" y="-503.833">24,25,26) is a composed device </tspan><tspan font-style="normal" font-weight="400" font-size="27" x="1012.72" y="-503.833">-</tspan><tspan font-style="normal" font-weight="400" font-size="27" x="1028.89" y="-503.833">which is using the Fixed Label cluster to expose </tspan><tspan font-style="normal" font-weight="400" font-size="27" x="629.189" y="-471.843">information on the user</tspan><tspan font-style="normal" font-weight="400" font-size="27" x="901.546" y="-471.843">-</tspan><tspan font-style="normal" font-weight="400" font-size="27" x="910.38" y="-471.843">relevant components of the composed device (endpoint 25,26).</tspan></text><path d="M27.9999 355.236C27.9999 339.149 41.0364 326.108 57.1178 326.108L626.882 326.108C642.964 326.108 656 339.149 656 355.236L656 744.129C656 760.216 642.964 773.256 626.882 773.256L57.1178 773.256C41.0364 773.256 27.9999 760.216 27.9999 744.129Z" stroke="#FF0000" stroke-width="8.00071" stroke-miterlimit="8" stroke-dasharray="24.0021 8.00071" fill="none" fill-rule="evenodd"/><text fill="#FF0000" font-family="Arial,Arial_MSFontService,sans-serif" font-weight="400" font-size="32" transform="matrix(1 0 0 1.00033 339.007 767)">living room<tspan font-size="32" x="742.379" y="-7.99735">bedroom</tspan></text><path d="M1306 509.669C1306 497.791 1315.63 488.162 1327.5 488.162L1809.5 488.162C1821.37 488.162 1831 497.791 1831 509.669L1831 595.698C1831 607.576 1821.37 617.205 1809.5 617.205L1327.5 617.205C1315.63 617.205 1306 607.576 1306 595.698Z" fill="#D9D9D9" fill-rule="evenodd"/><text font-family="Arial,Arial_MSFontService,sans-serif" font-style="italic" font-weight="700" font-size="21" transform="matrix(1 0 0 1.00033 1321.77 523)">Descriptor cluster:<tspan font-style="normal" font-size="21" x="12.001" y="24.9917">DeviceTypes: </tspan><tspan font-style="normal" font-size="21" x="153.76" y="24.9917">Extended Color Light</tspan><tspan font-size="21" x="0" y="50.9831">Fixed Label cluster:</tspan><tspan font-style="normal" font-size="21" x="12.001" y="76.9745">LabelList</tspan><tspan font-style="normal" font-size="21" x="105.676" y="76.9745">: [["</tspan><tspan font-style="normal" font-size="21" x="143.346" y="76.9745">orientation","up</tspan><tspan font-style="normal" font-size="21" x="306.027" y="76.9745">"]]</tspan></text><path d="M677 272.549C677 253.512 692.428 238.079 711.459 238.079L1827.54 238.079C1846.57 238.079 1862 253.512 1862 272.549L1862 732.784C1862 751.822 1846.57 767.255 1827.54 767.255L711.459 767.255C692.428 767.255 677 751.822 677 732.784Z" stroke="#FF0000" stroke-width="8.00071" stroke-miterlimit="8" stroke-dasharray="24.0021 8.00071" fill="none" fill-rule="evenodd"/><text fill="#7030A0" font-family="Arial,Arial_MSFontService,sans-serif" font-weight="400" font-size="27" transform="matrix(1 0 0 1.00033 1556.1 298)">composed device</text><path d="M1310 346.615C1310 332.527 1321.42 321.106 1335.5 321.106L1805.5 321.106C1819.58 321.106 1831 332.527 1831 346.615L1831 448.649C1831 462.737 1819.58 474.157 1805.5 474.157L1335.5 474.157C1321.42 474.157 1310 462.737 1310 448.649Z" fill="#D9D9D9" fill-rule="evenodd"/><text font-family="Arial,Arial_MSFontService,sans-serif" font-style="italic" font-weight="700" font-size="21" transform="matrix(1 0 0 1.00033 1327.19 355)">Descriptor cluster:<tspan font-style="normal" font-size="21" x="12.0011" y="24.9917">DeviceTypes</tspan><tspan font-style="normal" font-size="21" x="140.592" y="24.9917">: </tspan><tspan fill="#00B050" font-style="normal" font-size="21" x="153.76" y="24.9917">Bridged Node</tspan><tspan font-style="normal" font-size="21" x="12.0011" y="50.9831">PartsList</tspan><tspan font-style="normal" font-size="21" x="103.343" y="50.9831">: 25,26</tspan><tspan font-size="21" x="0" y="76.9745">Bridged Device Basic Information cluster:</tspan><tspan font-style="normal" font-size="21" x="12.0011" y="101.966">NodeLabel</tspan><tspan font-style="normal" font-size="21" x="120.844" y="101.966">: "bedroom light"</tspan></text><path d="M1308.5 336.055C1308.5 319.788 1321.68 306.602 1337.94 306.602L1819.06 306.602C1835.32 306.602 1848.5 319.788 1848.5 336.055L1848.5 729.299C1848.5 745.565 1835.32 758.752 1819.06 758.752L1337.94 758.752C1321.68 758.752 1308.5 745.565 1308.5 729.299Z" stroke="#7030A0" stroke-width="5.00044" stroke-miterlimit="8" stroke-dasharray="15.0013 5.00044" fill="none" fill-rule="evenodd"/><text font-family="Arial,Arial_MSFontService,sans-serif" font-weight="700" font-size="21" transform="matrix(1 0 0 1.00033 499.104 70)">EP 0<tspan font-size="21" x="77.4542" y="307.898">EP 12</tspan><tspan font-size="21" x="76.2233" y="446.852">EP 13</tspan><tspan font-size="21" x="71.2999" y="580.807">EP 14</tspan><tspan font-size="21" x="1255.41" y="293.902">EP 24</tspan><tspan font-size="21" x="1254.17" y="453.849">EP 25</tspan><tspan font-size="21" x="1249.25" y="595.802">EP 26</tspan><tspan font-size="21" x="723.666" y="246.918">EP 22</tspan><tspan font-size="21" x="718.742" y="403.866">EP 23</tspan></text></g></svg>