<svg width="1890" height="794" xmlns="http://www.w3.org/2000/svg" xmlns:xlink="http://www.w3.org/1999/xlink" overflow="hidden"><defs><clipPath id="clip0"><rect x="0" y="0" width="1890" height="794"/></clipPath></defs><g clip-path="url(#clip0)"><rect x="0" y="0" width="1890" height="794.263" fill="#FFFFFF"/><path d="M903 603.7C903 587.955 915.76 575.191 931.5 575.191L1502.5 575.191C1518.24 575.191 1531 587.955 1531 603.7L1531 717.738C1531 733.483 1518.24 746.247 1502.5 746.247L931.5 746.247C915.76 746.247 903 733.483 903 717.738Z" fill="#D9D9D9" fill-rule="evenodd"/><text font-family="Arial,Arial_MSFontService,sans-serif" font-style="italic" font-weight="700" font-size="21" transform="matrix(1 0 0 1.00033 920.492 605)">Descriptor cluster:<tspan font-style="normal" font-size="21" x="12.001" y="24.9917">DeviceTypes: Generic Switch, </tspan><tspan fill="#00B050" font-style="normal" font-size="21" x="320.108" y="24.9917">Bridged Node</tspan><tspan font-size="21" x="0" y="50.9831">Bridged Device Basic </tspan><tspan font-size="21" x="224.02" y="50.9831">Information cluster:</tspan><tspan font-style="normal" font-size="21" x="12.001" y="76.9745">NodeLabel</tspan><tspan font-style="normal" font-size="21" x="120.844" y="76.9745">: "bedside switch"</tspan><tspan font-size="21" x="0" y="101.966">Fixed Label cluster:</tspan><tspan font-style="normal" font-size="21" x="12.001" y="127.958">LabelList</tspan><tspan font-style="normal" font-size="21" x="105.676" y="127.958">: [["</tspan><tspan font-style="normal" font-size="21" x="143.346" y="127.958">room","bedroom</tspan><tspan font-style="normal" font-size="21" x="314.194" y="127.958">"]]</tspan><tspan font-style="normal" font-weight="400" font-size="27" x="-17.3252" y="-526.825">In this example, the Fixed Label cluster is used to indicate grouping</tspan><tspan font-style="normal" font-weight="400" font-size="27" x="-17.3252" y="-494.836">(</tspan><tspan font-style="normal" font-weight="400" font-size="27" x="-8.49109" y="-494.836">e.g.</tspan><tspan font-style="normal" font-weight="400" font-size="27" x="43.1801" y="-494.836">all devices in one room </tspan><tspan font-style="normal" font-weight="400" font-size="27" x="323.205" y="-494.836">-</tspan><tspan font-style="normal" font-weight="400" font-size="27" x="339.373" y="-494.836">whether they are bridged or not).</tspan><tspan font-style="normal" font-weight="400" font-size="27" x="-17.3252" y="-462.846">EP31 is a component of the device itself which is not bridged, </tspan><tspan font-style="normal" font-weight="400" font-size="27" x="714.239" y="-462.846">i.e.</tspan><tspan font-style="normal" font-weight="400" font-size="27" x="757.076" y="-462.846">native Matter;</tspan><tspan font-style="normal" font-weight="400" font-size="27" x="-17.3252" y="-430.857">it is in the bedroom, as indicated with the Fixed Label cluster.</tspan></text><path d="M252 75.5251C252 62.5421 262.521 52.0172 275.5 52.0172L798.5 52.0172C811.479 52.0172 822 62.5421 822 75.5251L822 169.556C822 182.539 811.479 193.064 798.5 193.064L275.5 193.064C262.521 193.064 252 182.539 252 169.556Z" fill="#A9D18E" fill-rule="evenodd"/><text font-family="Arial,Arial_MSFontService,sans-serif" font-style="italic" font-weight="700" font-size="21" transform="matrix(1 0 0 1.00033 268.712 79)">Descriptor cluster:<tspan font-style="normal" font-size="21" x="12.001" y="24.9917">DeviceTypes: </tspan><tspan font-style="normal" font-size="21" x="153.76" y="24.9917">Root Node, </tspan><tspan font-style="normal" font-size="21" x="273.437" y="24.9917">Bridge</tspan><tspan font-style="normal" font-size="21" x="12.001" y="50.9831">PartsList: EP 12,13,14,22,24,31</tspan><tspan font-size="21" x="0" y="76.9745">Basic Information cluster:</tspan><tspan font-style="normal" font-size="21" x="12.001" y="101.966">..</tspan></text><path d="M909 265.588C909 253.71 918.626 244.081 930.5 244.081L1503.5 244.081C1515.37 244.081 1525 253.71 1525 265.588L1525 351.617C1525 363.495 1515.37 373.124 1503.5 373.124L930.5 373.124C918.626 373.124 909 363.495 909 351.617Z" fill="#FFFF00" fill-rule="evenodd"/><text font-family="Arial,Arial_MSFontService,sans-serif" font-style="italic" font-weight="700" font-size="21" transform="matrix(1 0 0 1.00033 925.017 279)">Descriptor cluster:<tspan font-style="normal" font-size="21" x="12.001" y="24.9917">DeviceTypes</tspan><tspan font-style="normal" font-size="21" x="140.592" y="24.9917">: Speaker</tspan><tspan font-size="21" x="0" y="50.9831">Fixed Label cluster:</tspan><tspan font-style="normal" font-size="21" x="12.001" y="76.9745">LabelList</tspan><tspan font-style="normal" font-size="21" x="105.676" y="76.9745">: [["</tspan><tspan font-style="normal" font-size="21" x="143.346" y="76.9745">room","bedroom</tspan><tspan font-style="normal" font-size="21" x="314.194" y="76.9745">"]]</tspan></text><path d="M894 265.24C894 245.267 910.186 229.076 930.152 229.076L1503.85 229.076C1523.81 229.076 1540 245.267 1540 265.24L1540 748.096C1540 768.069 1523.81 784.26 1503.85 784.26L930.152 784.26C910.186 784.26 894 768.069 894 748.096Z" stroke="#FF0000" stroke-width="8.00071" stroke-miterlimit="8" stroke-dasharray="24.0021 8.00071" fill="none" fill-rule="evenodd"/><text fill="#FF0000" font-family="Arial,Arial_MSFontService,sans-serif" font-weight="400" font-size="32" transform="matrix(1 0 0 1.00033 1304.97 773)">bedroom</text><path d="M260 247.082C260 231.06 272.984 218.072 289 218.072L839 218.072C855.016 218.072 868 231.06 868 247.082L868 363.121C868 379.142 855.016 392.13 839 392.13L289 392.13C272.984 392.13 260 379.142 260 363.121Z" fill="#D9D9D9" fill-rule="evenodd"/><text font-family="Arial,Arial_MSFontService,sans-serif" font-style="italic" font-weight="700" font-size="21" transform="matrix(1 0 0 1.00033 278.088 250)">Descriptor cluster:<tspan font-style="normal" font-size="21" x="12.0011" y="24.9917">DeviceTypes: Color Light, </tspan><tspan fill="#00B050" font-style="normal" font-size="21" x="279.605" y="24.9917">Bridged Node</tspan><tspan font-size="21" x="0" y="50.9831">Bridged Device Basic </tspan>Information cluster:<tspan font-style="normal" font-size="21" x="12.0011" y="76.9745">NodeLabel</tspan><tspan font-style="normal" font-size="21" x="120.844" y="76.9745">: "dining table"</tspan><tspan font-size="21" x="0" y="101.966">Fixed Label cluster:</tspan><tspan font-style="normal" font-size="21" x="12.0011" y="127.958">LabelList</tspan><tspan font-style="normal" font-size="21" x="105.676" y="127.958">: [["</tspan><tspan font-style="normal" font-size="21" x="143.346" y="127.958">room","living</tspan><tspan font-style="normal" font-size="21" x="284.858" y="127.958">room"]]</tspan></text><path d="M267 427.142C267 412.225 279.088 400.133 294 400.133L841 400.133C855.912 400.133 868.001 412.225 868.001 427.142L868 535.178C868 550.095 855.912 562.187 841 562.187L294 562.186C279.088 562.186 267 550.094 267 535.177Z" fill="#D9D9D9" fill-rule="evenodd"/><text font-family="Arial,Arial_MSFontService,sans-serif" font-style="italic" font-weight="700" font-size="21" transform="matrix(1 0 0 1.00033 284.808 425)">Descriptor cluster:<tspan font-style="normal" font-size="21" x="12.0011" y="24.9917">DeviceTypes: CT Tunable Light, </tspan><tspan fill="#00B050" font-style="normal" font-size="21" x="338.357" y="24.9917">Bridged Node</tspan><tspan font-size="21" x="0" y="50.9831">Bridged Device Basic </tspan>Information cluster:<tspan font-style="normal" font-size="21" x="12.0011" y="76.9745">NodeLabel</tspan><tspan font-style="normal" font-size="21" x="120.844" y="76.9745">: "kitchen light" </tspan><tspan font-size="21" x="0" y="101.966">Fixed Label cluster:</tspan><tspan font-style="normal" font-size="21" x="12.0011" y="127.958">LabelList</tspan><tspan font-style="normal" font-size="21" x="105.676" y="127.958">: [["</tspan><tspan font-style="normal" font-size="21" x="143.346" y="127.958">room",living</tspan><tspan font-style="normal" font-size="21" x="274.691" y="127.958">room"]]</tspan></text><path d="M267 599.532C267 583.327 280.133 570.189 296.334 570.189L838.667 570.189C854.868 570.189 868.001 583.327 868.001 599.532L868 716.905C868 733.111 854.867 746.248 838.666 746.248L296.334 746.247C280.133 746.247 267 733.11 267 716.904Z" fill="#D9D9D9" fill-rule="evenodd"/><text font-family="Arial,Arial_MSFontService,sans-serif" font-style="italic" font-weight="700" font-size="21" transform="matrix(1 0 0 1.00033 285.468 602)">Descriptor cluster:<tspan font-style="normal" font-size="21" x="12.001" y="24.9917">DeviceTypes: Generic Switch, </tspan><tspan fill="#00B050" font-style="normal" font-size="21" x="320.108" y="24.9917">Bridged Node</tspan><tspan font-size="21" x="0" y="50.9831">Bridged Device Basic </tspan>Information cluster:<tspan font-style="normal" font-size="21" x="12.001" y="76.9745">NodeLabel</tspan><tspan font-style="normal" font-size="21" x="120.844" y="76.9745">: "living room entrance"</tspan><tspan font-size="21" x="0" y="101.966">Fixed Label cluster:</tspan><tspan font-style="normal" font-size="21" x="12.001" y="127.958">LabelList</tspan><tspan font-style="normal" font-size="21" x="105.676" y="127.958">: [["</tspan><tspan font-style="normal" font-size="21" x="143.346" y="127.958">room","living</tspan><tspan font-style="normal" font-size="21" x="284.858" y="127.958">room"]]</tspan></text><path d="M251 244.536C251 223.844 267.769 207.069 288.455 207.069L842.545 207.069C863.231 207.069 880 223.844 880 244.536L880 744.792C880 765.485 863.231 782.259 842.545 782.259L288.455 782.259C267.769 782.259 251 765.485 251 744.792Z" stroke="#FF0000" stroke-width="8.00071" stroke-miterlimit="8" stroke-dasharray="24.0021 8.00071" fill="none" fill-rule="evenodd"/><text fill="#FF0000" font-family="Arial,Arial_MSFontService,sans-serif" font-weight="400" font-size="32" transform="matrix(1 0 0 1.00033 560.976 776)">living room</text><path d="M909 418.639C909 402.893 921.76 390.129 937.5 390.129L1496.5 390.129C1512.24 390.129 1525 402.893 1525 418.639L1525 532.677C1525 548.422 1512.24 561.186 1496.5 561.186L937.5 561.186C921.76 561.186 909 548.422 909 532.677Z" fill="#D9D9D9" fill-rule="evenodd"/><text font-family="Arial,Arial_MSFontService,sans-serif" font-style="italic" font-weight="700" font-size="21" transform="matrix(1 0 0 1.00033 927 420)">Descriptor cluster:<tspan font-style="normal" font-size="21" x="12.001" y="24.9917">DeviceTypes</tspan><tspan font-style="normal" font-size="21" x="140.592" y="24.9917">: CT Tunable Light, </tspan><tspan fill="#00B050" font-style="normal" font-size="21" x="338.357" y="24.9917">Bridged Node</tspan><tspan font-size="21" x="0" y="50.9831">Bridged Device Basic </tspan><tspan font-size="21" x="224.02" y="50.9831">Information cluster:</tspan><tspan font-style="normal" font-size="21" x="12.001" y="76.9745">NodeLabel</tspan><tspan font-style="normal" font-size="21" x="120.844" y="76.9745">: "ceiling light"</tspan><tspan font-size="21" x="0" y="101.966">Fixed Label cluster:</tspan><tspan font-style="normal" font-size="21" x="12.001" y="127.958">LabelList</tspan><tspan font-style="normal" font-size="21" x="105.676" y="127.958">: [["</tspan><tspan font-style="normal" font-size="21" x="143.346" y="127.958">room","bedroom</tspan><tspan font-style="normal" font-size="21" x="314.194" y="127.958">"]]</tspan><tspan font-style="normal" font-size="21" x="-169.051" y="-326.892">EP 0</tspan><tspan font-style="normal" font-size="21" x="-141.193" y="-165.945">EP 12</tspan><tspan font-style="normal" font-size="21" x="-142.424" y="14.995">EP 13</tspan><tspan font-style="normal" font-size="21" x="-137.902" y="190.937">EP 14</tspan><tspan font-style="normal" font-size="21" x="523.481" y="-143.952">EP 31</tspan><tspan font-style="normal" font-size="21" x="522.25" y="7.99735">EP 22</tspan><tspan font-style="normal" font-size="21" x="526.773" y="199.934">EP 24</tspan></text></g></svg>