<svg width="1890" height="794" xmlns="http://www.w3.org/2000/svg" xmlns:xlink="http://www.w3.org/1999/xlink" overflow="hidden"><defs><clipPath id="clip0"><rect x="0" y="0" width="1890" height="794"/></clipPath></defs><g clip-path="url(#clip0)"><rect x="0" y="0" width="1890" height="794.263" fill="#FFFFFF"/><path d="M279 67.689C279 39.1449 302.132 16.0054 330.667 16.0054L797.333 16.0054C825.868 16.0054 849 39.1449 849 67.689L849 274.424C849 302.969 825.868 326.108 797.333 326.108L330.667 326.108C302.132 326.108 279 302.969 279 274.424Z" fill="#A9D18E" fill-rule="evenodd"/><text font-family="Arial,Arial_MSFontService,sans-serif" font-style="italic" font-weight="700" font-size="21" transform="matrix(1 0 0 1.00033 303.902 51)">Descriptor cluster:<tspan font-style="normal" font-size="21" x="12.0011" y="24.9917">DeviceTypes: Root Node, Bridge</tspan><tspan font-style="normal" font-size="21" x="12.0011" y="50.9831">PartsList: EP 12,13,14,22,24,31</tspan><tspan font-size="21" x="0" y="76.9745">Basic Information cluster:</tspan><tspan font-style="normal" font-size="21" x="12.0011" y="101.966">..</tspan><tspan font-size="21" x="0" y="127.958">Bridged Actions cluster:</tspan><tspan font-style="normal" font-size="21" x="11.2077" y="152.949">ActionList</tspan><tspan font-style="normal" font-size="21" x="115.55" y="152.949">: [ ]</tspan><tspan font-style="normal" font-size="21" x="12.0011" y="178.941">EndpointLists</tspan><tspan font-style="normal" font-size="21" x="154.18" y="178.941">: [</tspan><tspan font-style="normal" font-size="21" x="24.0021" y="204.932">[0xE001, "living room", room, [12,13,14] ],</tspan><tspan font-style="normal" font-size="21" x="24.0021" y="229.924">[0xE002, "bedroom", room, [22,24,31] </tspan><tspan font-style="normal" font-size="21" x="408.703" y="229.924">]</tspan><tspan font-style="normal" font-size="21" x="0" y="255.915">]</tspan></text><path d="M903 648.715C903 637.942 911.731 629.209 922.5 629.209L1511.5 629.209C1522.27 629.209 1531 637.942 1531 648.715L1531 726.741C1531 737.514 1522.27 746.247 1511.5 746.247L922.5 746.247C911.731 746.247 903 737.514 903 726.741Z" fill="#D9D9D9" fill-rule="evenodd"/><text font-family="Arial,Arial_MSFontService,sans-serif" font-style="italic" font-weight="700" font-size="21" transform="matrix(1 0 0 1.00033 917.86 658)">Descriptor cluster:<tspan font-style="normal" font-size="21" x="12.0011" y="24.9917">DeviceTypes: Generic Switch, </tspan><tspan fill="#00B050" font-style="normal" font-size="21" x="320.108" y="24.9917">Bridged Node</tspan><tspan font-size="21" x="0" y="50.9831">Bridged Device Basic Information cluster:</tspan><tspan font-style="normal" font-size="21" x="12.0011" y="76.9745">NodeLabel</tspan><tspan font-style="normal" font-size="21" x="120.844" y="76.9745">: "bedside switch"</tspan><tspan font-style="normal" font-weight="400" font-size="27" x="-14.6931" y="-559.814">In this example, the </tspan><tspan font-style="normal" font-weight="400" font-size="27" x="223.495" y="-559.814">EndPointLists</tspan><tspan font-style="normal" font-weight="400" font-size="27" x="394.01" y="-559.814">attribute of the Bridged Actions </tspan><tspan font-style="normal" font-weight="400" font-size="27" x="-14.6931" y="-527.825">cluster is used to indicate grouping (</tspan><tspan font-style="normal" font-weight="400" font-size="27" x="411.845" y="-527.825">e.g.</tspan><tspan font-style="normal" font-weight="400" font-size="27" x="463.516" y="-527.825">all devices in one room </tspan><tspan font-style="normal" font-weight="400" font-size="27" x="743.54" y="-527.825">-</tspan><tspan font-style="normal" font-weight="400" font-size="27" x="-14.6931" y="-495.836">whether they are bridged or not).</tspan><tspan font-style="normal" font-weight="400" font-size="27" x="-14.6931" y="-463.846">EP31 is a component of the device itself which is not bridged, </tspan><tspan font-style="normal" font-weight="400" font-size="27" x="716.871" y="-463.846">i.e.</tspan><tspan font-style="normal" font-weight="400" font-size="27" x="-14.6931" y="-431.857">native Matter; it is in the bedroom along with some bridged devices.</tspan></text><path d="M909 352.783C909 340.813 918.7 331.11 930.666 331.11L1503.33 331.11C1515.3 331.11 1525 340.813 1525 352.783L1525 439.479C1525 451.449 1515.3 461.153 1503.33 461.153L930.666 461.153C918.7 461.153 909 451.449 909 439.479Z" fill="#FFFF00" fill-rule="evenodd"/><text font-family="Arial,Arial_MSFontService,sans-serif" font-style="italic" font-weight="700" font-size="21" transform="matrix(1 0 0 1.00033 925.017 392)">Descriptor cluster:<tspan font-style="normal" font-size="21" x="12.001" y="24.9917">DeviceTypes</tspan><tspan font-style="normal" font-size="21" x="140.592" y="24.9917">: </tspan><tspan font-style="normal" font-size="21" x="153.76" y="24.9917">Speaker</tspan></text><path d="M894 332.573C894 315.191 908.086 301.1 925.463 301.1L1508.54 301.1C1525.91 301.1 1540 315.191 1540 332.573L1540 752.787C1540 770.169 1525.91 784.26 1508.54 784.26L925.463 784.26C908.086 784.26 894 770.169 894 752.787Z" stroke="#FF0000" stroke-width="8.00071" stroke-miterlimit="8" stroke-dasharray="24.0021 8.00071" fill="none" fill-rule="evenodd"/><text fill="#FF0000" font-family="Arial,Arial_MSFontService,sans-serif" font-weight="400" font-size="32" transform="matrix(1 0 0 1.00033 1304.97 773)">bedroom</text><path d="M260 358.119C260 347.069 268.954 338.112 280 338.112L848 338.112C859.046 338.112 868 347.069 868 358.119L868 438.145C868 449.195 859.046 458.152 848 458.152L280 458.152C268.954 458.152 260 449.195 260 438.145Z" fill="#D9D9D9" fill-rule="evenodd"/><text font-family="Arial,Arial_MSFontService,sans-serif" font-style="italic" font-weight="700" font-size="21" transform="matrix(1 0 0 1.00033 275.416 368)">Descriptor cluster:<tspan font-style="normal" font-size="21" x="12.0011" y="24.9917">DeviceTypes: Extended Color Light, </tspan><tspan fill="#00B050" font-style="normal" font-size="21" x="381.447" y="24.9917">Bridged Node</tspan><tspan font-size="21" x="0" y="50.9831">Bridged Device Basic Information cluster:</tspan><tspan font-style="normal" font-size="21" x="12.0011" y="76.9745">NodeLabel</tspan><tspan font-style="normal" font-size="21" x="120.844" y="76.9745">: "dining table"</tspan></text><path d="M267 493.497C267 481.711 276.551 472.157 288.333 472.157L846.667 472.157C858.449 472.157 868 481.711 868 493.497L868 578.859C868 590.645 858.449 600.199 846.667 600.199L288.333 600.199C276.551 600.199 267 590.645 267 578.859Z" fill="#D9D9D9" fill-rule="evenodd"/><text font-family="Arial,Arial_MSFontService,sans-serif" font-style="italic" font-weight="700" font-size="21" transform="matrix(1 0 0 1.00033 283.147 506)">Descriptor cluster:<tspan font-style="normal" font-size="21" x="12.0011" y="24.9917">DeviceTypes: Color Temperature Light, </tspan><tspan fill="#00B050" font-style="normal" font-size="21" x="413.197" y="24.9917">Bridged Node</tspan><tspan font-size="21" x="0" y="50.9831">Bridged Device Basic Information cluster:</tspan><tspan font-style="normal" font-size="21" x="12.0011" y="76.9745">NodeLabel</tspan><tspan font-style="normal" font-size="21" x="120.844" y="76.9745">: "kitchen light"</tspan></text><path d="M267 632.543C267 620.757 276.551 611.203 288.333 611.203L846.667 611.203C858.449 611.203 868 620.757 868 632.543L868 717.905C868 729.691 858.449 739.245 846.667 739.245L288.333 739.245C276.551 739.245 267 729.691 267 717.905Z" fill="#D9D9D9" fill-rule="evenodd"/><text font-family="Arial,Arial_MSFontService,sans-serif" font-style="italic" font-weight="700" font-size="21" transform="matrix(1 0 0 1.00033 283.147 645)">Descriptor cluster:<tspan font-style="normal" font-size="21" x="12.0011" y="24.9917">DeviceTypes: Generic Switch, </tspan><tspan fill="#00B050" font-style="normal" font-size="21" x="320.108" y="24.9917">Bridged Node</tspan><tspan font-size="21" x="0" y="50.9831">Bridged Device Basic Information cluster:</tspan><tspan font-style="normal" font-size="21" x="12.0011" y="76.9745">NodeLabel</tspan><tspan font-style="normal" font-size="21" x="120.844" y="76.9745">: "living room entrance"</tspan></text><path d="M251 360.498C251 344.267 264.153 331.11 280.378 331.11L850.622 331.11C866.847 331.11 880 344.267 880 360.498L880 752.872C880 769.102 866.847 782.259 850.622 782.259L280.378 782.259C264.153 782.259 251 769.102 251 752.872Z" stroke="#FF0000" stroke-width="8.00071" stroke-miterlimit="8" stroke-dasharray="24.0021 8.00071" fill="none" fill-rule="evenodd"/><text fill="#FF0000" font-family="Arial,Arial_MSFontService,sans-serif" font-weight="400" font-size="32" transform="matrix(1 0 0 1.00033 560.976 776)">living room</text><path d="M909 502.5C909 490.714 918.551 481.16 930.334 481.16L1503.67 481.16C1515.45 481.16 1525 490.714 1525 502.5L1525 587.862C1525 599.648 1515.45 609.203 1503.67 609.203L930.334 609.202C918.551 609.202 909 599.647 909 587.861Z" fill="#D9D9D9" fill-rule="evenodd"/><text font-family="Arial,Arial_MSFontService,sans-serif" font-style="italic" font-weight="700" font-size="21" transform="matrix(1 0 0 1.00033 924.951 515)">Descriptor cluster:<tspan font-style="normal" font-size="21" x="12.001" y="24.9917">DeviceTypes</tspan><tspan font-style="normal" font-size="21" x="140.592" y="24.9917">: Color Temperature Light, </tspan><tspan fill="#00B050" font-style="normal" font-size="21" x="413.196" y="24.9917">Bridged Node</tspan><tspan font-size="21" x="0" y="50.9831">Bridged Device Basic Information cluster:</tspan><tspan font-style="normal" font-size="21" x="12.001" y="76.9745">NodeLabel</tspan><tspan font-style="normal" font-size="21" x="120.844" y="76.9745">: "ceiling light"</tspan><tspan font-style="normal" font-size="21" x="-167.002" y="-421.86">EP 0</tspan><tspan font-style="normal" font-size="21" x="-139.144" y="-140.953">EP 12</tspan><tspan font-style="normal" font-size="21" x="-140.375" y="-6.99768">EP 13</tspan><tspan font-style="normal" font-size="21" x="-135.852" y="136.955">EP 14</tspan><tspan font-style="normal" font-size="21" x="525.531" y="-150.95">EP 31</tspan><tspan font-style="normal" font-size="21" x="524.3" y="3.99867">EP 22</tspan><tspan font-style="normal" font-size="21" x="528.822" y="148.951">EP 24</tspan></text></g></svg>