<svg width="1890" height="794" xmlns="http://www.w3.org/2000/svg" xmlns:xlink="http://www.w3.org/1999/xlink" overflow="hidden"><defs><clipPath id="clip0"><rect x="0" y="0" width="1890" height="794"/></clipPath></defs><g clip-path="url(#clip0)"><rect x="0" y="0" width="1890" height="794.263" fill="#FFFFFF"/><path d="M1310 650.716C1310 638.838 1319.63 629.209 1331.5 629.209L1815.5 629.209C1827.37 629.209 1837 638.838 1837 650.716L1837 736.744C1837 748.622 1827.37 758.251 1815.5 758.251L1331.5 758.251C1319.63 758.251 1310 748.622 1310 736.744Z" fill="#D9D9D9" fill-rule="evenodd"/><text font-family="Arial,Arial_MSFontService,sans-serif" font-style="italic" font-weight="700" font-size="21" transform="matrix(1 0 0 1.00033 1325.97 664)">Descriptor cluster:<tspan font-style="normal" font-size="21" x="12.0011" y="24.9917">DeviceTypes: Color Light</tspan><tspan font-size="21" x="0" y="50.9831">Fixed Label cluster:</tspan><tspan font-style="normal" font-size="21" x="12.0011" y="76.9745">LabelList</tspan><tspan font-style="normal" font-size="21" x="105.676" y="76.9745">: [["</tspan><tspan font-style="normal" font-size="21" x="143.346" y="76.9745">orientation","down</tspan><tspan font-style="normal" font-size="21" x="335.696" y="76.9745">"]]</tspan></text><path d="M38 238.079C38 222.057 50.9836 209.069 66.9997 209.069L617 209.069C633.016 209.069 646 222.057 646 238.079L646 354.118C646 370.139 633.016 383.127 617 383.127L66.9997 383.127C50.9836 383.127 38 370.139 38 354.118Z" fill="#D9D9D9" fill-rule="evenodd"/><text font-family="Arial,Arial_MSFontService,sans-serif" font-style="italic" font-weight="700" font-size="21" transform="matrix(1 0 0 1.00033 56.1189 240)">Descriptor cluster:<tspan font-style="normal" font-size="21" x="12.0011" y="24.9917">DeviceTypes: Color Light, </tspan><tspan fill="#00B050" font-style="normal" font-size="21" x="279.605" y="24.9917">Bridged Node</tspan><tspan font-size="21" x="0" y="50.9831">Bridged Device Basic Information cluster:</tspan><tspan font-style="normal" font-size="21" x="12.0011" y="76.9745">NodeLabel</tspan><tspan font-style="normal" font-size="21" x="120.844" y="76.9745">: "dining table"</tspan><tspan font-size="21" x="0" y="101.966">Fixed Label cluster:</tspan><tspan font-style="normal" font-size="21" x="12.0011" y="128.957">LabelList</tspan><tspan font-style="normal" font-size="21" x="105.676" y="128.957">: [["</tspan><tspan font-style="normal" font-size="21" x="143.346" y="128.957">room","living</tspan><tspan font-style="normal" font-size="21" x="284.858" y="128.957">room"]]</tspan></text><path d="M687 237.079C687 220.505 700.432 207.069 717 207.069L1272 207.069C1288.57 207.069 1302 220.505 1302 237.079L1302 357.118C1302 373.692 1288.57 387.128 1272 387.128L717 387.128C700.432 387.128 687 373.692 687 357.118Z" fill="#D9D9D9" fill-rule="evenodd"/><text font-family="Arial,Arial_MSFontService,sans-serif" font-style="italic" font-weight="700" font-size="21" transform="matrix(1 0 0 1.00033 705.256 242)">Descriptor cluster:<tspan font-style="normal" font-size="21" x="12.0011" y="24.9917">DeviceTypes</tspan><tspan font-style="normal" font-size="21" x="140.592" y="24.9917">: CT Tunable Light, </tspan><tspan fill="#00B050" font-style="normal" font-size="21" x="338.357" y="24.9917">Bridged Node</tspan><tspan font-size="21" x="0" y="50.9831">Bridged Device Basic Information cluster:</tspan><tspan font-style="normal" font-size="21" x="12.0011" y="76.9745">NodeLabel</tspan><tspan font-style="normal" font-size="21" x="120.844" y="76.9745">: "ceiling light"</tspan><tspan font-size="21" x="0" y="101.966">Fixed Label cluster:</tspan><tspan font-style="normal" font-size="21" x="12.0011" y="127.958">LabelList</tspan><tspan font-style="normal" font-size="21" x="105.676" y="127.958">: [["</tspan><tspan font-style="normal" font-size="21" x="143.346" y="127.958">room","bedroom</tspan><tspan font-style="normal" font-size="21" x="314.194" y="127.958">"]]</tspan></text><path d="M45 417.305C45 402.296 57.1629 390.129 72.1666 390.129L618.833 390.129C633.837 390.129 646 402.296 646 417.305L646 526.008C646 541.017 633.837 553.184 618.833 553.184L72.1666 553.184C57.1629 553.184 45 541.017 45 526.008Z" fill="#D9D9D9" fill-rule="evenodd"/><text font-family="Arial,Arial_MSFontService,sans-serif" font-style="italic" font-weight="700" font-size="21" transform="matrix(1 0 0 1.00033 62.8393 416)">Descriptor cluster:<tspan font-style="normal" font-size="21" x="12.0011" y="24.9917">DeviceTypes: CT Tunable Light, </tspan><tspan fill="#00B050" font-style="normal" font-size="21" x="338.357" y="24.9917">Bridged Node</tspan><tspan font-size="21" x="0" y="50.9831">Bridged Device Basic Information cluster:</tspan><tspan font-style="normal" font-size="21" x="12.0011" y="76.9745">NodeLabel</tspan><tspan font-style="normal" font-size="21" x="120.844" y="76.9745">: "kitchen light" </tspan><tspan font-size="21" x="0" y="101.966">Fixed Label cluster:</tspan><tspan font-style="normal" font-size="21" x="12.0011" y="127.958">LabelList: [["</tspan><tspan font-style="normal" font-size="21" x="143.346" y="127.958">room","living</tspan><tspan font-style="normal" font-size="21" x="284.858" y="127.958">room"]]</tspan></text><path d="M674 467.322C674 435.187 700.042 409.136 732.167 409.136L1237.83 409.136C1269.96 409.136 1296 435.187 1296 467.322L1296 700.066C1296 732.201 1269.96 758.252 1237.83 758.252L732.167 758.251C700.042 758.251 674 732.201 674 700.065Z" fill="#D9D9D9" fill-rule="evenodd"/><text font-family="Arial,Arial_MSFontService,sans-serif" font-style="italic" font-weight="700" font-size="21" transform="matrix(1 0 0 1.00033 700.99 438)">Descriptor cluster:<tspan font-style="normal" font-size="21" x="12.001" y="24.9917">DeviceTypes: Temperature Sensor, </tspan><tspan fill="#00B050" font-style="normal" font-size="21" x="370.346" y="24.9917">Bridged Node,</tspan><tspan font-style="normal" font-size="21" x="156.014" y="50.9831">Power</tspan><tspan font-size="21" x="0" y="76.9745">Bridged Device Basic Information cluster:</tspan><tspan font-style="normal" font-size="21" x="12.001" y="101.966">NodeLabel</tspan><tspan font-style="normal" font-size="21" x="120.844" y="101.966">: "bedroom temperature"</tspan><tspan font-size="21" x="0" y="127.958">Power Source Configuration cluster:</tspan><tspan font-style="normal" font-size="21" x="12.001" y="152.949">Sources: EP 23</tspan><tspan font-size="21" x="0" y="178.941">Power Source cluster: (features=BAT,REPLC)</tspan><tspan font-style="normal" font-size="21" x="12.001" y="204.932">BatChargeLevel</tspan><tspan font-style="normal" font-size="21" x="174.182" y="204.932">: Warning</tspan><tspan font-style="normal" font-size="21" x="12.001" y="229.924">BatReplacementDescription</tspan><tspan font-style="normal" font-size="21" x="296.359" y="229.924">: "AAA batteries"</tspan><tspan font-style="normal" font-size="21" x="12.001" y="255.915">BatQuantity</tspan><tspan font-style="normal" font-size="21" x="133.012" y="255.915">: 2</tspan><tspan font-size="21" x="0" y="280.907">Fixed Label cluster:</tspan><tspan font-style="normal" font-size="21" x="12.001" y="306.898">LabelList: [["</tspan><tspan font-style="normal" font-size="21" x="143.346" y="306.898">room","bedroom</tspan><tspan font-style="normal" font-size="21" x="314.194" y="306.898">"]]</tspan></text><path d="M45 590.362C45 574.249 58.0583 561.186 74.1666 561.186L616.833 561.186C632.942 561.186 646 574.249 646 590.362L646 707.068C646 723.182 632.942 736.244 616.833 736.244L74.1666 736.244C58.0583 736.244 45 723.182 45 707.068Z" fill="#D9D9D9" fill-rule="evenodd"/><text font-family="Arial,Arial_MSFontService,sans-serif" font-style="italic" font-weight="700" font-size="21" transform="matrix(1 0 0 1.00033 63.499 593)">Descriptor cluster:<tspan font-style="normal" font-size="21" x="12.0011" y="24.9917">DeviceTypes: Generic Switch, </tspan><tspan fill="#00B050" font-style="normal" font-size="21" x="320.108" y="24.9917">Bridged Node</tspan><tspan font-size="21" x="0" y="50.9831">Bridged Device Basic Information cluster:</tspan><tspan font-style="normal" font-size="21" x="12.0011" y="76.9745">NodeLabel</tspan><tspan font-style="normal" font-size="21" x="120.844" y="76.9745">: "living room entrance"</tspan><tspan font-size="21" x="0" y="101.966">Fixed Label cluster:</tspan><tspan font-style="normal" font-size="21" x="12.0011" y="127.958">LabelList</tspan><tspan font-style="normal" font-size="21" x="105.676" y="127.958">: [["</tspan><tspan font-style="normal" font-size="21" x="143.346" y="127.958">room","living</tspan><tspan font-style="normal" font-size="21" x="284.858" y="127.958">room"]]</tspan><tspan font-style="normal" font-weight="400" font-size="27" x="550.246" y="-537.822">In this example, the Fixed Label cluster is used to indicate grouping (</tspan><tspan font-style="normal" font-weight="400" font-size="27" x="1360.32" y="-537.822">e.g.</tspan><tspan font-style="normal" font-weight="400" font-size="27" x="1411.99" y="-537.822">all devices in one room). </tspan><tspan font-style="normal" font-weight="400" font-size="27" x="550.246" y="-505.832">The bedroom has 3 bridged devices, where one of them (endpoint 24) is a composed device </tspan><tspan font-style="normal" font-weight="400" font-size="27" x="1646.01" y="-505.832">-</tspan><tspan font-style="normal" font-weight="400" font-size="27" x="1662.18" y="-505.832">also </tspan><tspan font-style="normal" font-weight="400" font-size="27" x="550.246" y="-473.843">using an (unrelated) Fixed Label cluster is used to give information on the user</tspan><tspan font-style="normal" font-weight="400" font-size="27" x="1475.83" y="-473.843">-</tspan><tspan font-style="normal" font-weight="400" font-size="27" x="1484.66" y="-473.843">relevant components </tspan><tspan font-style="normal" font-weight="400" font-size="27" x="550.246" y="-441.853">of the composed device.</tspan></text><path d="M45 72.5241C45 59.5411 55.5212 49.0163 68.4999 49.0163L560.5 49.0163C573.479 49.0163 584 59.5411 584 72.5241L584 166.555C584 179.538 573.479 190.063 560.5 190.063L68.4999 190.063C55.5212 190.063 45 179.538 45 166.555Z" fill="#A9D18E" fill-rule="evenodd"/><text font-family="Arial,Arial_MSFontService,sans-serif" font-style="italic" font-weight="700" font-size="21" transform="matrix(1 0 0 1.00033 61.8002 77)">Descriptor cluster:<tspan font-style="normal" font-size="21" x="12.0011" y="24.9917">DeviceTypes: Root Node, Bridge</tspan><tspan font-style="normal" font-size="21" x="12.0011" y="50.9831">PartsList: EP 12,13,14,22,23,24,25,26</tspan><tspan font-size="21" x="0" y="76.9745">Basic Information cluster:</tspan><tspan font-style="normal" font-size="21" x="12.0011" y="101.966">..</tspan></text><path d="M27.9999 235.534C27.9999 214.841 44.7693 198.066 65.4554 198.066L618.545 198.066C639.231 198.066 656 214.841 656 235.534L656 735.789C656 756.482 639.231 773.256 618.545 773.256L65.4554 773.256C44.7693 773.256 27.9999 756.482 27.9999 735.789Z" stroke="#FF0000" stroke-width="8.00071" stroke-miterlimit="8" stroke-dasharray="24.0021 8.00071" fill="none" fill-rule="evenodd"/><text fill="#FF0000" font-family="Arial,Arial_MSFontService,sans-serif" font-weight="400" font-size="32" transform="matrix(1 0 0 1.00033 339.007 767)">living room<tspan font-size="32" x="742.379" y="-7.99735">bedroom</tspan></text><path d="M1310 510.836C1310 498.866 1319.7 489.162 1331.67 489.162L1813.33 489.162C1825.3 489.162 1835 498.866 1835 510.836L1835 597.531C1835 609.502 1825.3 619.205 1813.33 619.205L1331.67 619.205C1319.7 619.205 1310 609.502 1310 597.531Z" fill="#D9D9D9" fill-rule="evenodd"/><text font-family="Arial,Arial_MSFontService,sans-serif" font-style="italic" font-weight="700" font-size="21" transform="matrix(1 0 0 1.00033 1326.02 524)">Descriptor cluster:<tspan font-style="normal" font-size="21" x="12.0011" y="24.9917">DeviceTypes: Color Light</tspan><tspan font-size="21" x="0" y="50.9831">Fixed Label cluster:</tspan><tspan font-style="normal" font-size="21" x="12.0011" y="76.9745">LabelList</tspan><tspan font-style="normal" font-size="21" x="105.676" y="76.9745">: [["</tspan><tspan font-style="normal" font-size="21" x="143.346" y="76.9745">orientation","up</tspan><tspan font-style="normal" font-size="21" x="306.027" y="76.9745">"]]</tspan></text><path d="M677 235.143C677 214.666 693.594 198.066 714.065 198.066L1824.94 198.066C1845.41 198.066 1862 214.666 1862 235.143L1862 730.177C1862 750.654 1845.41 767.255 1824.94 767.255L714.065 767.255C693.594 767.255 677 750.654 677 730.177Z" stroke="#FF0000" stroke-width="8.00071" stroke-miterlimit="8" stroke-dasharray="24.0021 8.00071" fill="none" fill-rule="evenodd"/><text fill="#7030A0" font-family="Arial,Arial_MSFontService,sans-serif" font-weight="400" font-size="27" transform="matrix(1 0 0 1.00033 1515.99 250)">composed device</text><path d="M1310 297.432C1310 277.359 1326.27 261.087 1346.33 261.087L1794.67 261.087C1814.73 261.087 1831 277.359 1831 297.432L1831 442.814C1831 462.887 1814.73 479.159 1794.67 479.159L1346.33 479.159C1326.27 479.159 1310 462.887 1310 442.814Z" fill="#D9D9D9" fill-rule="evenodd"/><text font-family="Arial,Arial_MSFontService,sans-serif" font-style="italic" font-weight="700" font-size="21" transform="matrix(1 0 0 1.00033 1330.34 301)">Descriptor cluster:<tspan font-style="normal" font-size="21" x="12.0011" y="24.9917">DeviceTypes</tspan><tspan font-style="normal" font-size="21" x="140.592" y="24.9917">: </tspan><tspan fill="#00B050" font-style="normal" font-size="21" x="153.76" y="24.9917">Bridged Node</tspan><tspan font-style="normal" font-size="21" x="12.0011" y="50.9831">PartsList</tspan><tspan font-style="normal" font-size="21" x="103.343" y="50.9831">: 25,26</tspan><tspan font-size="21" x="0" y="76.9745">Bridged Device Basic Information cluster:</tspan><tspan font-style="normal" font-size="21" x="12.0011" y="101.966">NodeLabel</tspan><tspan font-style="normal" font-size="21" x="120.844" y="101.966">: "bedroom light"</tspan><tspan font-size="21" x="0" y="127.958">Fixed Label cluster:</tspan><tspan font-style="normal" font-size="21" x="12.0011" y="152.949">LabelList</tspan><tspan font-style="normal" font-size="21" x="105.676" y="152.949">: [["</tspan><tspan font-style="normal" font-size="21" x="143.346" y="152.949">room","bedroom</tspan><tspan font-style="normal" font-size="21" x="314.194" y="152.949">"]]</tspan></text><path d="M1308.5 293.972C1308.5 276.086 1322.99 261.587 1340.87 261.587L1816.13 261.587C1834.01 261.587 1848.5 276.086 1848.5 293.972L1848.5 726.366C1848.5 744.252 1834.01 758.752 1816.13 758.752L1340.87 758.752C1322.99 758.752 1308.5 744.252 1308.5 726.366Z" stroke="#7030A0" stroke-width="5.00044" stroke-miterlimit="8" stroke-dasharray="15.0013 5.00044" fill="none" fill-rule="evenodd"/><text font-family="Arial,Arial_MSFontService,sans-serif" font-weight="700" font-size="21" transform="matrix(1 0 0 1.00033 493.96 85)">EP 0<tspan font-size="21" x="82.5976" y="158.947">EP 12</tspan><tspan font-size="21" x="81.3668" y="340.887">EP 13</tspan><tspan font-size="21" x="76.4433" y="520.827">EP 14</tspan><tspan font-size="21" x="1260.55" y="218.927">EP 24</tspan><tspan font-size="21" x="1259.32" y="438.854">EP 25</tspan><tspan font-size="21" x="1254.39" y="580.807">EP 26</tspan><tspan font-size="21" x="728.809" y="157.948">EP 22</tspan><tspan font-size="21" x="723.886" y="362.88">EP 23</tspan></text></g></svg>