<svg version="1.1" viewBox="0.0 0.0 335.68503937007875 167.13385826771653" fill="none" stroke="none" stroke-linecap="square" stroke-miterlimit="10" xmlns:xlink="http://www.w3.org/1999/xlink" xmlns="http://www.w3.org/2000/svg"><clipPath id="p.0"><path d="m0 0l335.68503 0l0 167.13387l-335.68503 0l0 -167.13387z" clip-rule="nonzero"/></clipPath><g clip-path="url(#p.0)"><path fill="#000000" fill-opacity="0.0" d="m0 0l335.68503 0l0 167.13387l-335.68503 0z" fill-rule="evenodd"/><path fill="#000000" fill-opacity="0.0" d="m7.4181023 102.22835l0 0c0 -33.876366 71.824814 -61.338585 160.42519 -61.338585l0 0c88.6004 0 160.4252 27.46222 160.4252 61.338585l0 0c0 33.876358 -71.8248 61.338577 -160.4252 61.338577l0 0c-88.60038 0 -160.42519 -27.46222 -160.42519 -61.338577z" fill-rule="evenodd"/><path stroke="#ff0000" stroke-width="1.0" stroke-linejoin="round" stroke-linecap="butt" stroke-dasharray="4.0,3.0" d="m7.4181023 102.22835l0 0c0 -33.876366 71.824814 -61.338585 160.42519 -61.338585l0 0c88.6004 0 160.4252 27.46222 160.4252 61.338585l0 0c0 33.876358 -71.8248 61.338577 -160.4252 61.338577l0 0c-88.60038 0 -160.42519 -27.46222 -160.42519 -61.338577z" fill-rule="evenodd"/><path fill="#000000" fill-opacity="0.0" d="m77.29396 93.74278l105.41733 7.5905533" fill-rule="evenodd"/><path stroke="#ff0000" stroke-width="2.0" stroke-linejoin="round" stroke-linecap="butt" d="m77.29396 93.74278l105.41733 7.5905533" fill-rule="evenodd"/><path fill="#6d9eeb" d="m63.90551 94.38058l0 0c0 -6.888336 5.5841064 -12.472443 12.472443 -12.472443l0 0c3.3078995 0 6.4803085 1.3140564 8.819351 3.653099c2.339035 2.339035 3.6530914 5.511444 3.6530914 8.819344l0 0c0 6.888336 -5.5841064 12.472443 -12.472443 12.472443l0 0c-6.888336 0 -12.472443 -5.5841064 -12.472443 -12.472443z" fill-rule="evenodd"/><path stroke="#000000" stroke-width="2.0" stroke-linejoin="round" stroke-linecap="butt" d="m63.90551 94.38058l0 0c0 -6.888336 5.5841064 -12.472443 12.472443 -12.472443l0 0c3.3078995 0 6.4803085 1.3140564 8.819351 3.653099c2.339035 2.339035 3.6530914 5.511444 3.6530914 8.819344l0 0c0 6.888336 -5.5841064 12.472443 -12.472443 12.472443l0 0c-6.888336 0 -12.472443 -5.5841064 -12.472443 -12.472443z" fill-rule="evenodd"/><path fill="#000000" d="m70.839935 90.19995l0.828125 -0.078125q0.0625 0.5 0.28125 0.828125q0.21875 0.3125 0.671875 0.515625q0.453125 0.203125 1.015625 0.203125q0.515625 0 0.890625 -0.15625q0.390625 -0.15625 0.578125 -0.40625q0.1875 -0.265625 0.1875 -0.578125q0 -0.3125 -0.1875 -0.546875q-0.171875 -0.234375 -0.59375 -0.390625q-0.265625 -0.109375 -1.1875 -0.328125q-0.921875 -0.21875 -1.28125 -0.421875q-0.484375 -0.25 -0.71875 -0.609375q-0.234375 -0.375 -0.234375 -0.84375q0 -0.5 0.28125 -0.9375q0.296875 -0.4375 0.84375 -0.671875q0.546875 -0.234375 1.234375 -0.234375q0.734375 0 1.296875 0.25q0.578125 0.234375 0.875 0.703125q0.3125 0.453125 0.328125 1.046875l-0.84375 0.0625q-0.0625 -0.625 -0.46875 -0.953125q-0.390625 -0.328125 -1.15625 -0.328125q-0.796875 0 -1.171875 0.296875q-0.359375 0.296875 -0.359375 0.703125q0 0.359375 0.25 0.59375q0.265625 0.234375 1.328125 0.484375q1.078125 0.234375 1.484375 0.421875q0.578125 0.265625 0.859375 0.6875q0.28125 0.40625 0.28125 0.9375q0 0.53125 -0.3125 1.015625q-0.296875 0.46875 -0.875 0.734375q-0.5625 0.25 -1.28125 0.25q-0.90625 0 -1.515625 -0.265625q-0.609375 -0.265625 -0.96875 -0.78125q-0.34375 -0.53125 -0.359375 -1.203125zm8.2217865 2.140625l0 -5.890625l-2.203125 0l0 -0.78125l5.296875 0l0 0.78125l-2.21875 0l0 5.890625l-0.875 0z" fill-rule="nonzero"/><path fill="#000000" d="m73.251434 103.340576l2.5625 -6.671875l0.953125 0l2.734375 6.671875l-1.0 0l-0.78125 -2.015625l-2.796875 0l-0.734375 2.015625l-0.9375 0zm1.921875 -2.734375l2.265625 0l-0.6875 -1.859375q-0.328125 -0.84375 -0.484375 -1.375q-0.125 0.640625 -0.359375 1.265625l-0.734375 1.96875z" fill-rule="nonzero"/><path fill="#000000" fill-opacity="0.0" d="m173.47507 101.49869l101.63779 4.4094467" fill-rule="evenodd"/><path stroke="#ff0000" stroke-width="2.0" stroke-linejoin="round" stroke-linecap="butt" d="m173.47507 101.49869l101.63779 4.4094467" fill-rule="evenodd"/><path fill="#000000" fill-opacity="0.0" d="m123.608925 134.979l50.299217 -33.543312" fill-rule="evenodd"/><path stroke="#ff0000" stroke-width="2.0" stroke-linejoin="round" stroke-linecap="butt" d="m123.608925 134.979l50.299217 -33.543312" fill-rule="evenodd"/><path fill="#000000" fill-opacity="0.0" d="m172.80052 100.88189l-49.196846 -33.543304" fill-rule="evenodd"/><path stroke="#ff0000" stroke-width="2.0" stroke-linejoin="round" stroke-linecap="butt" d="m172.80052 100.88189l-49.196846 -33.543304" fill-rule="evenodd"/><path fill="#000000" fill-opacity="0.0" d="m209.13649 144.48294l-35.74803 -43.055122" fill-rule="evenodd"/><path stroke="#ff0000" stroke-width="2.0" stroke-linejoin="round" stroke-linecap="butt" d="m209.13649 144.48294l-35.74803 -43.055122" fill-rule="evenodd"/><path fill="#000000" fill-opacity="0.0" d="m175.03674 101.997375l27.40158 -34.078743" fill-rule="evenodd"/><path stroke="#ff0000" stroke-width="2.0" stroke-linejoin="round" stroke-linecap="butt" d="m175.03674 101.997375l27.40158 -34.078743" fill-rule="evenodd"/><path fill="#000000" fill-opacity="0.0" d="m38.862144 3.566929l263.55905 0l0 48.0l-263.55905 0z" fill-rule="evenodd"/><path fill="#000000" d="m133.7157 32.36693l-2.53125 -9.546875l1.296875 0l1.453125 6.265625q0.234375 0.984375 0.40625 1.953125q0.359375 -1.53125 0.421875 -1.765625l1.828125 -6.453125l1.515625 0l1.375 4.828125q0.515625 1.796875 0.734375 3.390625q0.1875 -0.90625 0.484375 -2.078125l1.484375 -6.140625l1.28125 0l-2.625 9.546875l-1.21875 0l-2.0 -7.265625q-0.265625 -0.921875 -0.3125 -1.125q-0.140625 0.65625 -0.28125 1.125l-2.015625 7.265625l-1.296875 0zm10.782852 -8.1875l0 -1.359375l1.171875 0l0 1.359375l-1.171875 0zm0 8.1875l0 -6.90625l1.171875 0l0 6.90625l-1.171875 0zm3.164215 0l0 -9.546875l6.4375 0l0 1.125l-5.171875 0l0 2.96875l4.46875 0l0 1.125l-4.46875 0l0 4.328125l-1.265625 0zm7.9382324 -8.1875l0 -1.359375l1.171875 0l0 1.359375l-1.171875 0zm0 8.1875l0 -6.90625l1.171875 0l0 6.90625l-1.171875 0zm6.7890778 0l0 -9.546875l1.296875 0l5.015625 7.5l0 -7.5l1.203125 0l0 9.546875l-1.296875 0l-5.015625 -7.5l0 7.5l-1.203125 0zm14.218903 -2.21875l1.203125 0.140625q-0.28125 1.0625 -1.0625 1.65625q-0.765625 0.578125 -1.96875 0.578125q-1.515625 0 -2.40625 -0.9375q-0.890625 -0.9375 -0.890625 -2.609375q0 -1.75 0.890625 -2.703125q0.90625 -0.96875 2.34375 -0.96875q1.390625 0 2.265625 0.9375q0.875 0.9375 0.875 2.65625q0 0.109375 0 0.3125l-5.15625 0q0.0625 1.140625 0.640625 1.75q0.578125 0.59375 1.4375 0.59375q0.65625 0 1.109375 -0.328125q0.453125 -0.34375 0.71875 -1.078125zm-3.84375 -1.90625l3.859375 0q-0.078125 -0.859375 -0.4375 -1.296875q-0.5625 -0.6875 -1.453125 -0.6875q-0.8125 0 -1.359375 0.546875q-0.546875 0.53125 -0.609375 1.4375zm9.084351 3.078125l0.171875 1.03125q-0.5 0.109375 -0.890625 0.109375q-0.640625 0 -1.0 -0.203125q-0.34375 -0.203125 -0.484375 -0.53125q-0.140625 -0.328125 -0.140625 -1.390625l0 -3.96875l-0.859375 0l0 -0.90625l0.859375 0l0 -1.71875l1.171875 -0.703125l0 2.421875l1.171875 0l0 0.90625l-1.171875 0l0 4.046875q0 0.5 0.046875 0.640625q0.0625 0.140625 0.203125 0.234375q0.140625 0.078125 0.40625 0.078125q0.203125 0 0.515625 -0.046875zm2.4217377 1.046875l-2.125 -6.90625l1.21875 0l1.09375 3.984375l0.421875 1.484375q0.015625 -0.109375 0.359375 -1.421875l1.09375 -4.046875l1.203125 0l1.03125 4.0l0.34375 1.328125l0.40625 -1.34375l1.171875 -3.984375l1.140625 0l-2.15625 6.90625l-1.21875 0l-1.09375 -4.140625l-0.265625 -1.171875l-1.40625 5.3125l-1.21875 0zm7.9064026 -3.453125q0 -1.921875 1.078125 -2.84375q0.890625 -0.765625 2.171875 -0.765625q1.421875 0 2.328125 0.9375q0.90625 0.921875 0.90625 2.578125q0 1.328125 -0.40625 2.09375q-0.390625 0.765625 -1.15625 1.1875q-0.765625 0.421875 -1.671875 0.421875q-1.453125 0 -2.359375 -0.921875q-0.890625 -0.9375 -0.890625 -2.6875zm1.203125 0q0 1.328125 0.578125 1.984375q0.59375 0.65625 1.46875 0.65625q0.875 0 1.453125 -0.65625q0.578125 -0.671875 0.578125 -2.03125q0 -1.28125 -0.59375 -1.9375q-0.578125 -0.65625 -1.4375 -0.65625q-0.875 0 -1.46875 0.65625q-0.578125 0.65625 -0.578125 1.984375zm6.6312256 3.453125l0 -6.90625l1.0625 0l0 1.046875q0.40625 -0.734375 0.734375 -0.96875q0.34375 -0.234375 0.765625 -0.234375q0.59375 0 1.203125 0.375l-0.40625 1.078125q-0.4375 -0.25 -0.859375 -0.25q-0.390625 0 -0.703125 0.234375q-0.296875 0.234375 -0.421875 0.640625q-0.203125 0.625 -0.203125 1.359375l0 3.625l-1.171875 0zm4.4696198 0l0 -9.546875l1.171875 0l0 5.453125l2.765625 -2.8125l1.515625 0l-2.640625 2.5625l2.90625 4.34375l-1.4375 0l-2.28125 -3.53125l-0.828125 0.796875l0 2.734375l-1.171875 0z" fill-rule="nonzero"/><path fill="#6d9eeb" d="m109.96588 135.40158l0 0c0 -6.8883514 5.584099 -12.47245 12.472443 -12.47245l0 0c3.3078918 0 6.480301 1.314064 8.819351 3.653099c2.339035 2.339035 3.6530914 5.511444 3.6530914 8.819351l0 0c0 6.888336 -5.5841064 12.472427 -12.472443 12.472427l0 0c-6.888344 0 -12.472443 -5.584091 -12.472443 -12.472427z" fill-rule="evenodd"/><path stroke="#000000" stroke-width="2.0" stroke-linejoin="round" stroke-linecap="butt" d="m109.96588 135.40158l0 0c0 -6.8883514 5.584099 -12.47245 12.472443 -12.47245l0 0c3.3078918 0 6.480301 1.314064 8.819351 3.653099c2.339035 2.339035 3.6530914 5.511444 3.6530914 8.819351l0 0c0 6.888336 -5.5841064 12.472427 -12.472443 12.472427l0 0c-6.888344 0 -12.472443 -5.584091 -12.472443 -12.472427z" fill-rule="evenodd"/><path fill="#000000" d="m116.9003 131.22095l0.828125 -0.078125q0.0625 0.5 0.28125 0.828125q0.21875 0.3125 0.671875 0.515625q0.453125 0.203125 1.015625 0.203125q0.515625 0 0.890625 -0.15625q0.390625 -0.15625 0.578125 -0.40625q0.1875 -0.265625 0.1875 -0.578125q0 -0.3125 -0.1875 -0.546875q-0.171875 -0.234375 -0.59375 -0.390625q-0.265625 -0.109375 -1.1875 -0.328125q-0.921875 -0.21875 -1.28125 -0.421875q-0.484375 -0.25 -0.71875 -0.609375q-0.234375 -0.375 -0.234375 -0.84375q0 -0.5 0.28125 -0.9375q0.296875 -0.4375 0.84375 -0.671875q0.546875 -0.234375 1.234375 -0.234375q0.734375 0 1.296875 0.25q0.578125 0.234375 0.875 0.703125q0.3125 0.453125 0.328125 1.046875l-0.84375 0.0625q-0.0625 -0.625 -0.46875 -0.953125q-0.390625 -0.328125 -1.15625 -0.328125q-0.796875 0 -1.171875 0.296875q-0.359375 0.296875 -0.359375 0.703125q0 0.359375 0.25 0.59375q0.265625 0.234375 1.328125 0.484375q1.078125 0.234375 1.484375 0.421875q0.578125 0.265625 0.859375 0.6875q0.28125 0.40625 0.28125 0.9375q0 0.53125 -0.3125 1.015625q-0.296875 0.46875 -0.875 0.734375q-0.5625 0.25 -1.28125 0.25q-0.90625 0 -1.515625 -0.265625q-0.609375 -0.265625 -0.96875 -0.78125q-0.34375 -0.53125 -0.359375 -1.203125zm8.2217865 2.140625l0 -5.890625l-2.203125 0l0 -0.78125l5.296875 0l0 0.78125l-2.21875 0l0 5.890625l-0.875 0z" fill-rule="nonzero"/><path fill="#000000" d="m119.3118 144.36157l2.5625 -6.671875l0.953125 0l2.734375 6.671875l-1.0 0l-0.78125 -2.015625l-2.796875 0l-0.734375 2.015625l-0.9375 0zm1.921875 -2.734375l2.265625 0l-0.6875 -1.859375q-0.328125 -0.84375 -0.484375 -1.375q-0.125 0.640625 -0.359375 1.265625l-0.734375 1.96875z" fill-rule="nonzero"/><path fill="#6d9eeb" d="m195.52493 144.32283l0 0c0 -6.888336 5.5841064 -12.472443 12.472443 -12.472443l0 0c3.3078918 0 6.480316 1.3140564 8.819351 3.6531067c2.339035 2.339035 3.6530914 5.511444 3.6530914 8.819336l0 0c0 6.888336 -5.5841064 12.472443 -12.472443 12.472443l0 0c-6.888336 0 -12.472443 -5.5841064 -12.472443 -12.472443z" fill-rule="evenodd"/><path stroke="#000000" stroke-width="2.0" stroke-linejoin="round" stroke-linecap="butt" d="m195.52493 144.32283l0 0c0 -6.888336 5.5841064 -12.472443 12.472443 -12.472443l0 0c3.3078918 0 6.480316 1.3140564 8.819351 3.6531067c2.339035 2.339035 3.6530914 5.511444 3.6530914 8.819336l0 0c0 6.888336 -5.5841064 12.472443 -12.472443 12.472443l0 0c-6.888336 0 -12.472443 -5.5841064 -12.472443 -12.472443z" fill-rule="evenodd"/><path fill="#000000" d="m202.45935 140.14221l0.828125 -0.078125q0.0625 0.5 0.28125 0.828125q0.21875 0.3125 0.671875 0.515625q0.453125 0.203125 1.015625 0.203125q0.515625 0 0.890625 -0.15625q0.390625 -0.15625 0.578125 -0.40625q0.1875 -0.265625 0.1875 -0.578125q0 -0.3125 -0.1875 -0.546875q-0.171875 -0.234375 -0.59375 -0.390625q-0.265625 -0.109375 -1.1875 -0.328125q-0.921875 -0.21875 -1.28125 -0.421875q-0.484375 -0.25 -0.71875 -0.609375q-0.234375 -0.375 -0.234375 -0.84375q0 -0.5 0.28125 -0.9375q0.296875 -0.4375 0.84375 -0.671875q0.546875 -0.234375 1.234375 -0.234375q0.734375 0 1.296875 0.25q0.578125 0.234375 0.875 0.703125q0.3125 0.453125 0.328125 1.046875l-0.84375 0.0625q-0.0625 -0.625 -0.46875 -0.953125q-0.390625 -0.328125 -1.15625 -0.328125q-0.796875 0 -1.171875 0.296875q-0.359375 0.296875 -0.359375 0.703125q0 0.359375 0.25 0.59375q0.265625 0.234375 1.328125 0.484375q1.078125 0.234375 1.484375 0.421875q0.578125 0.265625 0.859375 0.6875q0.28125 0.40625 0.28125 0.9375q0 0.53125 -0.3125 1.015625q-0.296875 0.46875 -0.875 0.734375q-0.5625 0.25 -1.28125 0.25q-0.90625 0 -1.515625 -0.265625q-0.609375 -0.265625 -0.96875 -0.78125q-0.34375 -0.53125 -0.359375 -1.203125zm8.2217865 2.140625l0 -5.890625l-2.203125 0l0 -0.78125l5.296875 0l0 0.78125l-2.21875 0l0 5.890625l-0.875 0z" fill-rule="nonzero"/><path fill="#000000" d="m204.87085 153.28284l2.5625 -6.671875l0.953125 0l2.734375 6.671875l-1.0 0l-0.78125 -2.015625l-2.796875 0l-0.734375 2.015625l-0.9375 0zm1.921875 -2.734375l2.265625 0l-0.6875 -1.859375q-0.328125 -0.84375 -0.484375 -1.375q-0.125 0.640625 -0.359375 1.265625l-0.734375 1.96875z" fill-rule="nonzero"/><path fill="#6d9eeb" d="m261.67453 106.215225l0 0c0 -6.888344 5.5841064 -12.472443 12.472443 -12.472443l0 0c3.3078918 0 6.480316 1.3140564 8.819366 3.6530914c2.3390198 2.339035 3.6530762 5.5114517 3.6530762 8.819351l0 0c0 6.888336 -5.5841064 12.472443 -12.472443 12.472443l0 0c-6.888336 0 -12.472443 -5.5841064 -12.472443 -12.472443z" fill-rule="evenodd"/><path stroke="#000000" stroke-width="2.0" stroke-linejoin="round" stroke-linecap="butt" d="m261.67453 106.215225l0 0c0 -6.888344 5.5841064 -12.472443 12.472443 -12.472443l0 0c3.3078918 0 6.480316 1.3140564 8.819366 3.6530914c2.3390198 2.339035 3.6530762 5.5114517 3.6530762 8.819351l0 0c0 6.888336 -5.5841064 12.472443 -12.472443 12.472443l0 0c-6.888336 0 -12.472443 -5.5841064 -12.472443 -12.472443z" fill-rule="evenodd"/><path fill="#000000" d="m268.60898 102.0346l0.828125 -0.078125q0.0625 0.5 0.28125 0.828125q0.21875 0.3125 0.671875 0.515625q0.453125 0.203125 1.015625 0.203125q0.515625 0 0.890625 -0.15625q0.390625 -0.15625 0.578125 -0.40625q0.1875 -0.265625 0.1875 -0.578125q0 -0.3125 -0.1875 -0.546875q-0.171875 -0.234375 -0.59375 -0.390625q-0.265625 -0.109375 -1.1875 -0.328125q-0.921875 -0.21875 -1.28125 -0.421875q-0.484375 -0.25 -0.71875 -0.609375q-0.234375 -0.375 -0.234375 -0.84375q0 -0.5 0.28125 -0.9375q0.296875 -0.4375 0.84375 -0.671875q0.546875 -0.234375 1.234375 -0.234375q0.734375 0 1.296875 0.25q0.578125 0.234375 0.875 0.703125q0.3125 0.453125 0.328125 1.046875l-0.84375 0.0625q-0.0625 -0.625 -0.46875 -0.953125q-0.390625 -0.328125 -1.15625 -0.328125q-0.796875 0 -1.171875 0.296875q-0.359375 0.296875 -0.359375 0.703125q0 0.359375 0.25 0.59375q0.265625 0.234375 1.328125 0.484375q1.078125 0.234375 1.484375 0.421875q0.578125 0.265625 0.859375 0.6875q0.28125 0.40625 0.28125 0.9375q0 0.53125 -0.3125 1.015625q-0.296875 0.46875 -0.875 0.734375q-0.5625 0.25 -1.28125 0.25q-0.90625 0 -1.515625 -0.265625q-0.609375 -0.265625 -0.96875 -0.78125q-0.34375 -0.53125 -0.359375 -1.203125zm8.221771 2.140625l0 -5.890625l-2.203125 0l0 -0.78125l5.296875 0l0 0.78125l-2.21875 0l0 5.890625l-0.875 0z" fill-rule="nonzero"/><path fill="#000000" d="m271.02048 115.175224l2.5625 -6.671875l0.953125 0l2.734375 6.671875l-1.0 0l-0.78125 -2.015625l-2.796875 0l-0.734375 2.015625l-0.9375 0zm1.921875 -2.734375l2.265625 0l-0.6875 -1.859375q-0.328125 -0.84375 -0.484375 -1.375q-0.125 0.640625 -0.359375 1.265625l-0.734375 1.96875z" fill-rule="nonzero"/><path fill="#6d9eeb" d="m109.96588 66.73491l0 0c0 -6.88834 5.584099 -12.472443 12.472443 -12.472443l0 0c3.3078918 0 6.480301 1.3140564 8.819351 3.6530952c2.339035 2.339035 3.6530914 5.511448 3.6530914 8.819347l0 0c0 6.888336 -5.5841064 12.472443 -12.472443 12.472443l0 0c-6.888344 0 -12.472443 -5.5841064 -12.472443 -12.472443z" fill-rule="evenodd"/><path stroke="#000000" stroke-width="2.0" stroke-linejoin="round" stroke-linecap="butt" d="m109.96588 66.73491l0 0c0 -6.88834 5.584099 -12.472443 12.472443 -12.472443l0 0c3.3078918 0 6.480301 1.3140564 8.819351 3.6530952c2.339035 2.339035 3.6530914 5.511448 3.6530914 8.819347l0 0c0 6.888336 -5.5841064 12.472443 -12.472443 12.472443l0 0c-6.888344 0 -12.472443 -5.5841064 -12.472443 -12.472443z" fill-rule="evenodd"/><path fill="#000000" d="m116.9003 62.554283l0.828125 -0.078125q0.0625 0.5 0.28125 0.828125q0.21875 0.3125 0.671875 0.515625q0.453125 0.203125 1.015625 0.203125q0.515625 0 0.890625 -0.15625q0.390625 -0.15625 0.578125 -0.40625q0.1875 -0.265625 0.1875 -0.578125q0 -0.3125 -0.1875 -0.546875q-0.171875 -0.234375 -0.59375 -0.390625q-0.265625 -0.109375 -1.1875 -0.328125q-0.921875 -0.21875 -1.28125 -0.421875q-0.484375 -0.25 -0.71875 -0.609375q-0.234375 -0.375 -0.234375 -0.84375q0 -0.5 0.28125 -0.9375q0.296875 -0.4375 0.84375 -0.671875q0.546875 -0.234375 1.234375 -0.234375q0.734375 0 1.296875 0.25q0.578125 0.234375 0.875 0.703125q0.3125 0.453125 0.328125 1.046875l-0.84375 0.0625q-0.0625 -0.625 -0.46875 -0.953125q-0.390625 -0.328125 -1.15625 -0.328125q-0.796875 0 -1.171875 0.296875q-0.359375 0.296875 -0.359375 0.703125q0 0.359375 0.25 0.59375q0.265625 0.234375 1.328125 0.484375q1.078125 0.234375 1.484375 0.421875q0.578125 0.265625 0.859375 0.6875q0.28125 0.40625 0.28125 0.9375q0 0.53125 -0.3125 1.015625q-0.296875 0.46875 -0.875 0.734375q-0.5625 0.25 -1.28125 0.25q-0.90625 0 -1.515625 -0.265625q-0.609375 -0.265625 -0.96875 -0.78125q-0.34375 -0.53125 -0.359375 -1.203125zm8.2217865 2.140625l0 -5.890625l-2.203125 0l0 -0.78125l5.296875 0l0 0.78125l-2.21875 0l0 5.890625l-0.875 0z" fill-rule="nonzero"/><path fill="#000000" d="m119.3118 75.69491l2.5625 -6.671875l0.953125 0l2.734375 6.671875l-1.0 0l-0.78125 -2.015625l-2.796875 0l-0.734375 2.015625l-0.9375 0zm1.921875 -2.734375l2.265625 0l-0.6875 -1.859375q-0.328125 -0.84375 -0.484375 -1.375q-0.125 0.640625 -0.359375 1.265625l-0.734375 1.96875z" fill-rule="nonzero"/><path fill="#6d9eeb" d="m189.70079 66.73491l0 0c0 -6.88834 5.5841064 -12.472443 12.472443 -12.472443l0 0c3.3078918 0 6.480301 1.3140564 8.819336 3.6530952c2.3390503 2.339035 3.6531067 5.511448 3.6531067 8.819347l0 0c0 6.888336 -5.5841064 12.472443 -12.472443 12.472443l0 0c-6.888336 0 -12.472443 -5.5841064 -12.472443 -12.472443z" fill-rule="evenodd"/><path stroke="#000000" stroke-width="2.0" stroke-linejoin="round" stroke-linecap="butt" d="m189.70079 66.73491l0 0c0 -6.88834 5.5841064 -12.472443 12.472443 -12.472443l0 0c3.3078918 0 6.480301 1.3140564 8.819336 3.6530952c2.3390503 2.339035 3.6531067 5.511448 3.6531067 8.819347l0 0c0 6.888336 -5.5841064 12.472443 -12.472443 12.472443l0 0c-6.888336 0 -12.472443 -5.5841064 -12.472443 -12.472443z" fill-rule="evenodd"/><path fill="#000000" d="m196.63521 62.554283l0.828125 -0.078125q0.0625 0.5 0.28125 0.828125q0.21875 0.3125 0.671875 0.515625q0.453125 0.203125 1.015625 0.203125q0.515625 0 0.890625 -0.15625q0.390625 -0.15625 0.578125 -0.40625q0.1875 -0.265625 0.1875 -0.578125q0 -0.3125 -0.1875 -0.546875q-0.171875 -0.234375 -0.59375 -0.390625q-0.265625 -0.109375 -1.1875 -0.328125q-0.921875 -0.21875 -1.28125 -0.421875q-0.484375 -0.25 -0.71875 -0.609375q-0.234375 -0.375 -0.234375 -0.84375q0 -0.5 0.28125 -0.9375q0.296875 -0.4375 0.84375 -0.671875q0.546875 -0.234375 1.234375 -0.234375q0.734375 0 1.296875 0.25q0.578125 0.234375 0.875 0.703125q0.3125 0.453125 0.328125 1.046875l-0.84375 0.0625q-0.0625 -0.625 -0.46875 -0.953125q-0.390625 -0.328125 -1.15625 -0.328125q-0.796875 0 -1.171875 0.296875q-0.359375 0.296875 -0.359375 0.703125q0 0.359375 0.25 0.59375q0.265625 0.234375 1.328125 0.484375q1.078125 0.234375 1.484375 0.421875q0.578125 0.265625 0.859375 0.6875q0.28125 0.40625 0.28125 0.9375q0 0.53125 -0.3125 1.015625q-0.296875 0.46875 -0.875 0.734375q-0.5625 0.25 -1.28125 0.25q-0.90625 0 -1.515625 -0.265625q-0.609375 -0.265625 -0.96875 -0.78125q-0.34375 -0.53125 -0.359375 -1.203125zm8.2217865 2.140625l0 -5.890625l-2.203125 0l0 -0.78125l5.296875 0l0 0.78125l-2.21875 0l0 5.890625l-0.875 0z" fill-rule="nonzero"/><path fill="#000000" d="m199.0467 75.69491l2.5625 -6.671875l0.953125 0l2.734375 6.671875l-1.0 0l-0.78125 -2.015625l-2.796875 0l-0.734375 2.015625l-0.9375 0zm1.921875 -2.734375l2.265625 0l-0.6875 -1.859375q-0.328125 -0.84375 -0.484375 -1.375q-0.125 0.640625 -0.359375 1.265625l-0.734375 1.96875z" fill-rule="nonzero"/><path fill="#b7b7b7" d="m154.32545 94.07087l32.62993 0l0 16.314957l-32.62993 0z" fill-rule="evenodd"/><path stroke="#000000" stroke-width="2.0" stroke-linejoin="round" stroke-linecap="butt" d="m154.32545 94.07087l32.62993 0l0 16.314957l-32.62993 0z" fill-rule="evenodd"/><path fill="#000000" d="m164.40302 105.68835l2.5625 -6.671875l0.953125 0l2.734375 6.671875l-1.0 0l-0.78125 -2.015625l-2.796875 0l-0.734375 2.015625l-0.9375 0zm1.921875 -2.734375l2.265625 0l-0.6875 -1.859375q-0.328125 -0.84375 -0.484375 -1.375q-0.125 0.640625 -0.359375 1.265625l-0.734375 1.96875zm5.0342865 2.734375l0 -6.671875l2.515625 0q0.671875 0 1.015625 0.0625q0.5 0.078125 0.828125 0.3125q0.328125 0.21875 0.53125 0.640625q0.203125 0.40625 0.203125 0.90625q0 0.859375 -0.546875 1.453125q-0.53125 0.578125 -1.953125 0.578125l-1.703125 0l0 2.71875l-0.890625 0zm0.890625 -3.5l1.71875 0q0.859375 0 1.21875 -0.3125q0.359375 -0.328125 0.359375 -0.90625q0 -0.421875 -0.21875 -0.71875q-0.203125 -0.296875 -0.546875 -0.390625q-0.234375 -0.0625 -0.828125 -0.0625l-1.703125 0l0 2.390625z" fill-rule="nonzero"/></g></svg>