<svg version="1.1" viewBox="0.0 0.0 846.0577427821522 372.03937007874015" fill="none" stroke="none" stroke-linecap="square" stroke-miterlimit="10" xmlns:xlink="http://www.w3.org/1999/xlink" xmlns="http://www.w3.org/2000/svg"><clipPath id="p.0"><path d="m0 0l846.05774 0l0 372.03937l-846.05774 0l0 -372.03937z" clip-rule="nonzero"/></clipPath><g clip-path="url(#p.0)"><path fill="#000000" fill-opacity="0.0" d="m0 0l846.05774 0l0 372.03937l-846.05774 0z" fill-rule="evenodd"/><path fill="#6d9eeb" d="m329.958 54.377953l0 0c0 -4.621216 3.7462463 -8.367455 8.367462 -8.367455l387.10757 0c2.2192383 0 4.347534 0.8815689 5.916687 2.4507713c1.5692139 1.5692024 2.4508057 3.6974983 2.4508057 5.916683l0 33.46982c0 4.621216 -3.7462769 8.367455 -8.367493 8.367455l-387.10757 0c-4.621216 0 -8.367462 -3.7462387 -8.367462 -8.367455z" fill-rule="evenodd"/><path stroke="#595959" stroke-width="1.0" stroke-linejoin="round" stroke-linecap="butt" d="m329.958 54.377953l0 0c0 -4.621216 3.7462463 -8.367455 8.367462 -8.367455l387.10757 0c2.2192383 0 4.347534 0.8815689 5.916687 2.4507713c1.5692139 1.5692024 2.4508057 3.6974983 2.4508057 5.916683l0 33.46982c0 4.621216 -3.7462769 8.367455 -8.367493 8.367455l-387.10757 0c-4.621216 0 -8.367462 -3.7462387 -8.367462 -8.367455z" fill-rule="evenodd"/><path fill="#000000" d="m460.28836 78.03286l5.125 -13.359375l1.90625 0l5.46875 13.359375l-2.015625 0l-1.546875 -4.046875l-5.59375 0l-1.46875 4.046875l-1.875 0zm3.859375 -5.484375l4.53125 0l-1.40625 -3.703125q-0.625 -1.6875 -0.9375 -2.765625q-0.265625 1.28125 -0.71875 2.546875l-1.46875 3.921875zm9.849823 9.1875l0 -13.375l1.484375 0l0 1.25q0.53125 -0.734375 1.1875 -1.09375q0.671875 -0.375 1.625 -0.375q1.234375 0 2.171875 0.640625q0.953125 0.625 1.4375 1.796875q0.484375 1.15625 0.484375 2.546875q0 1.484375 -0.53125 2.671875q-0.53125 1.1875 -1.546875 1.828125q-1.015625 0.625 -2.140625 0.625q-0.8125 0 -1.46875 -0.34375q-0.65625 -0.34375 -1.0625 -0.875l0 4.703125l-1.640625 0zm1.484375 -8.484375q0 1.859375 0.75 2.765625q0.765625 0.890625 1.828125 0.890625q1.09375 0 1.875 -0.921875q0.78125 -0.9375 0.78125 -2.875q0 -1.84375 -0.765625 -2.765625q-0.75 -0.921875 -1.8125 -0.921875q-1.046875 0 -1.859375 0.984375q-0.796875 0.96875 -0.796875 2.84375zm8.891357 8.484375l0 -13.375l1.484375 0l0 1.25q0.53125 -0.734375 1.1875 -1.09375q0.671875 -0.375 1.625 -0.375q1.234375 0 2.171875 0.640625q0.953125 0.625 1.4375 1.796875q0.484375 1.15625 0.484375 2.546875q0 1.484375 -0.53125 2.671875q-0.53125 1.1875 -1.546875 1.828125q-1.015625 0.625 -2.140625 0.625q-0.8125 0 -1.46875 -0.34375q-0.65625 -0.34375 -1.0625 -0.875l0 4.703125l-1.640625 0zm1.484375 -8.484375q0 1.859375 0.75 2.765625q0.765625 0.890625 1.828125 0.890625q1.09375 0 1.875 -0.921875q0.78125 -0.9375 0.78125 -2.875q0 -1.84375 -0.765625 -2.765625q-0.75 -0.921875 -1.8125 -0.921875q-1.046875 0 -1.859375 0.984375q-0.796875 0.96875 -0.796875 2.84375zm8.844452 4.78125l0 -13.359375l1.640625 0l0 13.359375l-1.640625 0zm4.1917114 -11.46875l0 -1.890625l1.640625 0l0 1.890625l-1.640625 0zm0 11.46875l0 -9.671875l1.640625 0l0 9.671875l-1.640625 0zm10.457306 -3.546875l1.609375 0.21875q-0.265625 1.65625 -1.359375 2.609375q-1.078125 0.9375 -2.671875 0.9375q-1.984375 0 -3.1875 -1.296875q-1.203125 -1.296875 -1.203125 -3.71875q0 -1.578125 0.515625 -2.75q0.515625 -1.171875 1.578125 -1.75q1.0625 -0.59375 2.3125 -0.59375q1.578125 0 2.578125 0.796875q1.0 0.796875 1.28125 2.265625l-1.59375 0.234375q-0.234375 -0.96875 -0.8125 -1.453125q-0.578125 -0.5 -1.390625 -0.5q-1.234375 0 -2.015625 0.890625q-0.78125 0.890625 -0.78125 2.8125q0 1.953125 0.75 2.84375q0.75 0.875 1.953125 0.875q0.96875 0 1.609375 -0.59375q0.65625 -0.59375 0.828125 -1.828125zm9.328125 2.359375q-0.921875 0.765625 -1.765625 1.09375q-0.828125 0.3125 -1.796875 0.3125q-1.59375 0 -2.453125 -0.78125q-0.859375 -0.78125 -0.859375 -1.984375q0 -0.71875 0.328125 -1.296875q0.328125 -0.59375 0.84375 -0.9375q0.53125 -0.359375 1.1875 -0.546875q0.46875 -0.125 1.453125 -0.25q1.984375 -0.234375 2.921875 -0.5625q0.015625 -0.34375 0.015625 -0.421875q0 -1.0 -0.46875 -1.421875q-0.625 -0.546875 -1.875 -0.546875q-1.15625 0 -1.703125 0.40625q-0.546875 0.40625 -0.8125 1.421875l-1.609375 -0.21875q0.21875 -1.015625 0.71875 -1.640625q0.5 -0.640625 1.453125 -0.984375q0.953125 -0.34375 2.1875 -0.34375q1.25 0 2.015625 0.296875q0.78125 0.28125 1.140625 0.734375q0.375 0.4375 0.515625 1.109375q0.078125 0.421875 0.078125 1.515625l0 2.1875q0 2.28125 0.109375 2.890625q0.109375 0.59375 0.40625 1.15625l-1.703125 0q-0.265625 -0.515625 -0.328125 -1.1875zm-0.140625 -3.671875q-0.890625 0.375 -2.671875 0.625q-1.015625 0.140625 -1.4375 0.328125q-0.421875 0.1875 -0.65625 0.53125q-0.21875 0.34375 -0.21875 0.78125q0 0.65625 0.5 1.09375q0.5 0.4375 1.453125 0.4375q0.9375 0 1.671875 -0.40625q0.75 -0.421875 1.09375 -1.140625q0.265625 -0.5625 0.265625 -1.640625l0 -0.609375zm7.7819824 3.390625l0.234375 1.453125q-0.6875 0.140625 -1.234375 0.140625q-0.890625 0 -1.390625 -0.28125q-0.484375 -0.28125 -0.6875 -0.734375q-0.203125 -0.46875 -0.203125 -1.9375l0 -5.578125l-1.203125 0l0 -1.265625l1.203125 0l0 -2.390625l1.625 -0.984375l0 3.375l1.65625 0l0 1.265625l-1.65625 0l0 5.671875q0 0.6875 0.078125 0.890625q0.09375 0.203125 0.28125 0.328125q0.203125 0.109375 0.578125 0.109375q0.265625 0 0.71875 -0.0625zm1.6051636 -10.0l0 -1.890625l1.640625 0l0 1.890625l-1.640625 0zm0 11.46875l0 -9.671875l1.640625 0l0 9.671875l-1.640625 0zm3.5354614 -4.84375q0 -2.6875 1.484375 -3.96875q1.25 -1.078125 3.046875 -1.078125q2.0 0 3.265625 1.3125q1.265625 1.296875 1.265625 3.609375q0 1.859375 -0.5625 2.9375q-0.5625 1.0625 -1.640625 1.65625q-1.0625 0.59375 -2.328125 0.59375q-2.03125 0 -3.28125 -1.296875q-1.25 -1.3125 -1.25 -3.765625zm1.6875 0q0 1.859375 0.796875 2.796875q0.8125 0.921875 2.046875 0.921875q1.21875 0 2.03125 -0.921875q0.8125 -0.9375 0.8125 -2.84375q0 -1.796875 -0.8125 -2.71875q-0.8125 -0.921875 -2.03125 -0.921875q-1.234375 0 -2.046875 0.921875q-0.796875 0.90625 -0.796875 2.765625zm9.297546 4.84375l0 -9.671875l1.46875 0l0 1.375q1.0625 -1.59375 3.078125 -1.59375q0.875 0 1.609375 0.3125q0.734375 0.3125 1.09375 0.828125q0.375 0.5 0.515625 1.203125q0.09375 0.453125 0.09375 1.59375l0 5.953125l-1.640625 0l0 -5.890625q0 -1.0 -0.203125 -1.484375q-0.1875 -0.5 -0.671875 -0.796875q-0.484375 -0.296875 -1.140625 -0.296875q-1.046875 0 -1.8125 0.671875q-0.75 0.65625 -0.75 2.515625l0 5.28125l-1.640625 0zm15.684021 0l0 -13.359375l1.78125 0l0 11.78125l6.5625 0l0 1.578125l-8.34375 0zm16.563232 -1.1875q-0.921875 0.765625 -1.765625 1.09375q-0.828125 0.3125 -1.796875 0.3125q-1.59375 0 -2.453125 -0.78125q-0.859375 -0.78125 -0.859375 -1.984375q0 -0.71875 0.328125 -1.296875q0.328125 -0.59375 0.84375 -0.9375q0.53125 -0.359375 1.1875 -0.546875q0.46875 -0.125 1.453125 -0.25q1.984375 -0.234375 2.921875 -0.5625q0.015625 -0.34375 0.015625 -0.421875q0 -1.0 -0.46875 -1.421875q-0.625 -0.546875 -1.875 -0.546875q-1.15625 0 -1.703125 0.40625q-0.546875 0.40625 -0.8125 1.421875l-1.609375 -0.21875q0.21875 -1.015625 0.71875 -1.640625q0.5 -0.640625 1.453125 -0.984375q0.953125 -0.34375 2.1875 -0.34375q1.25 0 2.015625 0.296875q0.78125 0.28125 1.140625 0.734375q0.375 0.4375 0.515625 1.109375q0.078125 0.421875 0.078125 1.515625l0 2.1875q0 2.28125 0.109375 2.890625q0.109375 0.59375 0.40625 1.15625l-1.703125 0q-0.265625 -0.515625 -0.328125 -1.1875zm-0.140625 -3.671875q-0.890625 0.375 -2.671875 0.625q-1.015625 0.140625 -1.4375 0.328125q-0.421875 0.1875 -0.65625 0.53125q-0.21875 0.34375 -0.21875 0.78125q0 0.65625 0.5 1.09375q0.5 0.4375 1.453125 0.4375q0.9375 0 1.671875 -0.40625q0.75 -0.421875 1.09375 -1.140625q0.265625 -0.5625 0.265625 -1.640625l0 -0.609375zm4.1257324 8.578125l-0.1875 -1.53125q0.546875 0.140625 0.9375 0.140625q0.546875 0 0.875 -0.1875q0.328125 -0.171875 0.546875 -0.5q0.15625 -0.25 0.5 -1.21875q0.046875 -0.140625 0.140625 -0.40625l-3.671875 -9.6875l1.765625 0l2.015625 5.59375q0.390625 1.078125 0.703125 2.25q0.28125 -1.125 0.671875 -2.203125l2.078125 -5.640625l1.640625 0l-3.6875 9.828125q-0.59375 1.609375 -0.921875 2.203125q-0.4375 0.8125 -1.0 1.1875q-0.5625 0.375 -1.34375 0.375q-0.484375 0 -1.0625 -0.203125zm16.03125 -6.828125l1.6875 0.203125q-0.40625 1.484375 -1.484375 2.3125q-1.078125 0.8125 -2.765625 0.8125q-2.125 0 -3.375 -1.296875q-1.234375 -1.3125 -1.234375 -3.671875q0 -2.453125 1.25 -3.796875q1.265625 -1.34375 3.265625 -1.34375q1.9375 0 3.15625 1.328125q1.234375 1.3125 1.234375 3.703125q0 0.15625 0 0.4375l-7.21875 0q0.09375 1.59375 0.90625 2.453125q0.8125 0.84375 2.015625 0.84375q0.90625 0 1.546875 -0.46875q0.640625 -0.484375 1.015625 -1.515625zm-5.390625 -2.65625l5.40625 0q-0.109375 -1.21875 -0.625 -1.828125q-0.78125 -0.953125 -2.03125 -0.953125q-1.125 0 -1.90625 0.765625q-0.765625 0.75 -0.84375 2.015625zm9.125732 5.765625l0 -9.671875l1.46875 0l0 1.46875q0.5625 -1.03125 1.03125 -1.359375q0.484375 -0.328125 1.0625 -0.328125q0.828125 0 1.6875 0.53125l-0.5625 1.515625q-0.609375 -0.359375 -1.203125 -0.359375q-0.546875 0 -0.96875 0.328125q-0.421875 0.328125 -0.609375 0.890625q-0.28125 0.875 -0.28125 1.921875l0 5.0625l-1.625 0z" fill-rule="nonzero"/><path fill="#6d9eeb" d="m329.958 148.90158l0 0c0 -4.3255157 3.5065002 -7.8320312 7.8320312 -7.8320312l176.46191 0c2.0772095 0 4.069275 0.8251648 5.538086 2.2939453c1.468811 1.4687958 2.2939453 3.4608917 2.2939453 5.538086l0 31.32808c0 4.3255005 -3.5065308 7.832016 -7.8320312 7.832016l-176.46191 0c-4.325531 0 -7.8320312 -3.5065155 -7.8320312 -7.832016z" fill-rule="evenodd"/><path stroke="#595959" stroke-width="1.0" stroke-linejoin="round" stroke-linecap="butt" d="m329.958 148.90158l0 0c0 -4.3255157 3.5065002 -7.8320312 7.8320312 -7.8320312l176.46191 0c2.0772095 0 4.069275 0.8251648 5.538086 2.2939453c1.468811 1.4687958 2.2939453 3.4608917 2.2939453 5.538086l0 31.32808c0 4.3255005 -3.5065308 7.832016 -7.8320312 7.832016l-176.46191 0c-4.325531 0 -7.8320312 -3.5065155 -7.8320312 -7.832016z" fill-rule="evenodd"/><path fill="#000000" d="m412.2085 171.48561l0 -11.78125l-4.40625 0l0 -1.578125l10.578125 0l0 1.578125l-4.40625 0l0 11.78125l-1.765625 0zm17.520996 -4.6875l1.765625 0.453125q-0.5625 2.171875 -2.0 3.328125q-1.4375 1.140625 -3.53125 1.140625q-2.15625 0 -3.515625 -0.875q-1.34375 -0.890625 -2.0625 -2.546875q-0.703125 -1.671875 -0.703125 -3.59375q0 -2.078125 0.796875 -3.625q0.796875 -1.5625 2.265625 -2.359375q1.484375 -0.8125 3.25 -0.8125q2.0 0 3.359375 1.015625q1.375 1.015625 1.90625 2.875l-1.734375 0.40625q-0.46875 -1.453125 -1.359375 -2.109375q-0.875 -0.671875 -2.203125 -0.671875q-1.546875 0 -2.578125 0.734375q-1.03125 0.734375 -1.453125 1.984375q-0.421875 1.234375 -0.421875 2.5625q0 1.703125 0.5 2.96875q0.5 1.265625 1.546875 1.90625q1.046875 0.625 2.265625 0.625q1.484375 0 2.515625 -0.859375q1.03125 -0.859375 1.390625 -2.546875zm3.941681 4.6875l0 -13.359375l5.046875 0q1.328125 0 2.03125 0.125q0.96875 0.171875 1.640625 0.640625q0.671875 0.453125 1.078125 1.28125q0.40625 0.828125 0.40625 1.828125q0 1.703125 -1.09375 2.890625q-1.078125 1.171875 -3.921875 1.171875l-3.421875 0l0 5.421875l-1.765625 0zm1.765625 -7.0l3.453125 0q1.71875 0 2.4375 -0.640625q0.71875 -0.640625 0.71875 -1.796875q0 -0.84375 -0.421875 -1.4375q-0.421875 -0.59375 -1.125 -0.78125q-0.4375 -0.125 -1.640625 -0.125l-3.421875 0l0 4.78125z" fill-rule="nonzero"/><path fill="#6d9eeb" d="m329.958 231.2231l0 0c0 -4.3255005 3.5065002 -7.832016 7.8320312 -7.832016l388.17847 0c2.0772095 0 4.069275 0.82514954 5.538086 2.2939453c1.46875 1.4687805 2.2939453 3.4608917 2.2939453 5.5380707l0 31.32808c0 4.3255005 -3.5065308 7.8320312 -7.8320312 7.8320312l-388.17847 0c-4.325531 0 -7.8320312 -3.5065308 -7.8320312 -7.8320312z" fill-rule="evenodd"/><path stroke="#595959" stroke-width="1.0" stroke-linejoin="round" stroke-linecap="butt" d="m329.958 231.2231l0 0c0 -4.3255005 3.5065002 -7.832016 7.8320312 -7.832016l388.17847 0c2.0772095 0 4.069275 0.82514954 5.538086 2.2939453c1.46875 1.4687805 2.2939453 3.4608917 2.2939453 5.5380707l0 31.32808c0 4.3255005 -3.5065308 7.8320312 -7.8320312 7.8320312l-388.17847 0c-4.325531 0 -7.8320312 -3.5065308 -7.8320312 -7.8320312z" fill-rule="evenodd"/><path fill="#000000" d="m514.9483 253.80714l0 -13.359375l1.765625 0l0 13.359375l-1.765625 0zm4.8864136 0l0 -13.359375l5.046875 0q1.328125 0 2.03125 0.125q0.96875 0.171875 1.640625 0.640625q0.671875 0.453125 1.078125 1.28125q0.40625 0.828125 0.40625 1.828125q0 1.703125 -1.09375 2.890625q-1.078125 1.171875 -3.921875 1.171875l-3.421875 0l0 5.421875l-1.765625 0zm1.765625 -7.0l3.453125 0q1.71875 0 2.4375 -0.640625q0.71875 -0.640625 0.71875 -1.796875q0 -0.84375 -0.421875 -1.4375q-0.421875 -0.59375 -1.125 -0.78125q-0.4375 -0.125 -1.640625 -0.125l-3.421875 0l0 4.78125zm13.1622925 7.0l-3.6875 -9.671875l1.734375 0l2.078125 5.796875q0.328125 0.9375 0.625 1.9375q0.203125 -0.765625 0.609375 -1.828125l2.140625 -5.90625l1.6875 0l-3.65625 9.671875l-1.53125 0zm14.6875 -10.078125l-1.625 0.125q-0.21875 -0.96875 -0.625 -1.40625q-0.65625 -0.703125 -1.640625 -0.703125q-0.78125 0 -1.375 0.4375q-0.765625 0.5625 -1.21875 1.65625q-0.453125 1.078125 -0.46875 3.078125q0.59375 -0.890625 1.453125 -1.328125q0.859375 -0.4375 1.796875 -0.4375q1.640625 0 2.78125 1.203125q1.15625 1.203125 1.15625 3.109375q0 1.265625 -0.546875 2.34375q-0.53125 1.078125 -1.484375 1.65625q-0.9375 0.578125 -2.140625 0.578125q-2.0625 0 -3.359375 -1.5q-1.28125 -1.515625 -1.28125 -4.984375q0 -3.875 1.421875 -5.625q1.25 -1.53125 3.375 -1.53125q1.5625 0 2.5625 0.890625q1.015625 0.875 1.21875 2.4375zm-6.6875 5.75q0 0.84375 0.359375 1.625q0.359375 0.765625 1.0 1.171875q0.640625 0.40625 1.359375 0.40625q1.03125 0 1.78125 -0.828125q0.75 -0.84375 0.75 -2.28125q0 -1.390625 -0.734375 -2.1875q-0.734375 -0.796875 -1.859375 -0.796875q-1.109375 0 -1.890625 0.796875q-0.765625 0.796875 -0.765625 2.09375z" fill-rule="nonzero"/><path fill="#6d9eeb" d="m329.958 315.41208l0 0c0 -5.357605 4.3432007 -9.700806 9.700775 -9.700806l93.543304 0c2.572815 0 5.0402527 1.0220642 6.859497 2.8413086c1.8192444 1.8192444 2.8413086 4.286682 2.8413086 6.859497l0 38.80313c0 5.357605 -4.3432007 9.700806 -9.700806 9.700806l-93.543304 0c-5.3575745 0 -9.700775 -4.3432007 -9.700775 -9.700806z" fill-rule="evenodd"/><path stroke="#595959" stroke-width="1.0" stroke-linejoin="round" stroke-linecap="butt" d="m329.958 315.41208l0 0c0 -5.357605 4.3432007 -9.700806 9.700775 -9.700806l93.543304 0c2.572815 0 5.0402527 1.0220642 6.859497 2.8413086c1.8192444 1.8192444 2.8413086 4.286682 2.8413086 6.859497l0 38.80313c0 5.357605 -4.3432007 9.700806 -9.700806 9.700806l-93.543304 0c-5.3575745 0 -9.700775 -4.3432007 -9.700775 -9.700806z" fill-rule="evenodd"/><path fill="#000000" d="m352.63632 341.73364l0 -13.359375l9.65625 0l0 1.578125l-7.875 0l0 4.09375l7.375 0l0 1.5625l-7.375 0l0 4.546875l8.1875 0l0 1.578125l-9.96875 0zm15.787323 -1.46875l0.234375 1.453125q-0.6875 0.140625 -1.234375 0.140625q-0.890625 0 -1.390625 -0.28125q-0.484375 -0.28125 -0.6875 -0.734375q-0.203125 -0.46875 -0.203125 -1.9375l0 -5.578125l-1.203125 0l0 -1.265625l1.203125 0l0 -2.390625l1.625 -0.984375l0 3.375l1.65625 0l0 1.265625l-1.65625 0l0 5.671875q0 0.6875 0.078125 0.890625q0.09375 0.203125 0.28125 0.328125q0.203125 0.109375 0.578125 0.109375q0.265625 0 0.71875 -0.0625zm1.6051941 1.46875l0 -13.359375l1.640625 0l0 4.796875q1.140625 -1.328125 2.890625 -1.328125q1.078125 0 1.859375 0.421875q0.796875 0.421875 1.140625 1.171875q0.34375 0.75 0.34375 2.171875l0 6.125l-1.640625 0l0 -6.125q0 -1.234375 -0.53125 -1.796875q-0.53125 -0.5625 -1.515625 -0.5625q-0.71875 0 -1.359375 0.390625q-0.640625 0.375 -0.921875 1.015625q-0.265625 0.640625 -0.265625 1.78125l0 5.296875l-1.640625 0zm17.000702 -3.109375l1.6875 0.203125q-0.40625 1.484375 -1.484375 2.3125q-1.078125 0.8125 -2.765625 0.8125q-2.125 0 -3.375 -1.296875q-1.234375 -1.3125 -1.234375 -3.671875q0 -2.453125 1.25 -3.796875q1.265625 -1.34375 3.265625 -1.34375q1.9375 0 3.15625 1.328125q1.234375 1.3125 1.234375 3.703125q0 0.15625 0 0.4375l-7.21875 0q0.09375 1.59375 0.90625 2.453125q0.8125 0.84375 2.015625 0.84375q0.90625 0 1.546875 -0.46875q0.640625 -0.484375 1.015625 -1.515625zm-5.390625 -2.65625l5.40625 0q-0.109375 -1.21875 -0.625 -1.828125q-0.78125 -0.953125 -2.03125 -0.953125q-1.125 0 -1.90625 0.765625q-0.765625 0.75 -0.84375 2.015625zm9.125732 5.765625l0 -9.671875l1.46875 0l0 1.46875q0.5625 -1.03125 1.03125 -1.359375q0.484375 -0.328125 1.0625 -0.328125q0.828125 0 1.6875 0.53125l-0.5625 1.515625q-0.609375 -0.359375 -1.203125 -0.359375q-0.546875 0 -0.96875 0.328125q-0.421875 0.328125 -0.609375 0.890625q-0.28125 0.875 -0.28125 1.921875l0 5.0625l-1.625 0zm6.228302 0l0 -9.671875l1.46875 0l0 1.375q1.0625 -1.59375 3.078125 -1.59375q0.875 0 1.609375 0.3125q0.734375 0.3125 1.09375 0.828125q0.375 0.5 0.515625 1.203125q0.09375 0.453125 0.09375 1.59375l0 5.953125l-1.640625 0l0 -5.890625q0 -1.0 -0.203125 -1.484375q-0.1875 -0.5 -0.671875 -0.796875q-0.484375 -0.296875 -1.140625 -0.296875q-1.046875 0 -1.8125 0.671875q-0.75 0.65625 -0.75 2.515625l0 5.28125l-1.640625 0zm17.000702 -3.109375l1.6875 0.203125q-0.40625 1.484375 -1.484375 2.3125q-1.078125 0.8125 -2.765625 0.8125q-2.125 0 -3.375 -1.296875q-1.234375 -1.3125 -1.234375 -3.671875q0 -2.453125 1.25 -3.796875q1.265625 -1.34375 3.265625 -1.34375q1.9375 0 3.15625 1.328125q1.234375 1.3125 1.234375 3.703125q0 0.15625 0 0.4375l-7.21875 0q0.09375 1.59375 0.90625 2.453125q0.8125 0.84375 2.015625 0.84375q0.90625 0 1.546875 -0.46875q0.640625 -0.484375 1.015625 -1.515625zm-5.390625 -2.65625l5.40625 0q-0.109375 -1.21875 -0.625 -1.828125q-0.78125 -0.953125 -2.03125 -0.953125q-1.125 0 -1.90625 0.765625q-0.765625 0.75 -0.84375 2.015625zm12.719482 4.296875l0.234375 1.453125q-0.6875 0.140625 -1.234375 0.140625q-0.890625 0 -1.390625 -0.28125q-0.484375 -0.28125 -0.6875 -0.734375q-0.203125 -0.46875 -0.203125 -1.9375l0 -5.578125l-1.203125 0l0 -1.265625l1.203125 0l0 -2.390625l1.625 -0.984375l0 3.375l1.65625 0l0 1.265625l-1.65625 0l0 5.671875q0 0.6875 0.078125 0.890625q0.09375 0.203125 0.28125 0.328125q0.203125 0.109375 0.578125 0.109375q0.265625 0 0.71875 -0.0625z" fill-rule="nonzero"/><path fill="#6d9eeb" d="m536.92126 149.66273l0 0c0 -4.3255157 3.5065308 -7.8320312 7.8320312 -7.8320312l176.46191 0c2.0772095 0 4.069275 0.8251648 5.538086 2.2939453c1.468811 1.4687958 2.2939453 3.460907 2.2939453 5.538086l0 31.32808c0 4.3255005 -3.5065308 7.832016 -7.8320312 7.832016l-176.46191 0c-4.3255005 0 -7.8320312 -3.5065155 -7.8320312 -7.832016z" fill-rule="evenodd"/><path stroke="#595959" stroke-width="1.0" stroke-linejoin="round" stroke-linecap="butt" d="m536.92126 149.66273l0 0c0 -4.3255157 3.5065308 -7.8320312 7.8320312 -7.8320312l176.46191 0c2.0772095 0 4.069275 0.8251648 5.538086 2.2939453c1.468811 1.4687958 2.2939453 3.460907 2.2939453 5.538086l0 31.32808c0 4.3255005 -3.5065308 7.832016 -7.8320312 7.832016l-176.46191 0c-4.3255005 0 -7.8320312 -3.5065155 -7.8320312 -7.832016z" fill-rule="evenodd"/><path fill="#000000" d="m623.4927 158.88739l1.765625 0l0 7.71875q0 2.015625 -0.453125 3.203125q-0.453125 1.1875 -1.640625 1.9375q-1.1875 0.734375 -3.125 0.734375q-1.875 0 -3.078125 -0.640625q-1.1875 -0.65625 -1.703125 -1.875q-0.5 -1.234375 -0.5 -3.359375l0 -7.71875l1.765625 0l0 7.71875q0 1.734375 0.3125 2.5625q0.328125 0.8125 1.109375 1.265625q0.796875 0.453125 1.9375 0.453125q1.953125 0 2.78125 -0.890625q0.828125 -0.890625 0.828125 -3.390625l0 -7.71875zm4.7072754 13.359375l0 -13.359375l4.609375 0q1.546875 0 2.375 0.203125q1.140625 0.25 1.953125 0.953125q1.0625 0.890625 1.578125 2.28125q0.53125 1.390625 0.53125 3.171875q0 1.515625 -0.359375 2.703125q-0.359375 1.171875 -0.921875 1.9375q-0.546875 0.765625 -1.203125 1.21875q-0.65625 0.4375 -1.59375 0.671875q-0.9375 0.21875 -2.140625 0.21875l-4.828125 0zm1.765625 -1.578125l2.859375 0q1.3125 0 2.0625 -0.234375q0.75 -0.25 1.203125 -0.703125q0.625 -0.625 0.96875 -1.6875q0.359375 -1.0625 0.359375 -2.578125q0 -2.09375 -0.6875 -3.21875q-0.6875 -1.125 -1.671875 -1.5q-0.703125 -0.28125 -2.28125 -0.28125l-2.8125 0l0 10.203125zm11.707336 1.578125l0 -13.359375l5.046875 0q1.328125 0 2.03125 0.125q0.96875 0.171875 1.640625 0.640625q0.671875 0.453125 1.078125 1.28125q0.40625 0.828125 0.40625 1.828125q0 1.703125 -1.09375 2.890625q-1.078125 1.171875 -3.921875 1.171875l-3.421875 0l0 5.421875l-1.765625 0zm1.765625 -7.0l3.453125 0q1.71875 0 2.4375 -0.640625q0.71875 -0.640625 0.71875 -1.796875q0 -0.84375 -0.421875 -1.4375q-0.421875 -0.59375 -1.125 -0.78125q-0.4375 -0.125 -1.640625 -0.125l-3.421875 0l0 4.78125z" fill-rule="nonzero"/><path fill="#6d9eeb" d="m450.91077 316.1758l0 0c0 -5.3575745 4.34317 -9.700775 9.700775 -9.700775l62.204742 0c2.572815 0 5.040222 1.0220337 6.859497 2.8413086c1.8192139 1.8192444 2.8413086 4.286682 2.8413086 6.8594666l0 38.80316c0 5.357605 -4.3432007 9.700775 -9.700806 9.700775l-62.204742 0l0 0c-5.357605 0 -9.700775 -4.34317 -9.700775 -9.700775z" fill-rule="evenodd"/><path stroke="#595959" stroke-width="1.0" stroke-linejoin="round" stroke-linecap="butt" d="m450.91077 316.1758l0 0c0 -5.3575745 4.34317 -9.700775 9.700775 -9.700775l62.204742 0c2.572815 0 5.040222 1.0220337 6.859497 2.8413086c1.8192139 1.8192444 2.8413086 4.286682 2.8413086 6.8594666l0 38.80316c0 5.357605 -4.3432007 9.700775 -9.700806 9.700775l-62.204742 0l0 0c-5.357605 0 -9.700775 -4.34317 -9.700775 -9.700775z" fill-rule="evenodd"/><path fill="#000000" d="m473.72604 342.4974l-3.53125 -13.359375l1.8125 0l2.03125 8.765625q0.328125 1.375 0.5625 2.71875q0.5 -2.140625 0.59375 -2.46875l2.546875 -9.015625l2.125 0l1.921875 6.765625q0.71875 2.515625 1.03125 4.71875q0.265625 -1.265625 0.671875 -2.890625l2.09375 -8.59375l1.78125 0l-3.671875 13.359375l-1.703125 0l-2.8125 -10.171875q-0.359375 -1.28125 -0.421875 -1.5625q-0.203125 0.90625 -0.390625 1.5625l-2.828125 10.171875l-1.8125 0zm15.077423 -11.46875l0 -1.890625l1.640625 0l0 1.890625l-1.640625 0zm0 11.46875l0 -9.671875l1.640625 0l0 9.671875l-1.640625 0zm3.504181 -4.015625l0 -1.640625l5.03125 0l0 1.640625l-5.03125 0zm7.150177 4.015625l0 -13.359375l9.015625 0l0 1.578125l-7.25 0l0 4.140625l6.265625 0l0 1.578125l-6.265625 0l0 6.0625l-1.765625 0zm11.099121 -11.46875l0 -1.890625l1.640625 0l0 1.890625l-1.640625 0zm0 11.46875l0 -9.671875l1.640625 0l0 9.671875l-1.640625 0z" fill-rule="nonzero"/><path fill="#6d9eeb" d="m541.6903 309.02887l0 0c0 -2.2526245 1.8261108 -4.0787354 4.0787354 -4.0787354l183.9685 0c1.0817261 0 2.1192017 0.42971802 2.8840942 1.1946411c0.7648926 0.7648926 1.1946411 1.8023376 1.1946411 2.8840942l0 16.314972c0 2.2526245 -1.8261108 4.0787354 -4.0787354 4.0787354l-183.9685 0c-2.2526245 0 -4.0787354 -1.8261108 -4.0787354 -4.0787354z" fill-rule="evenodd"/><path stroke="#595959" stroke-width="1.0" stroke-linejoin="round" stroke-linecap="butt" d="m541.6903 309.02887l0 0c0 -2.2526245 1.8261108 -4.0787354 4.0787354 -4.0787354l183.9685 0c1.0817261 0 2.1192017 0.42971802 2.8840942 1.1946411c0.7648926 0.7648926 1.1946411 1.8023376 1.1946411 2.8840942l0 16.314972c0 2.2526245 -1.8261108 4.0787354 -4.0787354 4.0787354l-183.9685 0c-2.2526245 0 -4.0787354 -1.8261108 -4.0787354 -4.0787354z" fill-rule="evenodd"/><path fill="#000000" d="m613.04126 324.10635l0 -11.78125l-4.40625 0l0 -1.578125l10.578125 0l0 1.578125l-4.40625 0l0 11.78125l-1.765625 0zm7.786621 0l0 -13.359375l1.640625 0l0 4.796875q1.140625 -1.328125 2.890625 -1.328125q1.078125 0 1.859375 0.421875q0.796875 0.421875 1.140625 1.171875q0.34375 0.75 0.34375 2.171875l0 6.125l-1.640625 0l0 -6.125q0 -1.234375 -0.53125 -1.796875q-0.53125 -0.5625 -1.515625 -0.5625q-0.71875 0 -1.359375 0.390625q-0.640625 0.375 -0.921875 1.015625q-0.265625 0.640625 -0.265625 1.78125l0 5.296875l-1.640625 0zm10.360107 0l0 -9.671875l1.46875 0l0 1.46875q0.5625 -1.03125 1.03125 -1.359375q0.484375 -0.328125 1.0625 -0.328125q0.828125 0 1.6875 0.53125l-0.5625 1.515625q-0.609375 -0.359375 -1.203125 -0.359375q-0.546875 0 -0.96875 0.328125q-0.421875 0.328125 -0.609375 0.890625q-0.28125 0.875 -0.28125 1.921875l0 5.0625l-1.625 0zm12.8532715 -3.109375l1.6875 0.203125q-0.40625 1.484375 -1.484375 2.3125q-1.078125 0.8125 -2.765625 0.8125q-2.125 0 -3.375 -1.296875q-1.234375 -1.3125 -1.234375 -3.671875q0 -2.453125 1.25 -3.796875q1.265625 -1.34375 3.265625 -1.34375q1.9375 0 3.15625 1.328125q1.234375 1.3125 1.234375 3.703125q0 0.15625 0 0.4375l-7.21875 0q0.09375 1.59375 0.90625 2.453125q0.8125 0.84375 2.015625 0.84375q0.90625 0 1.546875 -0.46875q0.640625 -0.484375 1.015625 -1.515625zm-5.390625 -2.65625l5.40625 0q-0.109375 -1.21875 -0.625 -1.828125q-0.78125 -0.953125 -2.03125 -0.953125q-1.125 0 -1.90625 0.765625q-0.765625 0.75 -0.84375 2.015625zm15.453857 4.578125q-0.921875 0.765625 -1.765625 1.09375q-0.828125 0.3125 -1.796875 0.3125q-1.59375 0 -2.453125 -0.78125q-0.859375 -0.78125 -0.859375 -1.984375q0 -0.71875 0.328125 -1.296875q0.328125 -0.59375 0.84375 -0.9375q0.53125 -0.359375 1.1875 -0.546875q0.46875 -0.125 1.453125 -0.25q1.984375 -0.234375 2.921875 -0.5625q0.015625 -0.34375 0.015625 -0.421875q0 -1.0 -0.46875 -1.421875q-0.625 -0.546875 -1.875 -0.546875q-1.15625 0 -1.703125 0.40625q-0.546875 0.40625 -0.8125 1.421875l-1.609375 -0.21875q0.21875 -1.015625 0.71875 -1.640625q0.5 -0.640625 1.453125 -0.984375q0.953125 -0.34375 2.1875 -0.34375q1.25 0 2.015625 0.296875q0.78125 0.28125 1.140625 0.734375q0.375 0.4375 0.515625 1.109375q0.078125 0.421875 0.078125 1.515625l0 2.1875q0 2.28125 0.109375 2.890625q0.109375 0.59375 0.40625 1.15625l-1.703125 0q-0.265625 -0.515625 -0.328125 -1.1875zm-0.140625 -3.671875q-0.890625 0.375 -2.671875 0.625q-1.015625 0.140625 -1.4375 0.328125q-0.421875 0.1875 -0.65625 0.53125q-0.21875 0.34375 -0.21875 0.78125q0 0.65625 0.5 1.09375q0.5 0.4375 1.453125 0.4375q0.9375 0 1.671875 -0.40625q0.75 -0.421875 1.09375 -1.140625q0.265625 -0.5625 0.265625 -1.640625l0 -0.609375zm10.469482 4.859375l0 -1.21875q-0.90625 1.4375 -2.703125 1.4375q-1.15625 0 -2.125 -0.640625q-0.96875 -0.640625 -1.5 -1.78125q-0.53125 -1.140625 -0.53125 -2.625q0 -1.453125 0.484375 -2.625q0.484375 -1.1875 1.4375 -1.8125q0.96875 -0.625 2.171875 -0.625q0.875 0 1.546875 0.375q0.6875 0.359375 1.109375 0.953125l0 -4.796875l1.640625 0l0 13.359375l-1.53125 0zm-5.171875 -4.828125q0 1.859375 0.78125 2.78125q0.78125 0.921875 1.84375 0.921875q1.078125 0 1.828125 -0.875q0.75 -0.890625 0.75 -2.6875q0 -1.984375 -0.765625 -2.90625q-0.765625 -0.9375 -1.890625 -0.9375q-1.078125 0 -1.8125 0.890625q-0.734375 0.890625 -0.734375 2.8125z" fill-rule="nonzero"/><path fill="#6d9eeb" d="m541.6903 344.2861l0 0c0 -2.2526245 1.8261108 -4.078766 4.0787354 -4.078766l97.98425 0c1.0817261 0 2.1192017 0.42974854 2.8840942 1.1946411c0.7648926 0.7649231 1.1946411 1.8023682 1.1946411 2.8841248l0 16.314941c0 2.2526245 -1.8261108 4.0787354 -4.0787354 4.0787354l-97.98425 0c-2.2526245 0 -4.0787354 -1.8261108 -4.0787354 -4.0787354z" fill-rule="evenodd"/><path stroke="#595959" stroke-width="1.0" stroke-linejoin="round" stroke-linecap="butt" d="m541.6903 344.2861l0 0c0 -2.2526245 1.8261108 -4.078766 4.0787354 -4.078766l97.98425 0c1.0817261 0 2.1192017 0.42974854 2.8840942 1.1946411c0.7648926 0.7649231 1.1946411 1.8023682 1.1946411 2.8841248l0 16.314941c0 2.2526245 -1.8261108 4.0787354 -4.0787354 4.0787354l-97.98425 0c-2.2526245 0 -4.0787354 -1.8261108 -4.0787354 -4.0787354z" fill-rule="evenodd"/><path fill="#000000" d="m561.74756 352.12918q-1.015625 -0.375 -1.515625 -1.0625q-0.484375 -0.703125 -0.484375 -1.671875q0 -1.453125 1.046875 -2.4375q1.046875 -1.0 2.78125 -1.0q1.75 0 2.8125 1.015625q1.078125 1.015625 1.078125 2.46875q0 0.9375 -0.5 1.625q-0.484375 0.6875 -1.46875 1.0625q1.21875 0.390625 1.859375 1.28125q0.65625 0.890625 0.65625 2.140625q0 1.703125 -1.21875 2.875q-1.21875 1.171875 -3.1875 1.171875q-1.984375 0 -3.203125 -1.171875q-1.203125 -1.171875 -1.203125 -2.921875q0 -1.3125 0.65625 -2.1875q0.671875 -0.875 1.890625 -1.1875zm-0.328125 -2.78125q0 0.9375 0.609375 1.546875q0.609375 0.59375 1.59375 0.59375q0.9375 0 1.546875 -0.59375q0.609375 -0.59375 0.609375 -1.453125q0 -0.90625 -0.625 -1.515625q-0.625 -0.625 -1.5625 -0.625q-0.9375 0 -1.5625 0.609375q-0.609375 0.59375 -0.609375 1.4375zm-0.53125 6.15625q0 0.703125 0.328125 1.359375q0.34375 0.65625 1.0 1.015625q0.65625 0.359375 1.40625 0.359375q1.171875 0 1.9375 -0.75q0.765625 -0.75 0.765625 -1.921875q0 -1.1875 -0.796875 -1.953125q-0.78125 -0.78125 -1.953125 -0.78125q-1.15625 0 -1.921875 0.765625q-0.765625 0.765625 -0.765625 1.90625zm8.719482 -2.734375q0 -2.359375 0.484375 -3.796875q0.484375 -1.453125 1.4375 -2.234375q0.96875 -0.78125 2.421875 -0.78125q1.078125 0 1.890625 0.4375q0.8125 0.421875 1.328125 1.25q0.53125 0.8125 0.828125 1.984375q0.3125 1.15625 0.3125 3.140625q0 2.359375 -0.484375 3.8125q-0.484375 1.4375 -1.453125 2.234375q-0.953125 0.78125 -2.421875 0.78125q-1.921875 0 -3.03125 -1.390625q-1.3125 -1.671875 -1.3125 -5.4375zm1.671875 0q0 3.296875 0.765625 4.390625q0.78125 1.078125 1.90625 1.078125q1.140625 0 1.90625 -1.09375q0.765625 -1.09375 0.765625 -4.375q0 -3.296875 -0.765625 -4.375q-0.765625 -1.078125 -1.921875 -1.078125q-1.125 0 -1.796875 0.953125q-0.859375 1.21875 -0.859375 4.5zm17.313232 5.015625l0 1.578125l-8.828125 0q-0.015625 -0.59375 0.1875 -1.140625q0.34375 -0.90625 1.078125 -1.78125q0.75 -0.875 2.15625 -2.015625q2.171875 -1.78125 2.9375 -2.828125q0.765625 -1.046875 0.765625 -1.96875q0 -0.984375 -0.703125 -1.640625q-0.6875 -0.671875 -1.8125 -0.671875q-1.1875 0 -1.90625 0.71875q-0.703125 0.703125 -0.703125 1.953125l-1.6875 -0.171875q0.171875 -1.890625 1.296875 -2.875q1.140625 -0.984375 3.03125 -0.984375q1.921875 0 3.046875 1.0625q1.125 1.0625 1.125 2.640625q0 0.796875 -0.328125 1.578125q-0.328125 0.78125 -1.09375 1.640625q-0.75 0.84375 -2.53125 2.34375q-1.46875 1.234375 -1.890625 1.6875q-0.421875 0.4375 -0.6875 0.875l6.546875 0zm2.6726074 1.578125l0 -1.875l1.875 0l0 1.875l-1.875 0zm10.448914 0l-1.640625 0l0 -10.453125q-0.59375 0.5625 -1.5625 1.140625q-0.953125 0.5625 -1.71875 0.84375l0 -1.59375q1.375 -0.640625 2.40625 -1.5625q1.03125 -0.921875 1.453125 -1.78125l1.0625 0l0 13.40625zm4.2038574 -3.5l1.71875 -0.140625q0.1875 1.25 0.875 1.890625q0.703125 0.625 1.6875 0.625q1.1875 0 2.0 -0.890625q0.828125 -0.890625 0.828125 -2.359375q0 -1.40625 -0.796875 -2.21875q-0.78125 -0.8125 -2.0625 -0.8125q-0.78125 0 -1.421875 0.359375q-0.640625 0.359375 -1.0 0.9375l-1.546875 -0.203125l1.296875 -6.859375l6.640625 0l0 1.5625l-5.328125 0l-0.71875 3.59375q1.203125 -0.84375 2.515625 -0.84375q1.75 0 2.953125 1.21875q1.203125 1.203125 1.203125 3.109375q0 1.8125 -1.046875 3.140625q-1.296875 1.625 -3.515625 1.625q-1.8125 0 -2.96875 -1.015625q-1.15625 -1.03125 -1.3125 -2.71875zm11.281921 3.5l0 -1.875l1.875 0l0 1.875l-1.875 0zm9.5271 0l0 -3.203125l-5.796875 0l0 -1.5l6.09375 -8.65625l1.34375 0l0 8.65625l1.796875 0l0 1.5l-1.796875 0l0 3.203125l-1.640625 0zm0 -4.703125l0 -6.015625l-4.1875 6.015625l4.1875 0z" fill-rule="nonzero"/><path fill="#6d9eeb" d="m652.22046 343.52426l0 0c0 -2.2526245 1.8261108 -4.0787354 4.0787354 -4.0787354l73.44885 0c1.0817261 0 2.1192017 0.42971802 2.8840942 1.1946411c0.7648926 0.7648926 1.1946411 1.8023376 1.1946411 2.8840942l0 16.314972c0 2.2526245 -1.8261108 4.0787354 -4.0787354 4.0787354l-73.44885 0c-2.2526245 0 -4.0787354 -1.8261108 -4.0787354 -4.0787354z" fill-rule="evenodd"/><path stroke="#595959" stroke-width="1.0" stroke-linejoin="round" stroke-linecap="butt" d="m652.22046 343.52426l0 0c0 -2.2526245 1.8261108 -4.0787354 4.0787354 -4.0787354l73.44885 0c1.0817261 0 2.1192017 0.42971802 2.8840942 1.1946411c0.7648926 0.7648926 1.1946411 1.8023376 1.1946411 2.8840942l0 16.314972c0 2.2526245 -1.8261108 4.0787354 -4.0787354 4.0787354l-73.44885 0c-2.2526245 0 -4.0787354 -1.8261108 -4.0787354 -4.0787354z" fill-rule="evenodd"/><path fill="#000000" d="m676.7516 358.60175l0 -13.359375l5.015625 0q1.53125 0 2.453125 0.40625q0.921875 0.40625 1.4375 1.25q0.53125 0.84375 0.53125 1.765625q0 0.859375 -0.46875 1.625q-0.453125 0.75 -1.390625 1.203125q1.203125 0.359375 1.859375 1.21875q0.65625 0.859375 0.65625 2.015625q0 0.9375 -0.40625 1.75q-0.390625 0.796875 -0.984375 1.234375q-0.578125 0.4375 -1.453125 0.671875q-0.875 0.21875 -2.15625 0.21875l-5.09375 0zm1.78125 -7.75l2.875 0q1.1875 0 1.6875 -0.140625q0.671875 -0.203125 1.015625 -0.671875q0.34375 -0.46875 0.34375 -1.171875q0 -0.65625 -0.328125 -1.15625q-0.3125 -0.515625 -0.90625 -0.703125q-0.59375 -0.1875 -2.03125 -0.1875l-2.65625 0l0 4.03125zm0 6.171875l3.3125 0q0.859375 0 1.203125 -0.0625q0.609375 -0.109375 1.015625 -0.359375q0.421875 -0.265625 0.6875 -0.75q0.265625 -0.484375 0.265625 -1.125q0 -0.75 -0.390625 -1.296875q-0.375 -0.546875 -1.0625 -0.765625q-0.671875 -0.234375 -1.953125 -0.234375l-3.078125 0l0 4.59375zm10.6622925 1.578125l0 -13.359375l1.78125 0l0 11.78125l6.5625 0l0 1.578125l-8.34375 0zm10.485107 0l0 -13.359375l9.65625 0l0 1.578125l-7.875 0l0 4.09375l7.375 0l0 1.5625l-7.375 0l0 4.546875l8.1875 0l0 1.578125l-9.96875 0z" fill-rule="nonzero"/><path fill="#000000" fill-opacity="0.0" d="m132.76378 146.79265l112.944885 0l0 37.07086l-112.944885 0z" fill-rule="evenodd"/><path fill="#000000" d="m145.2169 168.59265l0 -8.421875l-3.140625 0l0 -1.125l7.5625 0l0 1.125l-3.15625 0l0 8.421875l-1.265625 0zm5.0528107 0l0 -6.90625l1.0625 0l0 1.046875q0.40625 -0.734375 0.734375 -0.96875q0.34375 -0.234375 0.765625 -0.234375q0.59375 0 1.203125 0.375l-0.40625 1.078125q-0.4375 -0.25 -0.859375 -0.25q-0.390625 0 -0.703125 0.234375q-0.296875 0.234375 -0.421875 0.640625q-0.203125 0.625 -0.203125 1.359375l0 3.625l-1.171875 0zm8.96962 -0.859375q-0.65625 0.5625 -1.265625 0.796875q-0.59375 0.21875 -1.28125 0.21875q-1.140625 0 -1.75 -0.546875q-0.609375 -0.5625 -0.609375 -1.4375q0 -0.5 0.21875 -0.921875q0.234375 -0.421875 0.609375 -0.671875q0.375 -0.25 0.84375 -0.390625q0.34375 -0.078125 1.046875 -0.171875q1.421875 -0.171875 2.09375 -0.40625q0 -0.234375 0 -0.296875q0 -0.71875 -0.328125 -1.015625q-0.453125 -0.390625 -1.34375 -0.390625q-0.8125 0 -1.21875 0.296875q-0.390625 0.28125 -0.578125 1.015625l-1.140625 -0.15625q0.15625 -0.734375 0.515625 -1.1875q0.359375 -0.453125 1.03125 -0.6875q0.671875 -0.25 1.5625 -0.25q0.890625 0 1.4375 0.203125q0.5625 0.203125 0.8125 0.53125q0.265625 0.3125 0.375 0.796875q0.046875 0.296875 0.046875 1.078125l0 1.5625q0 1.625 0.078125 2.0625q0.078125 0.4375 0.296875 0.828125l-1.21875 0q-0.1875 -0.359375 -0.234375 -0.859375zm-0.09375 -2.609375q-0.640625 0.265625 -1.921875 0.4375q-0.71875 0.109375 -1.015625 0.25q-0.296875 0.125 -0.46875 0.375q-0.15625 0.25 -0.15625 0.546875q0 0.46875 0.34375 0.78125q0.359375 0.3125 1.046875 0.3125q0.671875 0 1.203125 -0.296875q0.53125 -0.296875 0.78125 -0.8125q0.1875 -0.390625 0.1875 -1.171875l0 -0.421875zm2.9906006 3.46875l0 -6.90625l1.0625 0l0 0.984375q0.75 -1.140625 2.1875 -1.140625q0.625 0 1.15625 0.21875q0.53125 0.21875 0.78125 0.59375q0.265625 0.359375 0.375 0.859375q0.0625 0.328125 0.0625 1.140625l0 4.25l-1.171875 0l0 -4.203125q0 -0.71875 -0.140625 -1.0625q-0.140625 -0.359375 -0.484375 -0.5625q-0.34375 -0.21875 -0.8125 -0.21875q-0.75 0 -1.296875 0.46875q-0.546875 0.46875 -0.546875 1.796875l0 3.78125l-1.171875 0zm6.9437256 -2.0625l1.15625 -0.1875q0.109375 0.703125 0.546875 1.078125q0.453125 0.359375 1.25 0.359375q0.8125 0 1.203125 -0.328125q0.390625 -0.328125 0.390625 -0.765625q0 -0.390625 -0.359375 -0.625q-0.234375 -0.15625 -1.1875 -0.390625q-1.296875 -0.328125 -1.796875 -0.5625q-0.484375 -0.25 -0.75 -0.65625q-0.25 -0.421875 -0.25 -0.9375q0 -0.453125 0.203125 -0.84375q0.21875 -0.40625 0.578125 -0.671875q0.28125 -0.1875 0.75 -0.328125q0.46875 -0.140625 1.015625 -0.140625q0.8125 0 1.421875 0.234375q0.609375 0.234375 0.90625 0.640625q0.296875 0.390625 0.40625 1.0625l-1.140625 0.15625q-0.078125 -0.53125 -0.453125 -0.828125q-0.375 -0.3125 -1.0625 -0.3125q-0.8125 0 -1.15625 0.265625q-0.34375 0.265625 -0.34375 0.625q0 0.234375 0.140625 0.421875q0.15625 0.1875 0.453125 0.3125q0.171875 0.0625 1.03125 0.296875q1.25 0.328125 1.734375 0.546875q0.5 0.203125 0.78125 0.609375q0.28125 0.40625 0.28125 1.0q0 0.59375 -0.34375 1.109375q-0.34375 0.515625 -1.0 0.796875q-0.640625 0.28125 -1.453125 0.28125q-1.34375 0 -2.046875 -0.5625q-0.703125 -0.5625 -0.90625 -1.65625zm7.1328125 4.71875l0 -9.5625l1.078125 0l0 0.890625q0.375 -0.53125 0.84375 -0.78125q0.484375 -0.265625 1.15625 -0.265625q0.875 0 1.546875 0.453125q0.6875 0.453125 1.03125 1.28125q0.34375 0.828125 0.34375 1.828125q0 1.046875 -0.375 1.90625q-0.375 0.84375 -1.109375 1.296875q-0.71875 0.453125 -1.53125 0.453125q-0.578125 0 -1.046875 -0.25q-0.46875 -0.25 -0.765625 -0.625l0 3.375l-1.171875 0zm1.0625 -6.078125q0 1.34375 0.53125 1.984375q0.546875 0.625 1.3125 0.625q0.78125 0 1.34375 -0.65625q0.5625 -0.65625 0.5625 -2.046875q0 -1.3125 -0.546875 -1.96875q-0.546875 -0.671875 -1.296875 -0.671875q-0.75 0 -1.328125 0.703125q-0.578125 0.703125 -0.578125 2.03125zm5.9124756 -0.03125q0 -1.921875 1.078125 -2.84375q0.890625 -0.765625 2.171875 -0.765625q1.421875 0 2.328125 0.9375q0.90625 0.921875 0.90625 2.578125q0 1.328125 -0.40625 2.09375q-0.390625 0.765625 -1.15625 1.1875q-0.765625 0.421875 -1.671875 0.421875q-1.453125 0 -2.359375 -0.921875q-0.890625 -0.9375 -0.890625 -2.6875zm1.203125 0q0 1.328125 0.578125 1.984375q0.59375 0.65625 1.46875 0.65625q0.875 0 1.453125 -0.65625q0.578125 -0.671875 0.578125 -2.03125q0 -1.28125 -0.59375 -1.9375q-0.578125 -0.65625 -1.4375 -0.65625q-0.875 0 -1.46875 0.65625q-0.578125 0.65625 -0.578125 1.984375zm6.6312256 3.453125l0 -6.90625l1.0625 0l0 1.046875q0.40625 -0.734375 0.734375 -0.96875q0.34375 -0.234375 0.765625 -0.234375q0.59375 0 1.203125 0.375l-0.40625 1.078125q-0.4375 -0.25 -0.859375 -0.25q-0.390625 0 -0.703125 0.234375q-0.296875 0.234375 -0.421875 0.640625q-0.203125 0.625 -0.203125 1.359375l0 3.625l-1.171875 0zm7.0164948 -1.046875l0.171875 1.03125q-0.5 0.109375 -0.890625 0.109375q-0.640625 0 -1.0 -0.203125q-0.34375 -0.203125 -0.484375 -0.53125q-0.140625 -0.328125 -0.140625 -1.390625l0 -3.96875l-0.859375 0l0 -0.90625l0.859375 0l0 -1.71875l1.171875 -0.703125l0 2.421875l1.171875 0l0 0.90625l-1.171875 0l0 4.046875q0 0.5 0.046875 0.640625q0.0625 0.140625 0.203125 0.234375q0.140625 0.078125 0.40625 0.078125q0.203125 0 0.515625 -0.046875z" fill-rule="nonzero"/><path fill="#000000" fill-opacity="0.0" d="m132.76378 229.91733l112.944885 0l0 37.07086l-112.944885 0z" fill-rule="evenodd"/><path fill="#000000" d="m142.7794 251.71732l0 -9.546875l1.296875 0l5.015625 7.5l0 -7.5l1.203125 0l0 9.546875l-1.296875 0l-5.015625 -7.5l0 7.5l-1.203125 0zm14.218903 -2.21875l1.203125 0.140625q-0.28125 1.0625 -1.0625 1.65625q-0.765625 0.578125 -1.96875 0.578125q-1.515625 0 -2.40625 -0.9375q-0.890625 -0.9375 -0.890625 -2.609375q0 -1.75 0.890625 -2.703125q0.90625 -0.96875 2.34375 -0.96875q1.390625 0 2.265625 0.9375q0.875 0.9375 0.875 2.65625q0 0.109375 0 0.3125l-5.15625 0q0.0625 1.140625 0.640625 1.75q0.578125 0.59375 1.4375 0.59375q0.65625 0 1.109375 -0.328125q0.453125 -0.34375 0.71875 -1.078125zm-3.84375 -1.90625l3.859375 0q-0.078125 -0.859375 -0.4375 -1.296875q-0.5625 -0.6875 -1.453125 -0.6875q-0.8125 0 -1.359375 0.546875q-0.546875 0.53125 -0.609375 1.4375zm9.084351 3.078125l0.171875 1.03125q-0.5 0.109375 -0.890625 0.109375q-0.640625 0 -1.0 -0.203125q-0.34375 -0.203125 -0.484375 -0.53125q-0.140625 -0.328125 -0.140625 -1.390625l0 -3.96875l-0.859375 0l0 -0.90625l0.859375 0l0 -1.71875l1.171875 -0.703125l0 2.421875l1.171875 0l0 0.90625l-1.171875 0l0 4.046875q0 0.5 0.046875 0.640625q0.0625 0.140625 0.203125 0.234375q0.140625 0.078125 0.40625 0.078125q0.203125 0 0.515625 -0.046875zm2.4217377 1.046875l-2.125 -6.90625l1.21875 0l1.09375 3.984375l0.421875 1.484375q0.015625 -0.109375 0.359375 -1.421875l1.09375 -4.046875l1.203125 0l1.03125 4.0l0.34375 1.328125l0.40625 -1.34375l1.171875 -3.984375l1.140625 0l-2.15625 6.90625l-1.21875 0l-1.09375 -4.140625l-0.265625 -1.171875l-1.40625 5.3125l-1.21875 0zm7.9064026 -3.453125q0 -1.921875 1.078125 -2.84375q0.890625 -0.765625 2.171875 -0.765625q1.421875 0 2.328125 0.9375q0.90625 0.921875 0.90625 2.578125q0 1.328125 -0.40625 2.09375q-0.390625 0.765625 -1.15625 1.1875q-0.765625 0.421875 -1.671875 0.421875q-1.453125 0 -2.359375 -0.921875q-0.890625 -0.9375 -0.890625 -2.6875zm1.203125 0q0 1.328125 0.578125 1.984375q0.59375 0.65625 1.46875 0.65625q0.875 0 1.453125 -0.65625q0.578125 -0.671875 0.578125 -2.03125q0 -1.28125 -0.59375 -1.9375q-0.578125 -0.65625 -1.4375 -0.65625q-0.875 0 -1.46875 0.65625q-0.578125 0.65625 -0.578125 1.984375zm6.6312256 3.453125l0 -6.90625l1.0625 0l0 1.046875q0.40625 -0.734375 0.734375 -0.96875q0.34375 -0.234375 0.765625 -0.234375q0.59375 0 1.203125 0.375l-0.40625 1.078125q-0.4375 -0.25 -0.859375 -0.25q-0.390625 0 -0.703125 0.234375q-0.296875 0.234375 -0.421875 0.640625q-0.203125 0.625 -0.203125 1.359375l0 3.625l-1.171875 0zm4.4696198 0l0 -9.546875l1.171875 0l0 5.453125l2.765625 -2.8125l1.515625 0l-2.640625 2.5625l2.90625 4.34375l-1.4375 0l-2.28125 -3.53125l-0.828125 0.796875l0 2.734375l-1.171875 0z" fill-rule="nonzero"/><path fill="#000000" fill-opacity="0.0" d="m121.33071 313.04462l135.811 0l0 37.07086l-135.811 0z" fill-rule="evenodd"/><path fill="#000000" d="m131.29945 334.8446l0 -9.546875l1.265625 0l0 8.421875l4.703125 0l0 1.125l-5.96875 0zm7.3343506 -8.1875l0 -1.359375l1.171875 0l0 1.359375l-1.171875 0zm0 8.1875l0 -6.90625l1.171875 0l0 6.90625l-1.171875 0zm2.945465 0l0 -6.90625l1.0625 0l0 0.984375q0.75 -1.140625 2.1875 -1.140625q0.625 0 1.15625 0.21875q0.53125 0.21875 0.78125 0.59375q0.265625 0.359375 0.375 0.859375q0.0625 0.328125 0.0625 1.140625l0 4.25l-1.171875 0l0 -4.203125q0 -0.71875 -0.140625 -1.0625q-0.140625 -0.359375 -0.484375 -0.5625q-0.34375 -0.21875 -0.8125 -0.21875q-0.75 0 -1.296875 0.46875q-0.546875 0.46875 -0.546875 1.796875l0 3.78125l-1.171875 0zm7.4281006 0l0 -9.546875l1.171875 0l0 5.453125l2.765625 -2.8125l1.515625 0l-2.640625 2.5625l2.90625 4.34375l-1.4375 0l-2.28125 -3.53125l-0.828125 0.796875l0 2.734375l-1.171875 0zm9.476425 0.15625l2.765625 -9.859375l0.9375 0l-2.765625 9.859375l-0.9375 0zm8.39035 -0.15625l0 -9.546875l1.90625 0l2.25 6.765625q0.3125 0.9375 0.46875 1.40625q0.15625 -0.515625 0.5 -1.53125l2.28125 -6.640625l1.703125 0l0 9.546875l-1.21875 0l0 -7.984375l-2.765625 7.984375l-1.140625 0l-2.765625 -8.125l0 8.125l-1.21875 0zm15.727432 -2.21875l1.203125 0.140625q-0.28125 1.0625 -1.0625 1.65625q-0.765625 0.578125 -1.96875 0.578125q-1.515625 0 -2.40625 -0.9375q-0.890625 -0.9375 -0.890625 -2.609375q0 -1.75 0.890625 -2.703125q0.90625 -0.96875 2.34375 -0.96875q1.390625 0 2.265625 0.9375q0.875 0.9375 0.875 2.65625q0 0.109375 0 0.3125l-5.15625 0q0.0625 1.140625 0.640625 1.75q0.578125 0.59375 1.4375 0.59375q0.65625 0 1.109375 -0.328125q0.453125 -0.34375 0.71875 -1.078125zm-3.84375 -1.90625l3.859375 0q-0.078125 -0.859375 -0.4375 -1.296875q-0.5625 -0.6875 -1.453125 -0.6875q-0.8125 0 -1.359375 0.546875q-0.546875 0.53125 -0.609375 1.4375zm11.006226 4.125l0 -0.875q-0.65625 1.03125 -1.9375 1.03125q-0.8125 0 -1.515625 -0.453125q-0.6875 -0.453125 -1.078125 -1.265625q-0.375 -0.828125 -0.375 -1.890625q0 -1.03125 0.34375 -1.875q0.34375 -0.84375 1.03125 -1.28125q0.703125 -0.453125 1.546875 -0.453125q0.625 0 1.109375 0.265625q0.5 0.25 0.796875 0.671875l0 -3.421875l1.171875 0l0 9.546875l-1.09375 0zm-3.703125 -3.453125q0 1.328125 0.5625 1.984375q0.5625 0.65625 1.328125 0.65625q0.765625 0 1.296875 -0.625q0.53125 -0.625 0.53125 -1.90625q0 -1.421875 -0.546875 -2.078125q-0.546875 -0.671875 -1.34375 -0.671875q-0.78125 0 -1.3125 0.640625q-0.515625 0.625 -0.515625 2.0zm6.6468506 -4.734375l0 -1.359375l1.171875 0l0 1.359375l-1.171875 0zm0 8.1875l0 -6.90625l1.171875 0l0 6.90625l-1.171875 0zm7.46109 -0.859375q-0.65625 0.5625 -1.265625 0.796875q-0.59375 0.21875 -1.28125 0.21875q-1.140625 0 -1.75 -0.546875q-0.609375 -0.5625 -0.609375 -1.4375q0 -0.5 0.21875 -0.921875q0.234375 -0.421875 0.609375 -0.671875q0.375 -0.25 0.84375 -0.390625q0.34375 -0.078125 1.046875 -0.171875q1.421875 -0.171875 2.09375 -0.40625q0 -0.234375 0 -0.296875q0 -0.71875 -0.328125 -1.015625q-0.453125 -0.390625 -1.34375 -0.390625q-0.8125 0 -1.21875 0.296875q-0.390625 0.28125 -0.578125 1.015625l-1.140625 -0.15625q0.15625 -0.734375 0.515625 -1.1875q0.359375 -0.453125 1.03125 -0.6875q0.671875 -0.25 1.5625 -0.25q0.890625 0 1.4375 0.203125q0.5625 0.203125 0.8125 0.53125q0.265625 0.3125 0.375 0.796875q0.046875 0.296875 0.046875 1.078125l0 1.5625q0 1.625 0.078125 2.0625q0.078125 0.4375 0.296875 0.828125l-1.21875 0q-0.1875 -0.359375 -0.234375 -0.859375zm-0.09375 -2.609375q-0.640625 0.265625 -1.921875 0.4375q-0.71875 0.109375 -1.015625 0.25q-0.296875 0.125 -0.46875 0.375q-0.15625 0.25 -0.15625 0.546875q0 0.46875 0.34375 0.78125q0.359375 0.3125 1.046875 0.3125q0.671875 0 1.203125 -0.296875q0.53125 -0.296875 0.78125 -0.8125q0.1875 -0.390625 0.1875 -1.171875l0 -0.421875z" fill-rule="nonzero"/><path fill="#000000" fill-opacity="0.0" d="m7.929134 117.00787l833.6378 0.6614151" fill-rule="evenodd"/><path stroke="#595959" stroke-width="1.0" stroke-linejoin="round" stroke-linecap="butt" stroke-dasharray="4.0,3.0" d="m7.929134 117.00787l833.6378 0.6614151" fill-rule="evenodd"/><path fill="#000000" fill-opacity="0.0" d="m33.139107 116.10236l0 -107.65354l45.291336 0l0 107.65354z" fill-rule="evenodd"/><path fill="#000000" d="m52.37911 107.11799l-7.625 -2.921875l0 -1.09375l7.625 -3.125l0 1.15625l-2.3125 0.890625l0 3.1875l2.3125 0.828125l0 1.078125zm-3.125 -2.203125l0 -2.578125l-2.125 0.796875q-0.953125 0.359375 -1.578125 0.53125q0.734375 0.15625 1.453125 0.421875l2.25 0.828125zm5.25 -5.6232605l-7.65625 0l0 -0.859375l0.71875 0q-0.421875 -0.296875 -0.625 -0.671875q-0.21875 -0.390625 -0.21875 -0.921875q0 -0.703125 0.375 -1.25q0.359375 -0.546875 1.03125 -0.8125q0.65625 -0.28125 1.453125 -0.28125q0.84375 0 1.53125 0.3125q0.671875 0.296875 1.03125 0.875q0.359375 0.578125 0.359375 1.21875q0 0.46875 -0.1875 0.84375q-0.203125 0.375 -0.515625 0.609375l2.703125 0l0 0.9375zm-4.859375 -0.84375q1.0625 0 1.578125 -0.4375q0.515625 -0.4375 0.515625 -1.046875q0 -0.625 -0.53125 -1.0625q-0.53125 -0.453125 -1.640625 -0.453125q-1.046875 0 -1.578125 0.4375q-0.53125 0.4375 -0.53125 1.046875q0 0.59375 0.5625 1.0625q0.5625 0.453125 1.625 0.453125zm4.859375 -5.0827484l-7.65625 0l0 -0.859375l0.71875 0q-0.421875 -0.296875 -0.625 -0.671875q-0.21875 -0.390625 -0.21875 -0.921875q0 -0.703125 0.375 -1.25q0.359375 -0.546875 1.03125 -0.8125q0.65625 -0.28125 1.453125 -0.28125q0.84375 0 1.53125 0.3125q0.671875 0.296875 1.03125 0.875q0.359375 0.578125 0.359375 1.21875q0 0.46875 -0.1875 0.84375q-0.203125 0.375 -0.515625 0.609375l2.703125 0l0 0.9375zm-4.859375 -0.84375q1.0625 0 1.578125 -0.4375q0.515625 -0.4375 0.515625 -1.046875q0 -0.625 -0.53125 -1.0625q-0.53125 -0.453125 -1.640625 -0.453125q-1.046875 0 -1.578125 0.4375q-0.53125 0.4375 -0.53125 1.046875q0 0.59375 0.5625 1.0625q0.5625 0.453125 1.625 0.453125zm2.734375 -5.0671234l-7.625 0l0 -0.9375l7.625 0l0 0.9375zm-6.546875 -2.3831024l-1.078125 0l0 -0.9375l1.078125 0l0 0.9375zm6.546875 0l-5.53125 0l0 -0.9375l5.53125 0l0 0.9375zm-2.03125 -5.9768524l0.125 -0.921875q0.953125 0.15625 1.5 0.78125q0.53125 0.625 0.53125 1.53125q0 1.125 -0.734375 1.8125q-0.75 0.6875 -2.125 0.6875q-0.90625 0 -1.578125 -0.296875q-0.671875 -0.296875 -1.0 -0.890625q-0.34375 -0.609375 -0.34375 -1.328125q0 -0.890625 0.46875 -1.46875q0.453125 -0.578125 1.28125 -0.734375l0.140625 0.90625q-0.546875 0.140625 -0.828125 0.46875q-0.28125 0.328125 -0.28125 0.796875q0 0.703125 0.515625 1.15625q0.5 0.4375 1.59375 0.4375q1.109375 0 1.625 -0.421875q0.5 -0.4375 0.5 -1.125q0 -0.546875 -0.34375 -0.90625q-0.34375 -0.375 -1.046875 -0.484375zm1.34375 -5.328125q0.453125 0.53125 0.640625 1.015625q0.171875 0.46875 0.171875 1.015625q0 0.921875 -0.4375 1.40625q-0.453125 0.484375 -1.140625 0.484375q-0.40625 0 -0.734375 -0.171875q-0.34375 -0.1875 -0.546875 -0.484375q-0.203125 -0.3125 -0.3125 -0.6875q-0.0625 -0.265625 -0.140625 -0.828125q-0.125 -1.125 -0.3125 -1.671875q-0.203125 0 -0.25 0q-0.578125 0 -0.8125 0.265625q-0.3125 0.359375 -0.3125 1.0625q0 0.65625 0.234375 0.984375q0.234375 0.3125 0.8125 0.453125l-0.125 0.921875q-0.578125 -0.125 -0.9375 -0.40625q-0.375 -0.296875 -0.5625 -0.828125q-0.203125 -0.546875 -0.203125 -1.25q0 -0.71875 0.171875 -1.15625q0.171875 -0.4375 0.421875 -0.640625q0.25 -0.21875 0.640625 -0.296875q0.234375 -0.046875 0.859375 -0.046875l1.25 0q1.296875 0 1.65625 -0.0625q0.34375 -0.0625 0.65625 -0.234375l0 0.96875q-0.296875 0.15625 -0.6875 0.1875zm-2.078125 0.078125q0.203125 0.515625 0.34375 1.53125q0.078125 0.578125 0.1875 0.828125q0.109375 0.234375 0.3125 0.359375q0.1875 0.125 0.4375 0.125q0.375 0 0.625 -0.28125q0.25 -0.28125 0.25 -0.828125q0 -0.53125 -0.234375 -0.953125q-0.234375 -0.421875 -0.65625 -0.625q-0.3125 -0.15625 -0.9375 -0.15625l-0.328125 0zm1.921875 -4.4421234l0.828125 -0.125q0.09375 0.390625 0.09375 0.703125q0 0.5 -0.15625 0.78125q-0.171875 0.28125 -0.4375 0.40625q-0.265625 0.109375 -1.109375 0.109375l-3.171875 0l0 0.6875l-0.734375 0l0 -0.6875l-1.359375 0l-0.5625 -0.9375l1.921875 0l0 -0.9375l0.734375 0l0 0.9375l3.234375 0q0.390625 0 0.515625 -0.046875q0.109375 -0.046875 0.1875 -0.15625q0.0625 -0.109375 0.0625 -0.328125q0 -0.15625 -0.046875 -0.40625zm-5.703125 -0.9137726l-1.078125 0l0 -0.9375l1.078125 0l0 0.9375zm6.546875 0l-5.53125 0l0 -0.9375l5.53125 0l0 0.9375zm-2.765625 -2.0237274q-1.53125 0 -2.265625 -0.84375q-0.625 -0.71875 -0.625 -1.734375q0 -1.140625 0.75 -1.859375q0.75 -0.734375 2.0625 -0.734375q1.0625 0 1.6875 0.328125q0.609375 0.3125 0.953125 0.921875q0.328125 0.609375 0.328125 1.34375q0 1.15625 -0.734375 1.875q-0.75 0.703125 -2.15625 0.703125zm0 -0.953125q1.0625 0 1.59375 -0.46875q0.53125 -0.46875 0.53125 -1.15625q0 -0.703125 -0.53125 -1.15625q-0.53125 -0.46875 -1.625 -0.46875q-1.015625 0 -1.546875 0.46875q-0.53125 0.453125 -0.53125 1.15625q0 0.6875 0.53125 1.15625q0.515625 0.46875 1.578125 0.46875zm2.765625 -5.3171234l-5.53125 0l0 -0.84375l0.796875 0q-0.921875 -0.609375 -0.921875 -1.75q0 -0.5 0.1875 -0.921875q0.171875 -0.421875 0.46875 -0.625q0.296875 -0.21875 0.6875 -0.296875q0.265625 -0.046875 0.921875 -0.046875l3.390625 0l0 0.9375l-3.359375 0q-0.578125 0 -0.859375 0.109375q-0.28125 0.109375 -0.453125 0.390625q-0.171875 0.265625 -0.171875 0.640625q0 0.59375 0.390625 1.03125q0.375 0.4375 1.4375 0.4375l3.015625 0l0 0.9375zm0 -8.965271l-7.625 0l0 -1.015625l6.71875 0l0 -3.75l0.90625 0l0 4.765625zm-0.6875 -9.457748q0.453125 0.53125 0.640625 1.015625q0.171875 0.46875 0.171875 1.015625q0 0.921875 -0.4375 1.40625q-0.453125 0.484375 -1.140625 0.484375q-0.40625 0 -0.734375 -0.171875q-0.34375 -0.1875 -0.546875 -0.484375q-0.203125 -0.3125 -0.3125 -0.6875q-0.0625 -0.265625 -0.140625 -0.828125q-0.125 -1.125 -0.3125 -1.671875q-0.203125 0 -0.25 0q-0.578125 0 -0.8125 0.265625q-0.3125 0.359375 -0.3125 1.0625q0 0.65625 0.234375 0.984375q0.234375 0.3125 0.8125 0.453125l-0.125 0.921875q-0.578125 -0.125 -0.9375 -0.40625q-0.375 -0.296875 -0.5625 -0.828125q-0.203125 -0.546875 -0.203125 -1.25q0 -0.71875 0.171875 -1.15625q0.171875 -0.4375 0.421875 -0.640625q0.25 -0.21875 0.640625 -0.296875q0.234375 -0.046875 0.859375 -0.046875l1.25 0q1.296875 0 1.65625 -0.0625q0.34375 -0.0625 0.65625 -0.234375l0 0.96875q-0.296875 0.15625 -0.6875 0.1875zm-2.078125 0.078125q0.203125 0.515625 0.34375 1.53125q0.078125 0.578125 0.1875 0.828125q0.109375 0.234375 0.3125 0.359375q0.1875 0.125 0.4375 0.125q0.375 0 0.625 -0.28125q0.25 -0.28125 0.25 -0.828125q0 -0.53125 -0.234375 -0.953125q-0.234375 -0.421875 -0.65625 -0.625q-0.3125 -0.15625 -0.9375 -0.15625l-0.328125 0zm4.890625 -2.3483734l-0.875 0.09375q0.078125 -0.296875 0.078125 -0.53125q0 -0.3125 -0.109375 -0.5q-0.09375 -0.1875 -0.28125 -0.3125q-0.140625 -0.078125 -0.703125 -0.28125q-0.078125 -0.03125 -0.21875 -0.078125l-5.546875 2.09375l0 -1.015625l3.203125 -1.140625q0.609375 -0.234375 1.28125 -0.40625q-0.640625 -0.15625 -1.265625 -0.375l-3.21875 -1.1875l0 -0.9375l5.625 2.109375q0.90625 0.328125 1.25 0.515625q0.46875 0.25 0.6875 0.578125q0.21875 0.3125 0.21875 0.765625q0 0.265625 -0.125 0.609375zm-3.90625 -9.156252l0.125 -0.96875q0.84375 0.234375 1.3125 0.859375q0.46875 0.609375 0.46875 1.578125q0 1.2031269 -0.75 1.9218769q-0.75 0.703125 -2.09375 0.703125q-1.390625 0 -2.15625 -0.71875q-0.78125 -0.71875 -0.78125 -1.8593769q0 -1.109375 0.765625 -1.8125q0.75 -0.703125 2.125 -0.703125q0.078125 0 0.234375 0l0 4.125002q0.921875 -0.046875 1.40625 -0.515625q0.484375 -0.46875 0.484375 -1.1562519q0 -0.515625 -0.265625 -0.875q-0.28125 -0.359375 -0.875 -0.578125zm-1.515625 3.078127l0 -3.093752q-0.6875 0.0625 -1.046875 0.359375q-0.53125 0.453125 -0.53125 1.15625q0 0.6406269 0.4375 1.0937519q0.421875 0.4375 1.140625 0.484375zm3.296875 -5.2077503l-5.53125 0l0 -0.84375l0.84375 0q-0.59375 -0.328125 -0.78125 -0.59375q-0.1875 -0.28125 -0.1875 -0.609375q0 -0.46875 0.3125 -0.953125l0.859375 0.3125q-0.203125 0.34375 -0.203125 0.6875q0 0.3125 0.1875 0.5625q0.1875 0.234375 0.515625 0.34375q0.5 0.15625 1.09375 0.15625l2.890625 0l0 0.9375z" fill-rule="nonzero"/><path fill="#000000" fill-opacity="0.0" d="m33.139107 297.4357l0 -123.55905l45.291336 0l0 123.55905z" fill-rule="evenodd"/><path fill="#000000" d="m52.37911 287.6232l-7.625 0l0 -1.03125l5.984375 -4.015625l-5.984375 0l0 -0.96875l7.625 0l0 1.046875l-6.0 4.0l6.0 0l0 0.96875zm-1.78125 -11.367493l0.125 -0.96875q0.84375 0.234375 1.3125 0.859375q0.46875 0.609375 0.46875 1.578125q0 1.203125 -0.75 1.921875q-0.75 0.703125 -2.09375 0.703125q-1.390625 0 -2.15625 -0.71875q-0.78125 -0.71875 -0.78125 -1.859375q0 -1.109375 0.765625 -1.8125q0.75 -0.703125 2.125 -0.703125q0.078125 0 0.234375 0l0 4.125q0.921875 -0.046875 1.40625 -0.515625q0.484375 -0.46875 0.484375 -1.15625q0 -0.515625 -0.265625 -0.875q-0.28125 -0.359375 -0.875 -0.578125zm-1.515625 3.078125l0 -3.09375q-0.6875 0.0625 -1.046875 0.359375q-0.53125 0.453125 -0.53125 1.15625q0 0.640625 0.4375 1.09375q0.421875 0.4375 1.140625 0.484375zm2.453125 -7.270233l0.828125 -0.125q0.09375 0.390625 0.09375 0.703125q0 0.5 -0.15625 0.78125q-0.171875 0.28125 -0.4375 0.40625q-0.265625 0.109375 -1.109375 0.109375l-3.171875 0l0 0.6875l-0.734375 0l0 -0.6875l-1.359375 0l-0.5625 -0.9375l1.921875 0l0 -0.9375l0.734375 0l0 0.9375l3.234375 0q0.390625 0 0.515625 -0.046875q0.109375 -0.046875 0.1875 -0.15625q0.0625 -0.109375 0.0625 -0.328125q0 -0.15625 -0.046875 -0.40625zm0.84375 -1.9294128l-5.53125 1.6875l0 -0.96875l3.1875 -0.875l1.1875 -0.328125q-0.078125 -0.03125 -1.140625 -0.296875l-3.234375 -0.875l0 -0.953125l3.203125 -0.828125l1.0625 -0.28125l-1.0625 -0.3125l-3.203125 -0.953125l0 -0.90625l5.53125 1.71875l0 0.984375l-3.3125 0.875l-0.9375 0.21875l4.25 1.109375l0 0.984375zm-2.765625 -6.336212q-1.53125 0 -2.265625 -0.84375q-0.625 -0.71875 -0.625 -1.734375q0 -1.140625 0.75 -1.859375q0.75 -0.734375 2.0625 -0.734375q1.0625 0 1.6875 0.328125q0.609375 0.3125 0.953125 0.921875q0.328125 0.609375 0.328125 1.34375q0 1.15625 -0.734375 1.875q-0.75 0.703125 -2.15625 0.703125zm0 -0.953125q1.0625 0 1.59375 -0.46875q0.53125 -0.46875 0.53125 -1.15625q0 -0.703125 -0.53125 -1.15625q-0.53125 -0.46875 -1.625 -0.46875q-1.015625 0 -1.546875 0.46875q-0.53125 0.453125 -0.53125 1.15625q0 0.6875 0.53125 1.15625q0.515625 0.46875 1.578125 0.46875zm2.765625 -5.3015137l-5.53125 0l0 -0.84375l0.84375 0q-0.59375 -0.328125 -0.78125 -0.59375q-0.1875 -0.28123474 -0.1875 -0.60935974q0 -0.46875 0.3125 -0.953125l0.859375 0.3125q-0.203125 0.34375 -0.203125 0.6875q0 0.3125 0.1875 0.56248474q0.1875 0.234375 0.515625 0.34375q0.5 0.15625 1.09375 0.15625l2.890625 0l0 0.9375zm0 -3.5642242l-7.625 0l0 -0.9375l4.34375 0l-2.25 -2.21875l0 -1.21875l2.0625 2.125l3.46875 -2.328125l0 1.15625l-2.828125 1.8125l0.640625 0.671875l2.1875 0l0 0.9375zm-6.546875 -5.328125l-1.078125 0l0 -0.9375l1.078125 0l0 0.9375zm6.546875 0l-5.53125 0l0 -0.9375l5.53125 0l0 0.9375zm0 -2.3674774l-5.53125 0l0 -0.84375l0.796875 0q-0.921875 -0.609375 -0.921875 -1.75q0 -0.5 0.1875 -0.921875q0.171875 -0.421875 0.46875 -0.625q0.296875 -0.21875 0.6875 -0.296875q0.265625 -0.046875 0.921875 -0.046875l3.390625 0l0 0.9375l-3.359375 0q-0.578125 0 -0.859375 0.109375q-0.28125 0.109375 -0.453125 0.390625q-0.171875 0.265625 -0.171875 0.640625q0 0.59375 0.390625 1.03125q0.375 0.4375 1.4375 0.4375l3.015625 0l0 0.9375zm0.453125 -5.7546234l0.140625 -0.90625q0.421875 -0.0625 0.609375 -0.328125q0.265625 -0.34375 0.265625 -0.9375q0 -0.65625 -0.265625 -1.0q-0.25 -0.359375 -0.71875 -0.484375q-0.296875 -0.078125 -1.203125 -0.078125q0.71875 0.625 0.71875 1.53125q0 1.140625 -0.8125 1.765625q-0.828125 0.625 -1.984375 0.625q-0.78125 0 -1.453125 -0.28125q-0.671875 -0.296875 -1.03125 -0.828125q-0.375 -0.546875 -0.375 -1.28125q0 -0.984375 0.796875 -1.609375l-0.671875 0l0 -0.875l4.78125 0q1.296875 0 1.828125 0.265625q0.546875 0.265625 0.859375 0.84375q0.3125 0.5625 0.3125 1.390625q0 0.984375 -0.453125 1.59375q-0.4375 0.609375 -1.34375 0.59375zm-3.3125 -0.78125q1.078125 0 1.578125 -0.421875q0.5 -0.4375 0.5 -1.078125q0 -0.65625 -0.484375 -1.09375q-0.5 -0.4375 -1.5625 -0.4375q-1.015625 0 -1.53125 0.453125q-0.515625 0.453125 -0.515625 1.09375q0 0.609375 0.515625 1.046875q0.5 0.4375 1.5 0.4375zm2.859375 -11.316544l-7.625 0l0 -1.015625l6.71875 0l0 -3.75l0.90625 0l0 4.765625zm-0.6875 -9.457748q0.453125 0.53125 0.640625 1.015625q0.171875 0.46875 0.171875 1.015625q0 0.921875 -0.4375 1.40625q-0.453125 0.484375 -1.140625 0.484375q-0.40625 0 -0.734375 -0.171875q-0.34375 -0.1875 -0.546875 -0.484375q-0.203125 -0.3125 -0.3125 -0.6875q-0.0625 -0.265625 -0.140625 -0.828125q-0.125 -1.125 -0.3125 -1.671875q-0.203125 0 -0.25 0q-0.578125 0 -0.8125 0.265625q-0.3125 0.359375 -0.3125 1.0625q0 0.65625 0.234375 0.984375q0.234375 0.3125 0.8125 0.453125l-0.125 0.921875q-0.578125 -0.125 -0.9375 -0.40625q-0.375 -0.296875 -0.5625 -0.828125q-0.203125 -0.546875 -0.203125 -1.25q0 -0.71875 0.171875 -1.15625q0.171875 -0.4375 0.421875 -0.640625q0.25 -0.21875 0.640625 -0.296875q0.234375 -0.046875 0.859375 -0.046875l1.25 0q1.296875 0 1.65625 -0.0625q0.34375 -0.0625 0.65625 -0.234375l0 0.96875q-0.296875 0.15625 -0.6875 0.1875zm-2.078125 0.078125q0.203125 0.515625 0.34375 1.53125q0.078125 0.578125 0.1875 0.828125q0.109375 0.234375 0.3125 0.359375q0.1875 0.125 0.4375 0.125q0.375 0 0.625 -0.28125q0.25 -0.28125 0.25 -0.828125q0 -0.53125 -0.234375 -0.953125q-0.234375 -0.421875 -0.65625 -0.625q-0.3125 -0.15625 -0.9375 -0.15625l-0.328125 0zm4.890625 -2.3483734l-0.875 0.09375q0.078125 -0.296875 0.078125 -0.53125q0 -0.3125 -0.109375 -0.5q-0.09375 -0.1875 -0.28125 -0.3125q-0.140625 -0.078125 -0.703125 -0.28125q-0.078125 -0.03125 -0.21875 -0.078125l-5.546875 2.09375l0 -1.015625l3.203125 -1.140625q0.609375 -0.234375 1.28125 -0.40625q-0.640625 -0.15625 -1.265625 -0.375l-3.21875 -1.1875l0 -0.9375l5.625 2.109375q0.90625 0.328125 1.25 0.515625q0.46875 0.25 0.6875 0.578125q0.21875 0.3125 0.21875 0.765625q0 0.265625 -0.125 0.609375zm-3.90625 -9.15625l0.125 -0.96875q0.84375 0.234375 1.3125 0.859375q0.46875 0.609375 0.46875 1.578125q0 1.203125 -0.75 1.921875q-0.75 0.703125 -2.09375 0.703125q-1.390625 0 -2.15625 -0.71875q-0.78125 -0.71875 -0.78125 -1.859375q0 -1.109375 0.765625 -1.8125q0.75 -0.703125 2.125 -0.703125q0.078125 0 0.234375 0l0 4.125q0.921875 -0.046875 1.40625 -0.515625q0.484375 -0.46875 0.484375 -1.15625q0 -0.515625 -0.265625 -0.875q-0.28125 -0.359375 -0.875 -0.578125zm-1.515625 3.078125l0 -3.09375q-0.6875 0.0625 -1.046875 0.359375q-0.53125 0.453125 -0.53125 1.15625q0 0.640625 0.4375 1.09375q0.421875 0.4375 1.140625 0.484375zm3.296875 -5.2077484l-5.53125 0l0 -0.84375l0.84375 0q-0.59375 -0.328125 -0.78125 -0.59375q-0.1875 -0.28125 -0.1875 -0.609375q0 -0.46875 0.3125 -0.953125l0.859375 0.3125q-0.203125 0.34375 -0.203125 0.6875q0 0.3125 0.1875 0.5625q0.1875 0.234375 0.515625 0.34375q0.5 0.15625 1.09375 0.15625l2.890625 0l0 0.9375z" fill-rule="nonzero"/></g></svg>