<svg version="1.1" viewBox="0.0 0.0 335.21259842519686 168.07874015748033" fill="none" stroke="none" stroke-linecap="square" stroke-miterlimit="10" xmlns:xlink="http://www.w3.org/1999/xlink" xmlns="http://www.w3.org/2000/svg"><clipPath id="p.0"><path d="m0 0l335.2126 0l0 168.07874l-335.2126 0l0 -168.07874z" clip-rule="nonzero"/></clipPath><g clip-path="url(#p.0)"><path fill="#000000" fill-opacity="0.0" d="m0 0l335.2126 0l0 168.07874l-335.2126 0z" fill-rule="evenodd"/><path fill="#000000" fill-opacity="0.0" d="m7.1818814 102.70079l0 0c0 -33.876366 71.82481 -61.338585 160.42519 -61.338585l0 0c88.60039 0 160.42522 27.46222 160.42522 61.338585l0 0c0 33.876358 -71.82483 61.338577 -160.42522 61.338577l0 0c-88.60038 0 -160.42519 -27.46222 -160.42519 -61.338577z" fill-rule="evenodd"/><path stroke="#0000ff" stroke-width="1.0" stroke-linejoin="round" stroke-linecap="butt" stroke-dasharray="4.0,3.0" d="m7.1818814 102.70079l0 0c0 -33.876366 71.82481 -61.338585 160.42519 -61.338585l0 0c88.60039 0 160.42522 27.46222 160.42522 61.338585l0 0c0 33.876358 -71.82483 61.338577 -160.42522 61.338577l0 0c-88.60038 0 -160.42519 -27.46222 -160.42519 -61.338577z" fill-rule="evenodd"/><path fill="#000000" fill-opacity="0.0" d="m67.57481 94.13123l55.55905 -28.157478" fill-rule="evenodd"/><path stroke="#0000ff" stroke-width="2.0" stroke-linejoin="round" stroke-linecap="butt" d="m67.57481 94.13123l55.55905 -28.157478" fill-rule="evenodd"/><path fill="#000000" fill-opacity="0.0" d="m122.580055 66.53281l79.43307 0" fill-rule="evenodd"/><path stroke="#0000ff" stroke-width="2.0" stroke-linejoin="round" stroke-linecap="butt" d="m122.580055 66.53281l79.43307 0" fill-rule="evenodd"/><path fill="#6d9eeb" d="m57.53281 94.69292l0 0c0 -5.55764 4.2515297 -10.062996 9.496059 -10.062996l0 0c2.5185165 0 4.933876 1.0602036 6.7147293 2.94738c1.7808609 1.8871765 2.781334 4.446739 2.781334 7.115616l0 0c0 5.5576324 -4.2515335 10.062988 -9.496063 10.062988l0 0c-5.2445297 0 -9.496059 -4.505356 -9.496059 -10.062988z" fill-rule="evenodd"/><path stroke="#000000" stroke-width="2.0" stroke-linejoin="round" stroke-linecap="butt" d="m57.53281 94.69292l0 0c0 -5.55764 4.2515297 -10.062996 9.496059 -10.062996l0 0c2.5185165 0 4.933876 1.0602036 6.7147293 2.94738c1.7808609 1.8871765 2.781334 4.446739 2.781334 7.115616l0 0c0 5.5576324 -4.2515335 10.062988 -9.496063 10.062988l0 0c-5.2445297 0 -9.496059 -4.505356 -9.496059 -10.062988z" fill-rule="evenodd"/><path fill="#000000" fill-opacity="0.0" d="m200.88107 66.138985l72.59842 39.74803" fill-rule="evenodd"/><path stroke="#0000ff" stroke-width="2.0" stroke-linejoin="round" stroke-linecap="butt" d="m200.88107 66.138985l72.59842 39.74803" fill-rule="evenodd"/><path fill="#000000" fill-opacity="0.0" d="m123.698166 135.16536l85.00787 10.047241" fill-rule="evenodd"/><path stroke="#0000ff" stroke-width="2.0" stroke-linejoin="round" stroke-linecap="butt" d="m123.698166 135.16536l85.00787 10.047241" fill-rule="evenodd"/><path fill="#000000" fill-opacity="0.0" d="m173.23885 101.97113l101.6378 4.4094467" fill-rule="evenodd"/><path stroke="#0000ff" stroke-width="2.0" stroke-linejoin="round" stroke-linecap="butt" d="m173.23885 101.97113l101.6378 4.4094467" fill-rule="evenodd"/><path fill="#000000" fill-opacity="0.0" d="m208.3412 145.51443l65.41734 -38.58268" fill-rule="evenodd"/><path stroke="#0000ff" stroke-width="2.0" stroke-linejoin="round" stroke-linecap="butt" d="m208.3412 145.51443l65.41734 -38.58268" fill-rule="evenodd"/><path fill="#000000" fill-opacity="0.0" d="m123.3727 135.45145l50.299217 -33.543312" fill-rule="evenodd"/><path stroke="#0000ff" stroke-width="2.0" stroke-linejoin="round" stroke-linecap="butt" d="m123.3727 135.45145l50.299217 -33.543312" fill-rule="evenodd"/><path fill="#000000" fill-opacity="0.0" d="m172.5643 101.35433l-49.196846 -33.543312" fill-rule="evenodd"/><path stroke="#0000ff" stroke-width="2.0" stroke-linejoin="round" stroke-linecap="butt" d="m172.5643 101.35433l-49.196846 -33.543312" fill-rule="evenodd"/><path fill="#000000" fill-opacity="0.0" d="m208.90027 144.95538l-35.74803 -43.055122" fill-rule="evenodd"/><path stroke="#0000ff" stroke-width="2.0" stroke-linejoin="round" stroke-linecap="butt" d="m208.90027 144.95538l-35.74803 -43.055122" fill-rule="evenodd"/><path fill="#000000" fill-opacity="0.0" d="m174.80052 102.46982l27.40158 -34.078743" fill-rule="evenodd"/><path stroke="#0000ff" stroke-width="2.0" stroke-linejoin="round" stroke-linecap="butt" d="m174.80052 102.46982l27.40158 -34.078743" fill-rule="evenodd"/><path fill="#6d9eeb" d="m192.52493 66.53281l0 0c0 -5.5576363 4.251541 -10.062988 9.496063 -10.062988l0 0c2.518509 0 4.9338684 1.0602036 6.714737 2.94738c1.7808533 1.8871765 2.7813263 4.446739 2.7813263 7.115608l0 0c0 5.55764 -4.251526 10.062996 -9.496063 10.062996l0 0c-5.244522 0 -9.496063 -4.505356 -9.496063 -10.062996z" fill-rule="evenodd"/><path stroke="#000000" stroke-width="2.0" stroke-linejoin="round" stroke-linecap="butt" d="m192.52493 66.53281l0 0c0 -5.5576363 4.251541 -10.062988 9.496063 -10.062988l0 0c2.518509 0 4.9338684 1.0602036 6.714737 2.94738c1.7808533 1.8871765 2.7813263 4.446739 2.7813263 7.115608l0 0c0 5.55764 -4.251526 10.062996 -9.496063 10.062996l0 0c-5.244522 0 -9.496063 -4.505356 -9.496063 -10.062996z" fill-rule="evenodd"/><path fill="#6d9eeb" d="m163.46982 101.8189l0 0c0 -5.55764 4.251526 -10.062996 9.496063 -10.062996l0 0c2.518509 0 4.9338684 1.0602036 6.7147217 2.94738c1.7808685 1.8871765 2.7813416 4.446739 2.7813416 7.115616l0 0c0 5.5576324 -4.251541 10.062988 -9.496063 10.062988l0 0c-5.2445374 0 -9.496063 -4.505356 -9.496063 -10.062988z" fill-rule="evenodd"/><path stroke="#000000" stroke-width="2.0" stroke-linejoin="round" stroke-linecap="butt" d="m163.46982 101.8189l0 0c0 -5.55764 4.251526 -10.062996 9.496063 -10.062996l0 0c2.518509 0 4.9338684 1.0602036 6.7147217 2.94738c1.7808685 1.8871765 2.7813416 4.446739 2.7813416 7.115616l0 0c0 5.5576324 -4.251541 10.062988 -9.496063 10.062988l0 0c-5.2445374 0 -9.496063 -4.505356 -9.496063 -10.062988z" fill-rule="evenodd"/><path fill="#6d9eeb" d="m198.09973 144.65355l0 0c0 -5.5576477 4.251541 -10.063004 9.496063 -10.063004l0 0c2.5185242 0 4.9338837 1.0602112 6.714737 2.9473877c1.7808533 1.8871765 2.7813263 4.4467316 2.7813263 7.115616l0 0c0 5.5576324 -4.251526 10.062988 -9.496063 10.062988l0 0c-5.244522 0 -9.496063 -4.505356 -9.496063 -10.062988z" fill-rule="evenodd"/><path stroke="#000000" stroke-width="2.0" stroke-linejoin="round" stroke-linecap="butt" d="m198.09973 144.65355l0 0c0 -5.5576477 4.251541 -10.063004 9.496063 -10.063004l0 0c2.5185242 0 4.9338837 1.0602112 6.714737 2.9473877c1.7808533 1.8871765 2.7813263 4.4467316 2.7813263 7.115616l0 0c0 5.5576324 -4.251526 10.062988 -9.496063 10.062988l0 0c-5.244522 0 -9.496063 -4.505356 -9.496063 -10.062988z" fill-rule="evenodd"/><path fill="#6d9eeb" d="m265.1076 106.29396l0 0c0 -5.5576324 4.251526 -10.062988 9.496063 -10.062988l0 0c2.5185242 0 4.9338684 1.0602036 6.7147217 2.94738c1.7808838 1.8871765 2.7813416 4.446739 2.7813416 7.115608l0 0c0 5.55764 -4.251526 10.062996 -9.496063 10.062996l0 0c-5.2445374 0 -9.496063 -4.505356 -9.496063 -10.062996z" fill-rule="evenodd"/><path stroke="#000000" stroke-width="2.0" stroke-linejoin="round" stroke-linecap="butt" d="m265.1076 106.29396l0 0c0 -5.5576324 4.251526 -10.062988 9.496063 -10.062988l0 0c2.5185242 0 4.9338684 1.0602036 6.7147217 2.94738c1.7808838 1.8871765 2.7813416 4.446739 2.7813416 7.115608l0 0c0 5.55764 -4.251526 10.062996 -9.496063 10.062996l0 0c-5.2445374 0 -9.496063 -4.505356 -9.496063 -10.062996z" fill-rule="evenodd"/><path fill="#6d9eeb" d="m113.07874 66.53281l0 0c0 -5.5576363 4.251526 -10.062988 9.496063 -10.062988l0 0c2.518509 0 4.9338684 1.0602036 6.7147293 2.94738c1.7808533 1.8871765 2.7813263 4.446739 2.7813263 7.115608l0 0c0 5.55764 -4.251526 10.062996 -9.496056 10.062996l0 0c-5.2445374 0 -9.496063 -4.505356 -9.496063 -10.062996z" fill-rule="evenodd"/><path stroke="#000000" stroke-width="2.0" stroke-linejoin="round" stroke-linecap="butt" d="m113.07874 66.53281l0 0c0 -5.5576363 4.251526 -10.062988 9.496063 -10.062988l0 0c2.518509 0 4.9338684 1.0602036 6.7147293 2.94738c1.7808533 1.8871765 2.7813263 4.446739 2.7813263 7.115608l0 0c0 5.55764 -4.251526 10.062996 -9.496056 10.062996l0 0c-5.2445374 0 -9.496063 -4.505356 -9.496063 -10.062996z" fill-rule="evenodd"/><path fill="#6d9eeb" d="m113.07874 134.59055l0 0c0 -5.5576324 4.251526 -10.062988 9.496063 -10.062988l0 0c2.518509 0 4.9338684 1.0602036 6.7147293 2.94738c1.7808533 1.8871841 2.7813263 4.446739 2.7813263 7.115608l0 0c0 5.5576477 -4.251526 10.063004 -9.496056 10.063004l0 0c-5.2445374 0 -9.496063 -4.505356 -9.496063 -10.063004z" fill-rule="evenodd"/><path stroke="#000000" stroke-width="2.0" stroke-linejoin="round" stroke-linecap="butt" d="m113.07874 134.59055l0 0c0 -5.5576324 4.251526 -10.062988 9.496063 -10.062988l0 0c2.518509 0 4.9338684 1.0602036 6.7147293 2.94738c1.7808533 1.8871841 2.7813263 4.446739 2.7813263 7.115608l0 0c0 5.5576477 -4.251526 10.063004 -9.496056 10.063004l0 0c-5.2445374 0 -9.496063 -4.505356 -9.496063 -10.063004z" fill-rule="evenodd"/><path fill="#000000" fill-opacity="0.0" d="m38.625923 4.03937l263.55905 0l0 48.0l-263.55905 0z" fill-rule="evenodd"/><path fill="#000000" d="m94.95703 32.83937l0 -8.421877l-3.140625 0l0 -1.125l7.5625 0l0 1.125l-3.15625 0l0 8.421877l-1.265625 0zm5.5632324 0l0 -9.546877l1.171875 0l0 3.421875q0.828125 -0.9375 2.078125 -0.9375q0.765625 0 1.328125 0.296875q0.5625 0.296875 0.8125 0.84375q0.25 0.53125 0.25 1.546875l0 4.375002l-1.171875 0l0 -4.375002q0 -0.890625 -0.390625 -1.28125q-0.375 -0.40625 -1.078125 -0.40625q-0.515625 0 -0.984375 0.28125q-0.453125 0.265625 -0.65625 0.734375q-0.1875 0.453125 -0.1875 1.265625l0 3.781252l-1.171875 0zm7.3968506 0l0 -6.906252l1.0625 0l0 1.046875q0.40625 -0.734375 0.734375 -0.96875q0.34375 -0.234375 0.765625 -0.234375q0.59375 0 1.203125 0.375l-0.40625 1.078125q-0.4375 -0.25 -0.859375 -0.25q-0.390625 0 -0.703125 0.234375q-0.296875 0.234375 -0.421875 0.640625q-0.203125 0.625 -0.203125 1.359375l0 3.625002l-1.171875 0zm9.18837 -2.218752l1.203125 0.140625q-0.28125 1.0625 -1.0625 1.6562519q-0.765625 0.578125 -1.96875 0.578125q-1.515625 0 -2.40625 -0.9375q-0.890625 -0.9375019 -0.890625 -2.609377q0 -1.75 0.890625 -2.703125q0.90625 -0.96875 2.34375 -0.96875q1.390625 0 2.265625 0.9375q0.875 0.9375 0.875 2.65625q0 0.109375 0 0.3125l-5.15625 0q0.0625 1.140625 0.640625 1.75q0.578125 0.5937519 1.4375 0.5937519q0.65625 0 1.109375 -0.3281269q0.453125 -0.34375 0.71875 -1.078125zm-3.84375 -1.90625l3.859375 0q-0.078125 -0.859375 -0.4375 -1.296875q-0.5625 -0.6875 -1.453125 -0.6875q-0.8125 0 -1.359375 0.546875q-0.546875 0.53125 -0.609375 1.4375zm11.037476 3.265625q-0.65625 0.5625019 -1.265625 0.7968769q-0.59375 0.21875 -1.28125 0.21875q-1.140625 0 -1.75 -0.546875q-0.609375 -0.5625019 -0.609375 -1.4375019q0 -0.5 0.21875 -0.921875q0.234375 -0.421875 0.609375 -0.671875q0.375 -0.25 0.84375 -0.390625q0.34375 -0.078125 1.046875 -0.171875q1.421875 -0.171875 2.09375 -0.40625q0 -0.234375 0 -0.296875q0 -0.71875 -0.328125 -1.015625q-0.453125 -0.390625 -1.34375 -0.390625q-0.8125 0 -1.21875 0.296875q-0.390625 0.28125 -0.578125 1.015625l-1.140625 -0.15625q0.15625 -0.734375 0.515625 -1.1875q0.359375 -0.453125 1.03125 -0.6875q0.671875 -0.25 1.5625 -0.25q0.890625 0 1.4375 0.203125q0.5625 0.203125 0.8125 0.53125q0.265625 0.3125 0.375 0.796875q0.046875 0.296875 0.046875 1.078125l0 1.5625q0 1.625 0.078125 2.062502q0.078125 0.4375 0.296875 0.828125l-1.21875 0q-0.1875 -0.359375 -0.234375 -0.8593769zm-0.09375 -2.609375q-0.640625 0.265625 -1.921875 0.4375q-0.71875 0.109375 -1.015625 0.25q-0.296875 0.125 -0.46875 0.375q-0.15625 0.25 -0.15625 0.546875q0 0.46875 0.34375 0.78125q0.359375 0.3125019 1.046875 0.3125019q0.671875 0 1.203125 -0.2968769q0.53125 -0.296875 0.78125 -0.8125q0.1875 -0.390625 0.1875 -1.171875l0 -0.421875zm7.4749756 3.468752l0 -0.8750019q-0.65625 1.0312519 -1.9375 1.0312519q-0.8125 0 -1.515625 -0.453125q-0.6875 -0.453125 -1.078125 -1.2656269q-0.375 -0.828125 -0.375 -1.890625q0 -1.03125 0.34375 -1.875q0.34375 -0.84375 1.03125 -1.28125q0.703125 -0.453125 1.546875 -0.453125q0.625 0 1.109375 0.265625q0.5 0.25 0.796875 0.671875l0 -3.421875l1.171875 0l0 9.546877l-1.09375 0zm-3.703125 -3.453127q0 1.328125 0.5625 1.984375q0.5625 0.6562519 1.328125 0.6562519q0.765625 0 1.296875 -0.6250019q0.53125 -0.625 0.53125 -1.90625q0 -1.421875 -0.546875 -2.078125q-0.546875 -0.671875 -1.34375 -0.671875q-0.78125 0 -1.3125 0.640625q-0.515625 0.625 -0.515625 2.0zm9.459213 3.609377l2.765625 -9.859377l0.9375 0l-2.765625 9.859377l-0.9375 0zm9.76535 -5.328127q-0.734375 -0.265625 -1.09375 -0.765625q-0.34375 -0.5 -0.34375 -1.1875q0 -1.03125 0.75 -1.734375q0.75 -0.71875 1.984375 -0.71875q1.25 0 2.015625 0.734375q0.765625 0.71875 0.765625 1.75q0 0.671875 -0.359375 1.171875q-0.34375 0.484375 -1.046875 0.75q0.875 0.28125 1.328125 0.921875q0.46875 0.640625 0.46875 1.515625q0 1.234375 -0.875 2.062502q-0.859375 0.828125 -2.265625 0.828125q-1.421875 0 -2.28125 -0.828125q-0.859375 -0.8437519 -0.859375 -2.093752q0 -0.921875 0.46875 -1.546875q0.46875 -0.640625 1.34375 -0.859375zm-0.234375 -1.984375q0 0.671875 0.4375 1.109375q0.4375 0.421875 1.125 0.421875q0.671875 0 1.109375 -0.421875q0.4375 -0.421875 0.4375 -1.046875q0 -0.640625 -0.453125 -1.078125q-0.4375 -0.4375 -1.109375 -0.4375q-0.671875 0 -1.109375 0.4375q-0.4375 0.421875 -0.4375 1.015625zm-0.375 4.40625q0 0.5 0.234375 0.96875q0.234375 0.46875 0.703125 0.734375q0.46875 0.2500019 1.015625 0.2500019q0.828125 0 1.375 -0.5312519q0.546875 -0.546875 0.546875 -1.390625q0 -0.84375 -0.5625 -1.390625q-0.5625 -0.5625 -1.40625 -0.5625q-0.828125 0 -1.375 0.546875q-0.53125 0.546875 -0.53125 1.375zm6.2093506 -1.953125q0 -1.6875 0.34375 -2.71875q0.359375 -1.03125 1.046875 -1.59375q0.6875 -0.5625 1.71875 -0.5625q0.78125 0 1.359375 0.3125q0.578125 0.296875 0.953125 0.890625q0.375 0.578125 0.59375 1.421875q0.21875 0.828125 0.21875 2.25q0 1.671875 -0.359375 2.703125q-0.34375 1.03125 -1.03125 1.5937519q-0.671875 0.5625 -1.734375 0.5625q-1.375 0 -2.15625 -0.984375q-0.953125 -1.1875019 -0.953125 -3.875002zm1.203125 0q0 2.34375 0.546875 3.125q0.5625 0.7812519 1.359375 0.7812519q0.8125 0 1.359375 -0.7812519q0.5625 -0.78125 0.5625 -3.125q0 -2.359375 -0.5625 -3.125q-0.546875 -0.78125 -1.359375 -0.78125q-0.8125 0 -1.296875 0.6875q-0.609375 0.875 -0.609375 3.21875zm12.365601 3.578125l0 1.1250019l-6.296875 0q-0.015625 -0.421875 0.140625 -0.8125q0.234375 -0.6406269 0.765625 -1.2656269q0.53125 -0.625 1.53125 -1.453125q1.5625 -1.265625 2.109375 -2.015625q0.546875 -0.75 0.546875 -1.40625q0 -0.703125 -0.5 -1.171875q-0.5 -0.484375 -1.296875 -0.484375q-0.859375 0 -1.375 0.515625q-0.5 0.5 -0.5 1.390625l-1.203125 -0.109375q0.125 -1.359375 0.921875 -2.0625q0.8125 -0.703125 2.171875 -0.703125q1.375 0 2.171875 0.765625q0.8125 0.75 0.8125 1.875q0 0.578125 -0.234375 1.140625q-0.234375 0.546875 -0.78125 1.15625q-0.546875 0.609375 -1.8125 1.671875q-1.046875 0.890625 -1.359375 1.21875q-0.296875 0.3125 -0.484375 0.625l4.671875 0zm1.9124756 1.1250019l0 -1.3281269l1.34375 0l0 1.3281269l-1.34375 0zm7.4685974 0l-1.171875 0l0 -7.468752q-0.421875 0.40625 -1.109375 0.8125q-0.6875 0.40625 -1.234375 0.609375l0 -1.140625q0.984375 -0.453125 1.71875 -1.109375q0.734375 -0.671875 1.03125 -1.28125l0.765625 0l0 9.578127zm2.9906006 -2.500002l1.234375 -0.109375q0.140625 0.90625 0.640625 1.359375q0.5 0.4531269 1.203125 0.4531269q0.84375 0 1.421875 -0.6406269q0.59375 -0.640625 0.59375 -1.6875q0 -1.0 -0.5625 -1.578125q-0.5625 -0.59375 -1.484375 -0.59375q-0.5625 0 -1.015625 0.265625q-0.453125 0.25 -0.71875 0.671875l-1.09375 -0.15625l0.921875 -4.890625l4.75 0l0 1.109375l-3.8125 0l-0.515625 2.5625q0.859375 -0.59375 1.796875 -0.59375q1.25 0 2.109375 0.875q0.859375 0.859375 0.859375 2.21875q0 1.296875 -0.75 2.234375q-0.921875 1.1562519 -2.5 1.1562519q-1.3125 0 -2.140625 -0.71875q-0.8125 -0.7343769 -0.9375 -1.9375019zm8.068726 2.500002l0 -1.3281269l1.34375 0l0 1.3281269l-1.34375 0zm6.812378 0l0 -2.281252l-4.140625 0l0 -1.078125l4.34375 -6.1875l0.96875 0l0 6.1875l1.28125 0l0 1.078125l-1.28125 0l0 2.281252l-1.171875 0zm0 -3.359377l0 -4.296875l-2.984375 4.296875l2.984375 0zm7.818573 3.359377l0 -9.546877l1.296875 0l5.015625 7.5l0 -7.5l1.203125 0l0 9.546877l-1.296875 0l-5.015625 -7.500002l0 7.500002l-1.203125 0zm14.218903 -2.218752l1.203125 0.140625q-0.28125 1.0625 -1.0625 1.6562519q-0.765625 0.578125 -1.96875 0.578125q-1.515625 0 -2.40625 -0.9375q-0.890625 -0.9375019 -0.890625 -2.609377q0 -1.75 0.890625 -2.703125q0.90625 -0.96875 2.34375 -0.96875q1.390625 0 2.265625 0.9375q0.875 0.9375 0.875 2.65625q0 0.109375 0 0.3125l-5.15625 0q0.0625 1.140625 0.640625 1.75q0.578125 0.5937519 1.4375 0.5937519q0.65625 0 1.109375 -0.3281269q0.453125 -0.34375 0.71875 -1.078125zm-3.84375 -1.90625l3.859375 0q-0.078125 -0.859375 -0.4375 -1.296875q-0.5625 -0.6875 -1.453125 -0.6875q-0.8125 0 -1.359375 0.546875q-0.546875 0.53125 -0.609375 1.4375zm9.084351 3.078125l0.171875 1.0312519q-0.5 0.109375 -0.890625 0.109375q-0.640625 0 -1.0 -0.203125q-0.34375 -0.203125 -0.484375 -0.53125q-0.140625 -0.3281269 -0.140625 -1.3906269l0 -3.96875l-0.859375 0l0 -0.90625l0.859375 0l0 -1.71875l1.171875 -0.703125l0 2.421875l1.171875 0l0 0.90625l-1.171875 0l0 4.046875q0 0.5 0.046875 0.640625q0.0625 0.140625 0.203125 0.234375q0.140625 0.078125 0.40625 0.078125q0.203125 0 0.515625 -0.046875zm2.421753 1.0468769l-2.125 -6.906252l1.21875 0l1.09375 3.984375l0.421875 1.484375q0.015625 -0.109375 0.359375 -1.421875l1.09375 -4.046875l1.203125 0l1.03125 4.0l0.34375 1.328125l0.40625 -1.34375l1.171875 -3.984375l1.140625 0l-2.15625 6.906252l-1.21875 0l-1.09375 -4.140627l-0.265625 -1.171875l-1.40625 5.312502l-1.21875 0zm7.9064026 -3.453127q0 -1.921875 1.078125 -2.84375q0.890625 -0.765625 2.171875 -0.765625q1.421875 0 2.328125 0.9375q0.90625 0.921875 0.90625 2.578125q0 1.328125 -0.40625 2.09375q-0.390625 0.7656269 -1.15625 1.1875019q-0.765625 0.421875 -1.671875 0.421875q-1.453125 0 -2.359375 -0.921875q-0.890625 -0.9375019 -0.890625 -2.687502zm1.203125 0q0 1.328125 0.578125 1.984375q0.59375 0.6562519 1.46875 0.6562519q0.875 0 1.453125 -0.6562519q0.578125 -0.671875 0.578125 -2.03125q0 -1.28125 -0.59375 -1.9375q-0.578125 -0.65625 -1.4375 -0.65625q-0.875 0 -1.46875 0.65625q-0.578125 0.65625 -0.578125 1.984375zm6.6312256 3.453127l0 -6.906252l1.0625 0l0 1.046875q0.40625 -0.734375 0.734375 -0.96875q0.34375 -0.234375 0.765625 -0.234375q0.59375 0 1.203125 0.375l-0.40625 1.078125q-0.4375 -0.25 -0.859375 -0.25q-0.390625 0 -0.703125 0.234375q-0.296875 0.234375 -0.421875 0.640625q-0.203125 0.625 -0.203125 1.359375l0 3.625002l-1.171875 0zm4.4696045 0l0 -9.546877l1.171875 0l0 5.453125l2.765625 -2.8125l1.515625 0l-2.640625 2.5625l2.90625 4.343752l-1.4375 0l-2.28125 -3.531252l-0.828125 0.796875l0 2.734377l-1.171875 0z" fill-rule="nonzero"/></g></svg>